<?xml version="1.0" standalone="no"?>
<!DOCTYPE svg PUBLIC "-//W3C//DTD SVG 20010904//EN"
 "http://www.w3.org/TR/2001/REC-SVG-20010904/DTD/svg10.dtd">
<svg version="1.0" xmlns="http://www.w3.org/2000/svg"
 width="1657.000000pt" height="1657.000000pt" viewBox="0 0 1657.000000 1657.000000"
 preserveAspectRatio="xMidYMid meet">
<metadata>
Created by potrace 1.14, written by Peter Selinger 2001-2017
</metadata>
<g transform="translate(0.000000,1657.000000) scale(0.100000,-0.100000)"
fill="#000000" stroke="none">
<path d="M1628 15505 c-2 -1 -41 -5 -88 -9 -108 -7 -132 -11 -260 -43 -546
-133 -982 -527 -1177 -1063 -130 -359 -131 -769 -1 -1130 183 -510 596 -898
1119 -1050 391 -114 835 -76 1194 102 136 67 276 156 344 218 9 8 27 25 41 37
l26 23 129 -96 c72 -52 137 -100 145 -107 8 -7 65 -48 125 -92 61 -44 117 -85
125 -92 8 -7 42 -32 75 -56 33 -24 132 -98 220 -163 88 -65 164 -121 170 -123
5 -2 15 -9 21 -15 6 -6 39 -32 73 -56 34 -25 92 -67 129 -95 37 -27 119 -88
182 -135 167 -122 372 -273 475 -350 50 -37 162 -120 250 -185 88 -64 179
-132 202 -149 23 -17 54 -40 69 -51 127 -93 781 -576 789 -582 6 -5 28 -22 50
-38 50 -38 56 -45 45 -65 -13 -25 -47 -169 -55 -230 -8 -65 -7 -212 1 -244 6
-27 16 -22 -231 -126 -55 -23 -118 -51 -140 -61 -42 -19 -565 -245 -1075 -464
-162 -69 -308 -132 -325 -140 -16 -7 -100 -43 -185 -80 -85 -37 -179 -78 -208
-91 -29 -13 -55 -24 -58 -24 -3 0 -33 -13 -67 -28 -34 -16 -180 -80 -325 -142
l-263 -113 -32 30 c-222 209 -563 281 -857 183 -74 -24 -183 -76 -215 -102 -5
-4 -35 -28 -65 -52 -60 -47 -102 -91 -140 -146 -14 -19 -28 -37 -32 -40 -3 -3
-24 -41 -47 -85 -45 -91 -77 -184 -88 -265 -12 -87 -6 -249 12 -320 9 -36 19
-76 22 -90 11 -44 85 -183 129 -241 123 -161 289 -271 491 -325 87 -24 311
-26 393 -4 30 8 57 15 60 15 55 15 164 66 226 106 155 101 280 261 341 434 33
94 41 131 49 245 3 41 9 78 12 81 4 3 99 45 212 94 113 48 223 96 245 106 22
9 72 31 110 47 61 26 602 260 1954 843 l344 148 65 -65 c84 -84 158 -141 255
-195 54 -30 76 -48 73 -58 -3 -9 -8 -36 -11 -61 -3 -25 -8 -52 -10 -60 -2 -8
-6 -37 -10 -65 -3 -27 -8 -61 -10 -75 -2 -14 -9 -56 -15 -95 -6 -38 -13 -81
-15 -95 -10 -57 -45 -288 -49 -325 -3 -22 -7 -49 -10 -60 -2 -11 -7 -42 -10
-68 -4 -27 -9 -56 -11 -65 -1 -10 -6 -37 -9 -62 -3 -25 -8 -54 -10 -65 -2 -11
-9 -56 -16 -100 -6 -44 -13 -91 -15 -105 -3 -14 -7 -43 -10 -65 -3 -22 -8 -51
-10 -65 -8 -42 -13 -79 -40 -255 -14 -93 -28 -179 -30 -190 -3 -11 -7 -40 -10
-65 -2 -25 -7 -56 -10 -70 -2 -13 -7 -42 -10 -65 -3 -22 -10 -65 -15 -95 -5
-30 -12 -73 -15 -95 -5 -35 -15 -98 -31 -200 -2 -16 -6 -41 -9 -55 -2 -14 -7
-45 -10 -70 -7 -52 -34 -223 -41 -260 -2 -14 -7 -44 -10 -66 -2 -23 -6 -51 -9
-62 -2 -11 -7 -42 -11 -69 -3 -26 -8 -57 -10 -68 -3 -11 -7 -38 -10 -60 -2
-22 -7 -52 -9 -67 -3 -16 -7 -43 -10 -60 -3 -18 -7 -44 -10 -58 -2 -14 -7 -45
-10 -70 -3 -25 -11 -72 -16 -104 -6 -33 -13 -78 -15 -100 -3 -23 -9 -66 -14
-96 -5 -30 -12 -73 -15 -95 -3 -22 -10 -62 -15 -90 -5 -27 -11 -68 -14 -90 -3
-22 -10 -71 -16 -110 -6 -38 -13 -83 -16 -100 -2 -16 -6 -41 -9 -55 -2 -14 -7
-43 -10 -65 -3 -22 -10 -65 -15 -95 -9 -54 -11 -69 -30 -200 -5 -36 -14 -92
-20 -125 -5 -33 -10 -63 -10 -67 0 -5 -15 -8 -34 -8 -18 0 -58 -5 -87 -10 -30
-6 -70 -13 -89 -16 -118 -19 -358 -123 -482 -208 -94 -63 -111 -78 -218 -186
-96 -95 -165 -184 -216 -276 -15 -27 -35 -63 -44 -79 -31 -55 -87 -209 -109
-295 -30 -123 -36 -177 -36 -340 0 -164 6 -221 38 -356 23 -96 94 -276 129
-326 10 -14 18 -29 18 -33 0 -9 78 -123 123 -180 52 -65 177 -186 247 -240
197 -150 434 -245 700 -280 75 -10 294 -7 361 5 35 6 73 13 84 15 11 2 55 13
99 24 355 96 683 358 860 684 42 77 93 192 102 226 2 9 15 58 29 110 34 125
40 186 39 371 -1 200 -26 329 -100 515 -126 314 -392 595 -706 744 -51 24 -85
47 -83 54 2 7 6 35 9 62 3 28 8 59 10 70 2 11 7 42 10 68 4 27 9 57 11 67 2 9
6 35 9 56 10 70 18 119 22 139 3 11 7 38 10 60 5 43 12 85 19 125 2 14 7 45
10 70 3 25 15 99 25 165 11 66 27 167 35 225 9 58 18 116 20 130 3 14 7 43 10
65 3 22 10 65 15 95 5 30 12 75 15 100 3 25 12 83 20 130 8 47 16 103 19 125
4 22 8 51 11 65 2 14 7 43 10 65 3 22 10 65 15 95 5 30 12 78 16 105 3 28 8
57 9 67 4 19 18 107 20 128 1 8 5 31 8 50 4 19 9 51 11 70 3 19 12 78 20 130
9 52 18 114 21 138 3 24 7 53 10 65 2 12 7 40 10 62 3 22 7 47 10 55 2 8 7 42
10 75 4 32 8 62 10 65 1 3 6 28 9 55 8 57 16 111 21 140 15 91 41 256 50 320
3 22 12 81 20 130 8 50 26 167 40 260 14 94 28 181 31 195 2 14 7 44 10 66 2
23 6 50 8 60 3 18 13 76 21 134 2 14 9 54 14 90 6 36 13 83 16 105 4 22 9 54
12 70 2 17 6 39 8 50 4 35 17 119 21 138 5 29 14 37 43 37 51 0 234 61 326
108 177 92 336 236 437 398 29 46 60 84 69 84 8 0 73 -11 144 -25 71 -14 143
-28 160 -31 16 -2 37 -7 45 -9 8 -2 31 -7 50 -10 19 -3 42 -8 50 -10 8 -2 31
-6 50 -9 19 -3 46 -8 60 -11 14 -3 50 -10 80 -15 30 -6 102 -20 160 -31 58
-12 114 -22 125 -24 11 -2 58 -11 105 -21 47 -9 92 -18 100 -19 8 -1 40 -7 70
-13 30 -6 69 -14 85 -17 17 -3 41 -7 55 -10 14 -3 144 -28 290 -56 146 -27
308 -59 360 -69 52 -11 111 -22 130 -25 19 -3 89 -16 155 -29 66 -13 170 -34
230 -45 61 -12 121 -23 135 -26 22 -4 54 -10 110 -20 25 -5 490 -95 565 -110
39 -8 82 -16 97 -19 15 -2 63 -12 105 -20 43 -8 164 -31 268 -51 105 -20 233
-45 285 -55 52 -11 111 -22 130 -25 19 -3 89 -17 155 -30 66 -13 140 -27 165
-31 25 -4 47 -8 50 -9 3 -1 19 -4 35 -8 17 -4 48 -10 70 -12 22 -3 55 -10 75
-15 19 -5 49 -11 65 -14 122 -20 205 -40 206 -50 8 -165 14 -230 24 -266 2 -8
6 -31 9 -51 29 -198 167 -510 303 -684 197 -252 437 -436 710 -546 96 -39 258
-86 321 -95 26 -3 50 -8 53 -10 12 -7 150 -17 244 -18 195 0 391 30 548 85 45
16 86 30 92 32 5 1 66 30 135 65 164 82 290 173 420 302 92 92 213 237 233
280 4 8 19 33 32 55 70 110 171 358 190 466 3 18 8 35 10 39 2 4 7 27 10 51 3
24 7 51 9 59 9 31 18 159 18 250 -1 156 -18 281 -66 470 -13 50 -65 179 -107
265 -159 329 -424 596 -754 760 -169 84 -260 114 -489 161 -85 17 -309 23
-426 11 -218 -22 -434 -86 -610 -180 -332 -176 -582 -435 -742 -764 -27 -57
-54 -103 -61 -103 -7 0 -70 12 -142 26 -71 14 -152 29 -180 34 -59 11 -56 10
-310 60 -110 22 -211 41 -225 44 -30 5 -99 17 -120 22 -134 26 -233 45 -265
50 -22 3 -43 8 -47 10 -4 3 -26 7 -50 10 -24 3 -59 9 -78 14 -19 5 -55 12 -80
15 -24 4 -48 8 -51 11 -4 2 -22 6 -40 8 -19 3 -54 9 -79 15 -25 5 -62 12 -83
15 -22 4 -58 10 -80 15 -23 6 -91 19 -152 30 -60 12 -177 34 -260 50 -82 16
-166 32 -185 35 -19 3 -51 10 -70 14 -19 5 -39 10 -45 10 -43 7 -100 18 -225
42 -191 38 -199 39 -240 46 -19 3 -100 19 -180 34 -80 16 -158 31 -175 34 -16
3 -55 10 -85 16 -30 6 -64 13 -75 15 -11 2 -33 7 -50 10 -16 3 -52 10 -80 15
-91 16 -370 70 -385 75 -8 2 -31 6 -50 9 -19 3 -46 8 -60 11 -14 3 -38 8 -55
11 -16 2 -75 14 -130 25 -55 11 -136 26 -180 34 -44 8 -91 17 -105 20 -14 3
-50 10 -80 16 -89 15 -110 19 -220 42 l-105 22 -11 75 c-17 107 -58 235 -104
321 l-19 35 1025 1020 c564 560 1030 1020 1034 1022 5 2 28 -9 52 -24 187
-119 478 -193 730 -188 388 8 710 145 983 419 161 161 282 352 341 540 28 89
53 193 59 244 4 30 9 63 11 75 7 32 6 234 -2 296 -18 160 -86 381 -157 510
-39 72 -95 160 -113 177 -8 8 -14 18 -14 23 0 16 -217 228 -285 278 -146 107
-342 198 -515 239 -75 17 -90 20 -185 29 -599 61 -1165 -257 -1425 -801 -96
-201 -132 -360 -134 -585 -1 -180 6 -246 39 -373 31 -121 66 -213 123 -321
l46 -88 -734 -730 c-404 -401 -866 -860 -1027 -1020 l-291 -291 -89 38 c-104
45 -122 51 -223 73 -109 25 -263 32 -383 17 -155 -19 -333 -86 -470 -176 -32
-22 -62 -39 -67 -39 -4 0 -31 17 -58 38 -28 20 -61 45 -74 54 -13 9 -104 77
-203 150 -99 74 -196 145 -215 158 -19 13 -39 28 -45 32 -5 5 -20 16 -32 26
-12 9 -77 58 -144 107 -198 145 -643 473 -654 482 -5 5 -91 68 -190 141 -349
256 -600 441 -610 449 -5 5 -53 40 -105 78 -52 38 -97 72 -100 75 -3 3 -27 22
-55 41 -55 40 -604 443 -620 456 -5 5 -47 36 -92 69 l-81 61 20 44 c26 59 85
229 92 265 2 16 12 61 20 99 35 163 40 441 10 588 -2 12 -7 36 -9 52 -10 57
-45 184 -66 239 -11 31 -20 58 -20 61 2 14 -117 239 -162 305 -188 280 -443
493 -747 622 -134 57 -202 76 -380 108 -88 16 -322 33 -332 25z"/>
</g>
</svg>
