<svg xmlns="http://www.w3.org/2000/svg" xmlns:xlink="http://www.w3.org/1999/xlink" viewBox="0 0 50 50"><defs><style>.cls-1{fill:url(#Degradado_sin_nombre_3);}.cls-2{fill:#fff;}</style><linearGradient id="Degradado_sin_nombre_3" y1="25" x2="50" y2="25" gradientUnits="userSpaceOnUse"><stop offset="0" stop-color="#00d3e7"/><stop offset="1" stop-color="#5bd27f"/></linearGradient></defs><g id="Layer_2" data-name="Layer 2"><g id="Capa_2" data-name="Capa 2"><circle class="cls-1" cx="25" cy="25" r="25"/><path class="cls-2" d="M15.08,29V19.07h2.21v7.81h4.29V29Z"/><path class="cls-2" d="M29.18,29V25.05h-4V29H23V19.07h2.22V23h4V19.07h2.23V29Z"/><path class="cls-2" d="M33.05,30.74A2.23,2.23,0,0,1,35.42,28a2.2,2.2,0,0,1,2.41,2.13,2.31,2.31,0,0,1-1.28,2l-1.23.72a1.1,1.1,0,0,0-.44.44h3v1.32H33a2.94,2.94,0,0,1,1.53-2.85l1.06-.62c.51-.3.71-.57.71-1a.78.78,0,0,0-.87-.77.87.87,0,0,0-.91,1,1.39,1.39,0,0,0,.06.4Z"/></g></g></svg>