<svg xmlns="http://www.w3.org/2000/svg" viewBox="0 0 36.84 36.48"><defs><style>.cls-1{fill:#fff;}</style></defs><g id="Layer_2" data-name="Layer 2"><g id="Capa_2" data-name="Capa 2"><path class="cls-1" d="M0,0H36.84V36.48H0ZM31.73,15.86c0-2.47,0-4.71,0-6.95,0-1-.28-1.38-1.31-1.38q-9.37,0-18.75,0c-1,0-1.32.38-1.3,1.36q.07,3.62,0,7.23a5.69,5.69,0,0,1-.5,1.51A5.59,5.59,0,0,1,9.31,16c-.08-2,0-3.94-.05-5.91a3.09,3.09,0,0,0-.06-.94A32,32,0,0,0,5,8.7a1.64,1.64,0,0,0-1.31.82c-.81,2.35.07,5.23-2.23,7.13.09,2.3-.67,4.75,1,6.78a1.54,1.54,0,0,0,1.39.4,5.81,5.81,0,0,1,4.59,0A6,6,0,0,0,12,23.8a5.09,5.09,0,0,1,4.27,0,4.46,4.46,0,0,0,4.07,0c1-.4,2.56-.73,3.28-.24,2.82,1.94,5.28-.68,7.92-.29.1,0,.29-.15.36-.28,1.13-2.21,2.25-4.42,3.51-6.92ZM6.2,26.33c-1.33.5-2.4.87-3.45,1.31a9.45,9.45,0,0,0-1.24.77,6.85,6.85,0,0,0,1.57.32c.41,0,.81-.41,1.22-.44,1.15-.08,2.43-.38,3.42,0a6.14,6.14,0,0,0,4.9,0,4.84,4.84,0,0,1,3.23,0,6.16,6.16,0,0,0,4.75,0,4.94,4.94,0,0,1,3.24-.07,6.36,6.36,0,0,0,5.06,0,7.37,7.37,0,0,1,3.27,0c.53.05,1,.48,1.53.54A3.7,3.7,0,0,0,35,28.49a5,5,0,0,0-.94-.8,4.07,4.07,0,0,0-1.53-.54c-1.31-.11-2.76-.45-3.93,0a5.11,5.11,0,0,1-4.39,0,2.8,2.8,0,0,0-2-.4c-2.66,1.11-5.19.34-7.87.15S8.77,28.37,6.2,26.33ZM35,26.52l0-.7c-.85-.31-1.73-.57-2.55-1a4.33,4.33,0,0,0-4.09,0,4,4,0,0,1-4.06,0,4.16,4.16,0,0,0-4.1,0,4.81,4.81,0,0,1-4.08,0,6.49,6.49,0,0,0-3.9,0,5,5,0,0,1-4.38-.11C6.15,23.9,3,24.66,1.5,26.39a4.83,4.83,0,0,0,2.44-.24,4.06,4.06,0,0,1,4.06,0,4.27,4.27,0,0,0,4.25,0,3.75,3.75,0,0,1,3.9,0,4.14,4.14,0,0,0,4.1.05,4.78,4.78,0,0,1,4.22,0,5.9,5.9,0,0,0,3.76,0,5.2,5.2,0,0,1,4.54.07A6.75,6.75,0,0,0,35,26.52Z"/><path d="M31.73,15.86l3.66.24C34.13,18.6,33,20.81,31.88,23c-.07.13-.26.3-.36.28-2.64-.39-5.1,2.23-7.92.29-.72-.49-2.28-.16-3.28.24a4.46,4.46,0,0,1-4.07,0,5.09,5.09,0,0,0-4.27,0,6,6,0,0,1-3.56.07,5.81,5.81,0,0,0-4.59,0,1.54,1.54,0,0,1-1.39-.4c-1.69-2-.93-4.48-1-6.78,2.3-1.9,1.42-4.78,2.23-7.13A1.64,1.64,0,0,1,5,8.7a32,32,0,0,1,4.24.48,3.09,3.09,0,0,1,.06.94c0,2,0,4,.05,5.91a5.59,5.59,0,0,0,.57,1.6,5.69,5.69,0,0,0,.5-1.51q.07-3.61,0-7.23c0-1,.28-1.37,1.3-1.36q9.38,0,18.75,0c1,0,1.33.42,1.31,1.38C31.7,11.15,31.73,13.39,31.73,15.86ZM11.6,17.54H17v-2H11.6ZM25.09,8.78v2h5.38v-2Zm-1.34,6.75h-5.3v2h5.3ZM17,10.81v-2H11.62v2Zm6.76-2H18.42v2h5.34ZM17,12.21H11.62v1.92H17Zm8.06,1.89H30.6l-.11-1.91h-5.4Zm-1.31-1.88H18.37v1.93h5.41Zm1.28,5.06,5.23-1.73H25.06Z"/><path d="M6.2,26.33c2.57,2,5.4.31,8.1.49s5.21,1,7.87-.15a2.8,2.8,0,0,1,2,.4,5.11,5.11,0,0,0,4.39,0c1.17-.4,2.62-.06,3.93,0a4.07,4.07,0,0,1,1.53.54,5,5,0,0,1,.94.8,3.7,3.7,0,0,1-1.29.32c-.52-.06-1-.49-1.53-.54a7.37,7.37,0,0,0-3.27,0,6.36,6.36,0,0,1-5.06,0,4.94,4.94,0,0,0-3.24.07,6.16,6.16,0,0,1-4.75,0,4.84,4.84,0,0,0-3.23,0,6.14,6.14,0,0,1-4.9,0c-1-.39-2.27-.09-3.42,0-.41,0-.81.43-1.22.44a6.85,6.85,0,0,1-1.57-.32,9.45,9.45,0,0,1,1.24-.77C3.8,27.2,4.87,26.83,6.2,26.33Z"/><path d="M35,26.52a6.75,6.75,0,0,1-2.24-.29,5.2,5.2,0,0,0-4.54-.07,5.9,5.9,0,0,1-3.76,0,4.78,4.78,0,0,0-4.22,0,4.14,4.14,0,0,1-4.1-.05,3.75,3.75,0,0,0-3.9,0,4.27,4.27,0,0,1-4.25,0,4.06,4.06,0,0,0-4.06,0,4.83,4.83,0,0,1-2.44.24C3,24.66,6.15,23.9,7.89,24.79a5,5,0,0,0,4.38.11,6.49,6.49,0,0,1,3.9,0,4.81,4.81,0,0,0,4.08,0,4.16,4.16,0,0,1,4.1,0,4,4,0,0,0,4.06,0,4.33,4.33,0,0,1,4.09,0c.82.39,1.7.65,2.55,1Z"/><path class="cls-1" d="M11.6,17.54v-2H17v2Z"/><path class="cls-1" d="M25.09,8.78h5.38v2H25.09Z"/><path class="cls-1" d="M23.75,15.53v2h-5.3v-2Z"/><path class="cls-1" d="M17,10.81H11.62v-2H17Z"/><path class="cls-1" d="M23.76,8.82v2H18.42v-2Z"/><path class="cls-1" d="M17,12.21v1.92H11.62V12.21Z"/><path class="cls-1" d="M25.09,14.1V12.19h5.4l.11,1.91Z"/><path class="cls-1" d="M23.78,12.22v1.93H18.37V12.22Z"/><path class="cls-1" d="M25.06,17.28V15.55h5.23Z"/></g></g></svg>