<svg xmlns="http://www.w3.org/2000/svg" xmlns:xlink="http://www.w3.org/1999/xlink" viewBox="0 0 229.18 70.45"><defs><style>.cls-1{fill:#fff;}.cls-2{fill:url(#Degradado_sin_nombre_3);}</style><linearGradient id="Degradado_sin_nombre_3" y1="35.23" x2="80.85" y2="35.23" gradientUnits="userSpaceOnUse"><stop offset="0" stop-color="#00d3e7"/><stop offset="1" stop-color="#5bd27f"/></linearGradient></defs><g id="Layer_2" data-name="Layer 2"><g id="Capa_1" data-name="Capa 1"><path class="cls-1" d="M101.27,17.47H95.94l-.33,1.21c-.3,1.1-.77,1.65-1.42,1.65A2.21,2.21,0,0,1,93,20a1.31,1.31,0,0,1-.62-.94,3.14,3.14,0,0,1,.13-1L96.25,7.74a2.85,2.85,0,0,1,.91-1.3,2.38,2.38,0,0,1,2.89,0,2.8,2.8,0,0,1,.91,1.3l3.75,10.32a3,3,0,0,1,.13,1,1.25,1.25,0,0,1-.6.94,2.25,2.25,0,0,1-1.22.33,1.06,1.06,0,0,1-.81-.4,2.39,2.39,0,0,1-.5-.91Zm-1-2.85-1.69-5.3-1.69,5.3Z"/><path class="cls-1" d="M110.05,12.34v6.22a1.84,1.84,0,0,1-.41,1.22,1.36,1.36,0,0,1-1.12.49,1.39,1.39,0,0,1-1.12-.5,1.8,1.8,0,0,1-.42-1.21V12.34a2,2,0,0,1-1.54-.45,1.33,1.33,0,0,1-.36-.94,1.4,1.4,0,0,1,.2-.69,1.1,1.1,0,0,1,.5-.5,2.7,2.7,0,0,1,1.2-.19V7.66a1.85,1.85,0,0,1,.41-1.22A1.41,1.41,0,0,1,108.52,6a1.39,1.39,0,0,1,1.12.49,1.84,1.84,0,0,1,.41,1.22V9.57h.87a1.63,1.63,0,0,1,1.1.37,1.22,1.22,0,0,1,.44,1,1.28,1.28,0,0,1-.44,1,1.65,1.65,0,0,1-1.1.37Z"/><path class="cls-1" d="M120.8,19.06a3.66,3.66,0,0,1-1.13,1,3.12,3.12,0,0,1-1.43.3,4.43,4.43,0,0,1-3-1.17,5.5,5.5,0,0,1-1.82-4.33A5.48,5.48,0,0,1,115,10.74a4.35,4.35,0,0,1,3.15-1.4,3.28,3.28,0,0,1,1.43.29,4.31,4.31,0,0,1,1.21.92,1.57,1.57,0,0,1,1.49-1.12,1.54,1.54,0,0,1,1.11.45,1.51,1.51,0,0,1,.45,1.11v7.46a2,2,0,0,1-.43,1.29,1.42,1.42,0,0,1-1.15.53A1.54,1.54,0,0,1,120.8,19.06Zm-4.31-4.28a3.47,3.47,0,0,0,.51,1.89,1.65,1.65,0,0,0,1.51.8,2,2,0,0,0,1.18-.36,2.21,2.21,0,0,0,.77-.94,2.94,2.94,0,0,0,.26-1.24,3.34,3.34,0,0,0-.54-2,1.89,1.89,0,0,0-1.67-.77A1.68,1.68,0,0,0,117,13,3.14,3.14,0,0,0,116.49,14.78Z"/><path class="cls-1" d="M125.73,14.76a6.35,6.35,0,0,1,.39-2.21,4.62,4.62,0,0,1,1.21-1.79,5.2,5.2,0,0,1,1.65-1,5.07,5.07,0,0,1,1.9-.38,6.63,6.63,0,0,1,2.43.45,1.53,1.53,0,0,1,1.15,1.49,1.64,1.64,0,0,1-.35,1,1.12,1.12,0,0,1-.92.44,3.72,3.72,0,0,1-1-.31A3.54,3.54,0,0,0,131,12.2a2.07,2.07,0,0,0-1.5.66,2.82,2.82,0,0,0-.69,2,3.06,3.06,0,0,0,.28,1.34,2.09,2.09,0,0,0,.82.94,2.38,2.38,0,0,0,1.3.34,2.6,2.6,0,0,0,1.14-.29,2.28,2.28,0,0,1,.84-.25,1.33,1.33,0,0,1,.93.35,1.17,1.17,0,0,1,.38.88,1.52,1.52,0,0,1-.59,1.23,3.77,3.77,0,0,1-1.41.72,5.61,5.61,0,0,1-1.5.22,5,5,0,0,1-3.86-1.58A5.66,5.66,0,0,1,125.73,14.76Z"/><path class="cls-1" d="M143.26,19.06a3.69,3.69,0,0,1-1.14,1,3.09,3.09,0,0,1-1.43.3,4.45,4.45,0,0,1-3-1.17,5.49,5.49,0,0,1-1.81-4.33,5.47,5.47,0,0,1,1.6-4.09,4.39,4.39,0,0,1,3.15-1.4,3.25,3.25,0,0,1,1.43.29,4.34,4.34,0,0,1,1.22.92,1.56,1.56,0,0,1,1.48-1.12A1.54,1.54,0,0,1,146.32,11v7.46a2,2,0,0,1-.43,1.29,1.41,1.41,0,0,1-1.15.53A1.53,1.53,0,0,1,143.26,19.06Zm-4.32-4.28a3.47,3.47,0,0,0,.51,1.89,1.66,1.66,0,0,0,1.51.8,2,2,0,0,0,1.19-.36,2.29,2.29,0,0,0,.77-.94,3.1,3.1,0,0,0,.26-1.24,3.27,3.27,0,0,0-.55-2A1.89,1.89,0,0,0,141,12.2a1.69,1.69,0,0,0-1.48.79A3.14,3.14,0,0,0,138.94,14.78Z"/><path class="cls-1" d="M151.74,10.42a4.2,4.2,0,0,1,4.78-.56,2.6,2.6,0,0,1,.85.84,6.55,6.55,0,0,1,1.58-1,4.1,4.1,0,0,1,1.7-.34,3.7,3.7,0,0,1,1.82.46,3.57,3.57,0,0,1,1.32,1.27,3.46,3.46,0,0,1,.48,1.8v5.67a1.88,1.88,0,0,1-.4,1.23,1.37,1.37,0,0,1-1.12.48,1.49,1.49,0,0,1-.82-.23,1.53,1.53,0,0,1-.52-.63,2,2,0,0,1-.18-.85v-5a1.54,1.54,0,0,0-.45-1.15,1.61,1.61,0,0,0-1.17-.43,1.47,1.47,0,0,0-1.12.46,1.53,1.53,0,0,0-.45,1.12v5a1.84,1.84,0,0,1-.41,1.22,1.35,1.35,0,0,1-1.11.49,1.41,1.41,0,0,1-1.13-.5,1.85,1.85,0,0,1-.41-1.21V13.88a2.24,2.24,0,0,0-.39-1.36,1.37,1.37,0,0,0-1.2-.53,1.55,1.55,0,0,0-1.12.45,1.52,1.52,0,0,0-.46,1.13v5a1.85,1.85,0,0,1-.41,1.22,1.38,1.38,0,0,1-1.13.49,1.36,1.36,0,0,1-1.11-.5,1.79,1.79,0,0,1-.41-1.21V11.18a2,2,0,0,1,.37-1.2,1.28,1.28,0,0,1,1-.55A2,2,0,0,1,151.74,10.42Z"/><path class="cls-1" d="M173.53,19.06a3.69,3.69,0,0,1-1.14,1,3,3,0,0,1-1.42.3,4.48,4.48,0,0,1-3-1.17,5.53,5.53,0,0,1-1.81-4.33,5.48,5.48,0,0,1,1.61-4.09,4.35,4.35,0,0,1,3.15-1.4,3.28,3.28,0,0,1,1.43.29,4.31,4.31,0,0,1,1.21.92A1.57,1.57,0,0,1,175,9.43a1.51,1.51,0,0,1,1.11.45A1.48,1.48,0,0,1,176.6,11v7.46a2,2,0,0,1-.43,1.29,1.43,1.43,0,0,1-1.16.53A1.53,1.53,0,0,1,173.53,19.06Zm-4.31-4.28a3.55,3.55,0,0,0,.5,1.89,1.68,1.68,0,0,0,1.52.8,2,2,0,0,0,1.18-.36,2.29,2.29,0,0,0,.77-.94,3.1,3.1,0,0,0,.26-1.24,3.34,3.34,0,0,0-.54-2,1.9,1.9,0,0,0-1.67-.77,1.71,1.71,0,0,0-1.49.79A3.21,3.21,0,0,0,169.22,14.78Z"/><path class="cls-1" d="M102.29,35.28H96.37v4.13A2,2,0,0,1,96,40.67a1.6,1.6,0,0,1-2.34,0,1.92,1.92,0,0,1-.44-1.26V28.63a1.92,1.92,0,0,1,.43-1.26,1.47,1.47,0,0,1,1.18-.51,1.43,1.43,0,0,1,1.16.51,1.92,1.92,0,0,1,.42,1.26v3.79h5.92V28.63a1.92,1.92,0,0,1,.42-1.26,1.61,1.61,0,0,1,2.34,0,1.88,1.88,0,0,1,.43,1.27V39.41a1.87,1.87,0,0,1-.43,1.26,1.6,1.6,0,0,1-2.34,0,2,2,0,0,1-.42-1.26Z"/><path class="cls-1" d="M112.25,36.21l1.8-4.5a4.13,4.13,0,0,1,.58-1.06,1,1,0,0,1,.84-.4,2.23,2.23,0,0,1,.82.17,1.62,1.62,0,0,1,.68.48,1,1,0,0,1,.27.71,2.69,2.69,0,0,1-.17,1l-4.94,11.75c-.29.73-.72,1.09-1.29,1.09a2,2,0,0,1-1.15-.37,1.28,1.28,0,0,1-.56-1,2.61,2.61,0,0,1,.19-.93L110.65,40l-3.15-7.46a2.73,2.73,0,0,1-.19-1,1.12,1.12,0,0,1,.55-1,2.16,2.16,0,0,1,1.21-.37,1,1,0,0,1,.83.39,4.23,4.23,0,0,1,.56,1.05Z"/><path class="cls-1" d="M125,31.17v-3.8a1.82,1.82,0,0,1,.41-1.2,1.42,1.42,0,0,1,1.14-.48,1.38,1.38,0,0,1,1.11.48,1.8,1.8,0,0,1,.41,1.2v12a2,2,0,0,1-.39,1.24,1.31,1.31,0,0,1-1.11.51,1.41,1.41,0,0,1-.95-.3,2.2,2.2,0,0,1-.57-.92,2.9,2.9,0,0,1-1.16,1,3.63,3.63,0,0,1-1.53.3,3.84,3.84,0,0,1-1.92-.52,4.83,4.83,0,0,1-1.52-1.4,6.61,6.61,0,0,1-1.15-3.86,5.75,5.75,0,0,1,1.88-4.08,4.37,4.37,0,0,1,3-1.13A3.77,3.77,0,0,1,125,31.17Zm-4.16,4.38a3.05,3.05,0,0,0,.57,1.82,1.79,1.79,0,0,0,1.55.8,1.7,1.7,0,0,0,1.12-.39,2.44,2.44,0,0,0,.71-1,3.63,3.63,0,0,0,.23-1.25,3.54,3.54,0,0,0-.23-1.24,2.44,2.44,0,0,0-.71-1A1.7,1.7,0,0,0,123,32.9a1.77,1.77,0,0,0-1.15.38,2.3,2.3,0,0,0-.73,1A3.46,3.46,0,0,0,120.87,35.55Z"/><path class="cls-1" d="M133.58,31.36a3,3,0,0,1,2.07-1.15,1.63,1.63,0,0,1,1.13.42,1.35,1.35,0,0,1,.47,1.06,1.13,1.13,0,0,1-.38,1,4.24,4.24,0,0,1-1.18.54,5.49,5.49,0,0,0-1.63.78,1.48,1.48,0,0,0-.48,1.25v4.19a1.82,1.82,0,0,1-.41,1.22,1.41,1.41,0,0,1-1.13.49,1.39,1.39,0,0,1-1.11-.5,1.86,1.86,0,0,1-.41-1.21V32a1.77,1.77,0,0,1,.37-1.24,1.45,1.45,0,0,1,1.11-.51A1.67,1.67,0,0,1,133.58,31.36Z"/><path class="cls-1" d="M137.5,35.7a6.32,6.32,0,0,1,.35-2.09,4.88,4.88,0,0,1,1-1.75,5.27,5.27,0,0,1,1.71-1.23,5.05,5.05,0,0,1,6.82,3,6.6,6.6,0,0,1,.33,2.1,6.4,6.4,0,0,1-.33,2.06,5.16,5.16,0,0,1-1,1.75,5,5,0,0,1-5.79,1.22,4.9,4.9,0,0,1-1.71-1.22A5.34,5.34,0,0,1,137.5,35.7Zm3,0a3.58,3.58,0,0,0,.23,1.24,2.5,2.5,0,0,0,.71,1,1.65,1.65,0,0,0,1.1.39,1.83,1.83,0,0,0,1.16-.39,2.58,2.58,0,0,0,.75-1,3.13,3.13,0,0,0,0-2.5,2.4,2.4,0,0,0-.75-1,1.83,1.83,0,0,0-1.16-.39,1.7,1.7,0,0,0-1.5.83A3.22,3.22,0,0,0,140.53,35.69Z"/><path class="cls-1" d="M156.76,31.4c.43-.76.92-1.15,1.48-1.15a1.36,1.36,0,0,1,1.09.49,1.8,1.8,0,0,1,.39,1.18V40a6.46,6.46,0,0,1-.36,2.22,4.59,4.59,0,0,1-1.08,1.68,4.53,4.53,0,0,1-1.7,1.05,6.44,6.44,0,0,1-2.21.37,7.63,7.63,0,0,1-3.74-.88,1.53,1.53,0,0,1-.93-1.37,1.25,1.25,0,0,1,.38-.91,1.28,1.28,0,0,1,.89-.43,2.47,2.47,0,0,1,.63.08l.85.29a5.45,5.45,0,0,0,1.85.36,2.21,2.21,0,0,0,2.13-1,5,5,0,0,0,.33-1.69,4.18,4.18,0,0,1-1.12,1,2.74,2.74,0,0,1-1.42.35,4.39,4.39,0,0,1-1.84-.4,4.48,4.48,0,0,1-1.54-1.1,6.64,6.64,0,0,1-.89-6.37,5.18,5.18,0,0,1,1.25-1.85,4.64,4.64,0,0,1,1.37-.92,3.85,3.85,0,0,1,1.57-.35,3.29,3.29,0,0,1,1.43.28A4.17,4.17,0,0,1,156.76,31.4Zm-4.19,4.17a3,3,0,0,0,.61,2.06,1.84,1.84,0,0,0,1.46.69,1.74,1.74,0,0,0,1.52-.81,3.23,3.23,0,0,0,.54-1.84,3.18,3.18,0,0,0-.25-1.26,2.4,2.4,0,0,0-.75-1,1.92,1.92,0,0,0-1.19-.38,1.61,1.61,0,0,0-1.42.78A3.13,3.13,0,0,0,152.57,35.57Z"/><path class="cls-1" d="M164.9,36.7a2.57,2.57,0,0,0,.91,1.33,2.35,2.35,0,0,0,1.44.48,3.77,3.77,0,0,0,1.73-.42l.88-.43a1.44,1.44,0,0,1,.58-.15,1.36,1.36,0,0,1,.64.17,1.3,1.3,0,0,1,.49.47,1.09,1.09,0,0,1,.19.61c0,.57-.41,1.09-1.24,1.56a6.81,6.81,0,0,1-3.44.86,5.93,5.93,0,0,1-2.4-.5,5.13,5.13,0,0,1-1.93-1.46,5.94,5.94,0,0,1-.45-6.31,5.29,5.29,0,0,1,1.91-2,5.06,5.06,0,0,1,2.67-.73,5,5,0,0,1,4.38,2.57,5.09,5.09,0,0,1,.66,2.54,1.54,1.54,0,0,1-.3,1.06,1.28,1.28,0,0,1-1,.34Zm4-2.09c-.32-1.28-1-1.92-2.09-1.92s-1.62.64-2,1.92Z"/><path class="cls-1" d="M176.78,31.34a4.54,4.54,0,0,1,1.28-.87,4.08,4.08,0,0,1,1.51-.26,4,4,0,0,1,2.7.92,3,3,0,0,1,.87,1.25,5.57,5.57,0,0,1,.23,1.69v5.34a1.87,1.87,0,0,1-.41,1.22,1.41,1.41,0,0,1-1.13.49,1.36,1.36,0,0,1-1.11-.5,1.82,1.82,0,0,1-.41-1.22V34.77a2.08,2.08,0,0,0-.47-1.38,1.59,1.59,0,0,0-1.29-.55,1.54,1.54,0,0,0-.86.25,1.79,1.79,0,0,0-.61.67,1.94,1.94,0,0,0-.21.89V39.4a1.88,1.88,0,0,1-.41,1.23,1.43,1.43,0,0,1-1.14.49,1.39,1.39,0,0,1-1.11-.5,1.86,1.86,0,0,1-.41-1.21V32.07a2,2,0,0,1,.39-1.25,1.35,1.35,0,0,1,1.09-.54A1.52,1.52,0,0,1,176.78,31.34Z"/><path class="cls-1" d="M201.29,35.28h-5.92v4.13a2,2,0,0,1-.41,1.26,1.6,1.6,0,0,1-2.34,0,1.92,1.92,0,0,1-.44-1.26V28.63a1.92,1.92,0,0,1,.43-1.26,1.47,1.47,0,0,1,1.18-.51,1.43,1.43,0,0,1,1.16.51,1.92,1.92,0,0,1,.42,1.26v3.79h5.92V28.63a1.92,1.92,0,0,1,.42-1.26,1.61,1.61,0,0,1,2.34,0,1.88,1.88,0,0,1,.43,1.27V39.41a1.87,1.87,0,0,1-.43,1.26,1.6,1.6,0,0,1-2.34,0,2,2,0,0,1-.42-1.26Z"/><path class="cls-1" d="M216.49,32v4.88a3.87,3.87,0,0,1-.75,2.53A4.45,4.45,0,0,1,214,40.71a5.64,5.64,0,0,1-2.25.47,5.58,5.58,0,0,1-2.23-.47,4.5,4.5,0,0,1-1.77-1.34,4,4,0,0,1-.75-2.53V32a1.8,1.8,0,0,1,.41-1.2,1.55,1.55,0,0,1,2.24,0,1.76,1.76,0,0,1,.42,1.2v4.5a1.72,1.72,0,0,0,.48,1.32,1.64,1.64,0,0,0,1.2.5,1.68,1.68,0,0,0,1.69-1.82V32a1.8,1.8,0,0,1,.41-1.2,1.42,1.42,0,0,1,1.13-.48,1.38,1.38,0,0,1,1.12.48A1.8,1.8,0,0,1,216.49,32Z"/><path class="cls-1" d="M222,31.08a4.13,4.13,0,0,1,2.4-.89,4.22,4.22,0,0,1,1.89.43,4.94,4.94,0,0,1,1.54,1.19,5.57,5.57,0,0,1,1.38,3.66,5.91,5.91,0,0,1-1.6,4.39,4.16,4.16,0,0,1-3.11,1.32A3,3,0,0,1,221.93,40a1.55,1.55,0,0,1-1.42,1.15,1.58,1.58,0,0,1-1.16-.46,1.65,1.65,0,0,1-.44-1.17V27.37a2,2,0,0,1,.18-.84,1.44,1.44,0,0,1,.52-.62,1.5,1.5,0,0,1,.82-.22,1.42,1.42,0,0,1,1.13.48,1.82,1.82,0,0,1,.41,1.2Zm0,4.61a3.1,3.1,0,0,0,.57,1.83,1.83,1.83,0,0,0,1.55.8,1.68,1.68,0,0,0,1.12-.39,2.35,2.35,0,0,0,.71-1,3.37,3.37,0,0,0,.24-1.24,3.2,3.2,0,0,0-.55-1.83,1.75,1.75,0,0,0-1.52-.82,1.78,1.78,0,0,0-1.15.39,2.37,2.37,0,0,0-.72,1A3.18,3.18,0,0,0,222,35.69Z"/><path class="cls-2" d="M72.65,27A8.2,8.2,0,0,0,65,32.18L40.42,27.45a5.46,5.46,0,0,0-.64-2.12l10.06-10a6.93,6.93,0,1,0-2.16-2.17l-10.06,10a5.47,5.47,0,0,0-6,.44l-16-11.84a8.2,8.2,0,1,0-1.82,2.46l16,11.84a5.43,5.43,0,0,0-.34,1.9c0,.23,0,.46,0,.68L15.45,34.71a4.24,4.24,0,1,0,1.21,3v-.15l14.06-6.08a5.45,5.45,0,0,0,1.92,1.48L29,56.61a6.92,6.92,0,1,0,3,.46L35.67,33.4a5.49,5.49,0,0,0,4.17-2.94l24.61,4.73h0a8.2,8.2,0,1,0,8.2-8.2Z"/></g></g></svg>