<svg xmlns="http://www.w3.org/2000/svg" viewBox="0 0 118.42 36.4"><defs><style>.cls-1{fill:#fff;}</style></defs><g id="Layer_2" data-name="Layer 2"><g id="Capa_2" data-name="Capa 2"><path class="cls-1" d="M52.33,9H49.57l-.17.62c-.15.57-.4.85-.73.85a1.17,1.17,0,0,1-.62-.16.69.69,0,0,1-.32-.49,1.41,1.41,0,0,1,.07-.52L49.73,4a1.43,1.43,0,0,1,.48-.67A1.15,1.15,0,0,1,51,3.07a1.2,1.2,0,0,1,.75.26,1.43,1.43,0,0,1,.47.67l1.94,5.33a1.81,1.81,0,0,1,.06.52.61.61,0,0,1-.31.48,1.1,1.1,0,0,1-.63.17.56.56,0,0,1-.42-.2,1.35,1.35,0,0,1-.26-.47Zm-.5-1.48L51,4.82l-.87,2.73Z"/><path class="cls-1" d="M56.86,6.38V9.59a1,1,0,0,1-.21.63.7.7,0,0,1-.58.25.73.73,0,0,1-.58-.25,1,1,0,0,1-.21-.63V6.38a1,1,0,0,1-.8-.24.68.68,0,0,1-.18-.48.7.7,0,0,1,.1-.36A.57.57,0,0,1,54.65,5,1.61,1.61,0,0,1,55.28,5V4a1,1,0,0,1,.21-.63.72.72,0,0,1,.58-.26.71.71,0,0,1,.58.26.92.92,0,0,1,.21.63V5h.45a.88.88,0,0,1,.57.18.67.67,0,0,1,.23.53.65.65,0,0,1-.23.52.84.84,0,0,1-.57.2Z"/><path class="cls-1" d="M62.42,9.85a1.9,1.9,0,0,1-.59.5,1.61,1.61,0,0,1-.73.15,2.31,2.31,0,0,1-1.56-.6,2.85,2.85,0,0,1-.93-2.24,2.8,2.8,0,0,1,.83-2.11,2.24,2.24,0,0,1,1.62-.72A1.81,1.81,0,0,1,61.8,5a2.2,2.2,0,0,1,.63.48.8.8,0,0,1,.77-.58.78.78,0,0,1,.57.24.74.74,0,0,1,.23.57V9.53a1,1,0,0,1-.22.67.74.74,0,0,1-.59.27A.8.8,0,0,1,62.42,9.85ZM60.19,7.64a1.83,1.83,0,0,0,.26,1,.87.87,0,0,0,.78.42,1,1,0,0,0,.62-.19,1.18,1.18,0,0,0,.39-.49,1.53,1.53,0,0,0,.14-.64,1.77,1.77,0,0,0-.28-1,1,1,0,0,0-.87-.4.87.87,0,0,0-.76.41A1.62,1.62,0,0,0,60.19,7.64Z"/><path class="cls-1" d="M65,7.63a3.12,3.12,0,0,1,.21-1.14,2.31,2.31,0,0,1,.62-.93A2.79,2.79,0,0,1,66.64,5a2.63,2.63,0,0,1,1-.19,3.32,3.32,0,0,1,1.26.23.81.81,0,0,1,.42,1.29.56.56,0,0,1-.48.23,1.87,1.87,0,0,1-.54-.16,1.87,1.87,0,0,0-.6-.12,1.08,1.08,0,0,0-.78.35,1.45,1.45,0,0,0-.35,1,1.59,1.59,0,0,0,.14.7,1.16,1.16,0,0,0,.42.48,1.25,1.25,0,0,0,.68.18,1.39,1.39,0,0,0,.59-.15,1.09,1.09,0,0,1,.43-.13.68.68,0,0,1,.48.18.59.59,0,0,1,.2.45.81.81,0,0,1-.31.64,1.94,1.94,0,0,1-.73.37,2.8,2.8,0,0,1-.77.11,2.61,2.61,0,0,1-2-.81A2.94,2.94,0,0,1,65,7.63Z"/><path class="cls-1" d="M74,9.85a1.87,1.87,0,0,1-.58.5,1.68,1.68,0,0,1-.74.15,2.29,2.29,0,0,1-1.55-.6,2.82,2.82,0,0,1-.94-2.24A2.84,2.84,0,0,1,71,5.55a2.24,2.24,0,0,1,1.63-.72,1.84,1.84,0,0,1,.74.14,2.31,2.31,0,0,1,.62.48.81.81,0,0,1,.77-.58.82.82,0,0,1,.81.81V9.53a1,1,0,0,1-.23.67.71.71,0,0,1-.59.27A.8.8,0,0,1,74,9.85ZM71.79,7.64a1.83,1.83,0,0,0,.26,1,.88.88,0,0,0,.79.42,1,1,0,0,0,.61-.19,1.21,1.21,0,0,0,.4-.49A1.53,1.53,0,0,0,74,7.71a1.7,1.7,0,0,0-.28-1,1,1,0,0,0-.86-.4.89.89,0,0,0-.77.41A1.69,1.69,0,0,0,71.79,7.64Z"/><path class="cls-1" d="M78.41,5.39a2,2,0,0,1,1.41-.55,2,2,0,0,1,1.05.26,1.29,1.29,0,0,1,.45.43A3.55,3.55,0,0,1,82.13,5,2.3,2.3,0,0,1,83,4.84a2,2,0,0,1,.94.23,1.8,1.8,0,0,1,.68.66,1.75,1.75,0,0,1,.25.93V9.59a1,1,0,0,1-.2.63.72.72,0,0,1-.58.25.75.75,0,0,1-.43-.12A.71.71,0,0,1,83.4,10a1,1,0,0,1-.09-.44V7a.81.81,0,0,0-.23-.59.85.85,0,0,0-.61-.23.77.77,0,0,0-.58.24.82.82,0,0,0-.23.58V9.59a1,1,0,0,1-.21.63.7.7,0,0,1-.58.25.73.73,0,0,1-.58-.25,1,1,0,0,1-.21-.63V7.17a1.18,1.18,0,0,0-.2-.7.74.74,0,0,0-.62-.28.82.82,0,0,0-.82.82V9.59a1,1,0,0,1-.21.63.72.72,0,0,1-.59.25.7.7,0,0,1-.57-.25,1,1,0,0,1-.21-.63V5.78a1,1,0,0,1,.19-.63.69.69,0,0,1,.54-.28A1,1,0,0,1,78.41,5.39Z"/><path class="cls-1" d="M89.67,9.85a2,2,0,0,1-.59.5,1.65,1.65,0,0,1-.74.15,2.31,2.31,0,0,1-1.55-.6,2.82,2.82,0,0,1-.94-2.24,2.84,2.84,0,0,1,.83-2.11,2.26,2.26,0,0,1,1.63-.72,1.84,1.84,0,0,1,.74.14,2.51,2.51,0,0,1,.63.48.79.79,0,0,1,.76-.58.82.82,0,0,1,.81.81V9.53a1.08,1.08,0,0,1-.22.67.74.74,0,0,1-.6.27A.79.79,0,0,1,89.67,9.85ZM87.44,7.64a1.74,1.74,0,0,0,.26,1,.85.85,0,0,0,.78.42,1,1,0,0,0,.61-.19,1.13,1.13,0,0,0,.4-.49,1.53,1.53,0,0,0,.13-.64,1.7,1.7,0,0,0-.28-1,1,1,0,0,0-.86-.4.89.89,0,0,0-.77.41A1.68,1.68,0,0,0,87.44,7.64Z"/><path class="cls-1" d="M52.85,18.23H49.8v2.13a1,1,0,0,1-.22.65.73.73,0,0,1-.6.27.75.75,0,0,1-.61-.27,1,1,0,0,1-.22-.65V14.79a1,1,0,0,1,.22-.65.83.83,0,0,1,1.21,0,1,1,0,0,1,.22.65v2h3.05v-2a1,1,0,0,1,.22-.65.83.83,0,0,1,1.21,0,1,1,0,0,1,.22.65v5.57a1,1,0,0,1-.22.65.81.81,0,0,1-1.21,0,1,1,0,0,1-.22-.65Z"/><path class="cls-1" d="M58,18.71l.93-2.32a1.86,1.86,0,0,1,.3-.55.52.52,0,0,1,.43-.21,1.14,1.14,0,0,1,.43.09,1,1,0,0,1,.35.24.57.57,0,0,1,.14.37,1.31,1.31,0,0,1-.09.5L57.94,22.9c-.15.38-.37.56-.67.56a1,1,0,0,1-.59-.19.63.63,0,0,1-.29-.5,1.29,1.29,0,0,1,.1-.48l.68-1.62-1.62-3.85a1.27,1.27,0,0,1-.1-.5.58.58,0,0,1,.28-.5,1.17,1.17,0,0,1,.63-.19.54.54,0,0,1,.43.2,2.68,2.68,0,0,1,.29.54Z"/><path class="cls-1" d="M64.61,16.11v-2a1,1,0,0,1,.21-.62.8.8,0,0,1,1.16,0,1,1,0,0,1,.21.62v6.2A1,1,0,0,1,66,21a.68.68,0,0,1-.57.26.74.74,0,0,1-.49-.15,1.12,1.12,0,0,1-.3-.47,1.49,1.49,0,0,1-.6.5,1.77,1.77,0,0,1-.79.16,1.94,1.94,0,0,1-1-.27,2.47,2.47,0,0,1-.79-.72,3.49,3.49,0,0,1-.59-2,2.72,2.72,0,0,1,.27-1.15,2.78,2.78,0,0,1,.7-1,2.23,2.23,0,0,1,1.53-.58A2,2,0,0,1,64.61,16.11Zm-2.16,2.26a1.55,1.55,0,0,0,.3.94.92.92,0,0,0,.8.41.85.85,0,0,0,.58-.2,1.16,1.16,0,0,0,.36-.52,1.64,1.64,0,0,0,0-1.28,1.22,1.22,0,0,0-.36-.52.85.85,0,0,0-.58-.2.91.91,0,0,0-.6.2,1.2,1.2,0,0,0-.37.51A1.65,1.65,0,0,0,62.45,18.37Z"/><path class="cls-1" d="M69,16.2a1.6,1.6,0,0,1,1.07-.59.85.85,0,0,1,.59.22.7.7,0,0,1,.24.54.6.6,0,0,1-.2.5,2.06,2.06,0,0,1-.61.28,2.74,2.74,0,0,0-.84.4.8.8,0,0,0-.25.65v2.16a1,1,0,0,1-.21.63.7.7,0,0,1-.58.25.73.73,0,0,1-.58-.25,1,1,0,0,1-.21-.63V16.55a1,1,0,0,1,.19-.64.74.74,0,0,1,.57-.27A.86.86,0,0,1,69,16.2Z"/><path class="cls-1" d="M71.05,18.44a3.31,3.31,0,0,1,.18-1.08,2.41,2.41,0,0,1,.53-.9,2.63,2.63,0,0,1,.88-.63,2.47,2.47,0,0,1,1.06-.23,2.72,2.72,0,0,1,1.94.86,2.71,2.71,0,0,1,.53.9,3.49,3.49,0,0,1,.17,1.08,3.43,3.43,0,0,1-.17,1.07,2.62,2.62,0,0,1-1.41,1.54,2.58,2.58,0,0,1-1.05.23,2.67,2.67,0,0,1-1.07-.23,2.56,2.56,0,0,1-.88-.64A2.77,2.77,0,0,1,71.05,18.44Zm1.56,0a1.77,1.77,0,0,0,.12.64,1.3,1.3,0,0,0,.37.52.88.88,0,0,0,.57.2.94.94,0,0,0,.59-.2,1.25,1.25,0,0,0,.39-.51,1.58,1.58,0,0,0,0-1.3,1.33,1.33,0,0,0-.38-.52,1,1,0,0,0-.6-.2.9.9,0,0,0-.78.43A1.65,1.65,0,0,0,72.61,18.44Z"/><path class="cls-1" d="M81,16.22c.22-.39.47-.59.77-.59a.72.72,0,0,1,.56.25,1,1,0,0,1,.2.61v4.18a3.19,3.19,0,0,1-.19,1.15,2.44,2.44,0,0,1-.55.87,2.55,2.55,0,0,1-.88.54,3.27,3.27,0,0,1-1.15.19A4,4,0,0,1,77.83,23a.8.8,0,0,1-.48-.71.67.67,0,0,1,.2-.47.65.65,0,0,1,.46-.22,1.08,1.08,0,0,1,.32,0l.44.15a2.89,2.89,0,0,0,1,.18,1.15,1.15,0,0,0,1.1-.51,2.61,2.61,0,0,0,.17-.87,2.22,2.22,0,0,1-.58.54,1.39,1.39,0,0,1-.73.18,2.31,2.31,0,0,1-1-.21,2.14,2.14,0,0,1-.79-.57,3.07,3.07,0,0,1-.69-2.13,3.11,3.11,0,0,1,.23-1.16,2.64,2.64,0,0,1,.65-.95,2.42,2.42,0,0,1,.7-.48,2,2,0,0,1,.81-.18,1.65,1.65,0,0,1,.74.15A2,2,0,0,1,81,16.22Zm-2.16,2.16a1.59,1.59,0,0,0,.31,1.07,1,1,0,0,0,.75.35.9.9,0,0,0,.79-.42,1.71,1.71,0,0,0,.28-.95,1.79,1.79,0,0,0-.13-.65,1.25,1.25,0,0,0-.39-.51,1,1,0,0,0-.61-.2.85.85,0,0,0-.74.41A1.54,1.54,0,0,0,78.84,18.38Z"/><path class="cls-1" d="M85.2,19a1.3,1.3,0,0,0,.48.69,1.18,1.18,0,0,0,.74.25,1.86,1.86,0,0,0,.89-.22l.46-.22a.72.72,0,0,1,.3-.08.68.68,0,0,1,.33.09.72.72,0,0,1,.25.24.55.55,0,0,1,.1.32c0,.29-.21.56-.64.81a3.59,3.59,0,0,1-1.78.44A3.1,3.1,0,0,1,85.09,21a2.64,2.64,0,0,1-1-.76A3.06,3.06,0,0,1,83.86,17a2.65,2.65,0,0,1,1-1,2.6,2.6,0,0,1,1.38-.38,2.52,2.52,0,0,1,1.32.36,2.65,2.65,0,0,1,1.28,2.28.84.84,0,0,1-.15.55.71.71,0,0,1-.52.17Zm2.08-1.08c-.17-.66-.52-1-1.08-1s-.83.33-1,1Z"/><path class="cls-1" d="M91.34,16.19a2.48,2.48,0,0,1,.67-.44,1.87,1.87,0,0,1,.78-.14,2.06,2.06,0,0,1,1.39.48,1.45,1.45,0,0,1,.45.64,2.77,2.77,0,0,1,.12.87v2.76a1,1,0,0,1-.21.63.72.72,0,0,1-.59.25.7.7,0,0,1-.57-.25,1,1,0,0,1-.21-.63V18a1.08,1.08,0,0,0-.24-.72.83.83,0,0,0-.67-.28.81.81,0,0,0-.45.13,1,1,0,0,0-.31.34,1.07,1.07,0,0,0-.11.46v2.46a1,1,0,0,1-.21.63.72.72,0,0,1-.59.25A.7.7,0,0,1,90,21a1,1,0,0,1-.22-.63V16.57a1,1,0,0,1,.2-.64.71.71,0,0,1,.57-.29A.79.79,0,0,1,91.34,16.19Z"/><path class="cls-1" d="M104,18.23H101v2.13a1,1,0,0,1-.22.65.72.72,0,0,1-.6.27.74.74,0,0,1-.6-.27,1,1,0,0,1-.23-.65V14.79a1,1,0,0,1,.22-.65.74.74,0,0,1,.61-.26.71.71,0,0,1,.6.26,1,1,0,0,1,.22.65v2H104v-2a1,1,0,0,1,.22-.65.71.71,0,0,1,.6-.26.73.73,0,0,1,.6.26,1,1,0,0,1,.23.65v5.57a1,1,0,0,1-.22.65.75.75,0,0,1-.61.27.72.72,0,0,1-.6-.27,1,1,0,0,1-.22-.65Z"/><path class="cls-1" d="M111.86,16.52V19a2,2,0,0,1-.39,1.3,2.19,2.19,0,0,1-.91.69,2.79,2.79,0,0,1-2.31,0,2.25,2.25,0,0,1-.91-.69A2.05,2.05,0,0,1,107,19V16.52a1,1,0,0,1,.21-.63.73.73,0,0,1,.58-.25.75.75,0,0,1,.58.25,1,1,0,0,1,.21.63v2.32a.9.9,0,0,0,.25.68.85.85,0,0,0,.62.26.87.87,0,0,0,.88-.94V16.52a1,1,0,0,1,.21-.63.8.8,0,0,1,1.16,0A1,1,0,0,1,111.86,16.52Z"/><path class="cls-1" d="M114.69,16.06a2.12,2.12,0,0,1,1.24-.46,2.17,2.17,0,0,1,1,.22,2.65,2.65,0,0,1,.8.62,2.77,2.77,0,0,1,.52.88,2.7,2.7,0,0,1,.19,1,3,3,0,0,1-.83,2.27,2.15,2.15,0,0,1-1.6.68,1.57,1.57,0,0,1-1.32-.63.8.8,0,0,1-1.33.36.85.85,0,0,1-.23-.61V14.14a1,1,0,0,1,.09-.43.8.8,0,0,1,.28-.32.74.74,0,0,1,.42-.12.75.75,0,0,1,.58.25,1,1,0,0,1,.21.62Zm0,2.38a1.6,1.6,0,0,0,.3.95.94.94,0,0,0,.8.41.89.89,0,0,0,.58-.2,1.33,1.33,0,0,0,.37-.52,1.77,1.77,0,0,0,.12-.64,1.66,1.66,0,0,0-.29-.94.89.89,0,0,0-.78-.43.92.92,0,0,0-.59.2,1.23,1.23,0,0,0-.38.52A1.84,1.84,0,0,0,114.68,18.44Z"/><path class="cls-1" d="M37.54,14a4.24,4.24,0,0,0-3.94,2.68L20.89,14.18a2.9,2.9,0,0,0-.34-1.09l5.2-5.17a3.62,3.62,0,0,0,1.92.55,3.58,3.58,0,1,0-3-1.67L19.44,12a2.81,2.81,0,0,0-1.38-.36,2.87,2.87,0,0,0-1.72.58L8.06,6.07A4.25,4.25,0,0,0,4.24,0,4.24,4.24,0,1,0,7.12,7.35l8.28,6.12a2.84,2.84,0,0,0-.17,1c0,.12,0,.23,0,.35L8,17.94a2.15,2.15,0,0,0-1.56-.66,2.19,2.19,0,1,0,2.19,2.19v-.08l7.26-3.14a2.8,2.8,0,0,0,1,.77L15,29.25a3.58,3.58,0,1,0,1.56.24l1.89-12.23a2.85,2.85,0,0,0,2.16-1.52L33.3,18.18h0A4.24,4.24,0,1,0,37.54,14Z"/></g></g></svg>