<svg xmlns="http://www.w3.org/2000/svg" xmlns:xlink="http://www.w3.org/1999/xlink" viewBox="0 0 1161 675"><defs><style>.cls-1{fill:#fff;}.cls-2{fill:url(#Degradado_sin_nombre_3);}.cls-3{fill:#383838;}</style><linearGradient id="Degradado_sin_nombre_3" x1="589" y1="323.51" x2="962.94" y2="323.51" gradientUnits="userSpaceOnUse"><stop offset="0" stop-color="#00d3e7"/><stop offset="1" stop-color="#5bd27f"/></linearGradient></defs><g id="Layer_2" data-name="Layer 2"><g id="Capa_2" data-name="Capa 2"><rect class="cls-1" width="1161" height="675"/><path class="cls-2" d="M913.2,302.07a49.71,49.71,0,1,0-47.57-35.22L731,344.88,695.66,236.2a59.1,59.1,0,1,0-29.71,8,60.28,60.28,0,0,0,7.88-.54l38.09,117.1-52.08,52.91a47.35,47.35,0,1,0,16.62,16l49.76-50.56,84.66,63.16a55.6,55.6,0,1,0,13.81-18.48l-80.45-60,133.18-76.93A49.6,49.6,0,0,0,913.2,302.07Z"/><path class="cls-3" d="M921.57,235.91l-.26-1.82a5.91,5.91,0,0,1-5,2.2,8.9,8.9,0,0,1-9.06-9.32,9.09,9.09,0,0,1,9.31-9.33c5.13,0,7.5,3,8.28,5.52L921,224.5a4.3,4.3,0,0,0-4.44-3.13,5.19,5.19,0,0,0-5.27,5.6c0,3.74,2.47,5.68,5.37,5.68s4.19-1.92,4.42-2.92h-5.38v-3.39h9.12v9.57Z"/><path class="cls-3" d="M935.88,227.15a5.31,5.31,0,0,0-1.21-.13c-1.54,0-2.93.91-2.93,3.41v5.48H927.9V223.37h3.71v1.69a3.54,3.54,0,0,1,3.26-1.82,3.65,3.65,0,0,1,1,.13Z"/><path class="cls-3" d="M949.46,232.3a5.64,5.64,0,0,1-5.78,4,6.39,6.39,0,0,1-6.54-6.69A6.32,6.32,0,0,1,943.4,223c3.89,0,6.28,2.39,6.28,6.43a9.41,9.41,0,0,1-.07,1.19h-8.73a2.71,2.71,0,0,0,2.85,2.42,2.41,2.41,0,0,0,2.52-1.64ZM946,228.14a2.24,2.24,0,0,0-2.52-2.12,2.39,2.39,0,0,0-2.5,2.12Z"/><path class="cls-3" d="M963.57,232.3a5.64,5.64,0,0,1-5.78,4,6.39,6.39,0,0,1-6.54-6.69,6.32,6.32,0,0,1,6.26-6.61c3.88,0,6.28,2.39,6.28,6.43a9.41,9.41,0,0,1-.07,1.19H955a2.73,2.73,0,0,0,2.86,2.42,2.42,2.42,0,0,0,2.52-1.64Zm-3.49-4.16a2.24,2.24,0,0,0-2.52-2.12,2.39,2.39,0,0,0-2.5,2.12Z"/><path class="cls-3" d="M970.1,235.91h-3.83V223.37H970v1.43a4.12,4.12,0,0,1,3.51-1.76c3.15,0,4.56,2.24,4.56,5v7.88h-3.83v-7.22a1.94,1.94,0,0,0-2.05-2.17,2,2,0,0,0-2.07,2.2Z"/><path class="cls-3" d="M912.25,252.19v6.43h-4V240.73H915c3.64,0,6.14,2.4,6.14,5.73s-2.5,5.73-6.14,5.73Zm2.35-3.43a2.3,2.3,0,1,0,0-4.57h-2.32v4.57Z"/><path class="cls-3" d="M935.22,252.34a6.67,6.67,0,1,1-6.66-6.64A6.48,6.48,0,0,1,935.22,252.34Zm-3.84,0a2.84,2.84,0,1,0-5.65,0,2.84,2.84,0,0,0,2.83,3.13A2.81,2.81,0,0,0,931.38,252.34Z"/><path class="cls-3" d="M948.52,246.08l2.45,7.45,2.09-7.45h3.77l-3.89,12.54h-3.81l-2.73-8.1-2.67,8.1h-3.89l-3.94-12.54h4l2.1,7.42,2.47-7.42Z"/><path class="cls-3" d="M969.82,255a5.62,5.62,0,0,1-5.78,4,6.66,6.66,0,0,1-.27-13.3c3.88,0,6.28,2.4,6.28,6.44a9.41,9.41,0,0,1-.07,1.19h-8.74a2.72,2.72,0,0,0,2.85,2.42,2.43,2.43,0,0,0,2.53-1.64Zm-3.48-4.17a2.25,2.25,0,0,0-2.52-2.12,2.39,2.39,0,0,0-2.5,2.12Z"/><path class="cls-3" d="M980.5,249.87a5.26,5.26,0,0,0-1.21-.13c-1.54,0-2.93.91-2.93,3.41v5.47h-3.83V246.08h3.71v1.69a3.53,3.53,0,0,1,3.25-1.81,4,4,0,0,1,1,.12Z"/><path class="cls-3" d="M921.57,281.34l-.26-1.82a5.91,5.91,0,0,1-5,2.2,8.9,8.9,0,0,1-9.06-9.31,9.1,9.1,0,0,1,9.31-9.34c5.13,0,7.5,3,8.28,5.53L921,269.93a4.3,4.3,0,0,0-4.44-3.13c-2.42,0-5.27,1.62-5.27,5.61,0,3.73,2.47,5.68,5.37,5.68s4.19-1.92,4.42-2.93h-5.38v-3.38h9.12v9.56Z"/><path class="cls-3" d="M939.31,277.73a5.64,5.64,0,0,1-5.78,4,6.66,6.66,0,0,1-.28-13.3c3.89,0,6.29,2.4,6.29,6.43a7.06,7.06,0,0,1-.08,1.19h-8.73a2.71,2.71,0,0,0,2.85,2.42,2.41,2.41,0,0,0,2.52-1.64Zm-3.48-4.16a2.25,2.25,0,0,0-2.53-2.12,2.39,2.39,0,0,0-2.5,2.12Z"/><path class="cls-3" d="M945.85,281.34H942V268.8h3.71v1.44a4.1,4.1,0,0,1,3.51-1.77c3.15,0,4.57,2.25,4.57,5v7.87H950v-7.22a2,2,0,0,0-2-2.17,2,2,0,0,0-2.07,2.2Z"/><path class="cls-3" d="M968.44,277.73a5.64,5.64,0,0,1-5.78,4,6.39,6.39,0,0,1-6.54-6.69,6.32,6.32,0,0,1,6.26-6.61c3.89,0,6.28,2.4,6.28,6.43a9.11,9.11,0,0,1-.07,1.19h-8.73a2.71,2.71,0,0,0,2.85,2.42,2.41,2.41,0,0,0,2.52-1.64ZM965,273.57a2.24,2.24,0,0,0-2.52-2.12,2.39,2.39,0,0,0-2.5,2.12Z"/><path class="cls-3" d="M979.11,272.58a5.22,5.22,0,0,0-1.21-.12c-1.54,0-2.93.91-2.93,3.4v5.48h-3.83V268.8h3.71v1.69a3.54,3.54,0,0,1,3.25-1.82,3.59,3.59,0,0,1,1,.13Z"/><path class="cls-3" d="M984.49,274.1l3-.46c.68-.1.91-.43.91-.85,0-.74-.63-1.37-1.84-1.37a2,2,0,0,0-2.15,1.85l-3.33-.69c.15-1.79,1.82-4.16,5.5-4.16,4.07,0,5.56,2.27,5.56,4.85v6.13a11.72,11.72,0,0,0,.15,1.94h-3.46a5.66,5.66,0,0,1-.13-1.41,3.94,3.94,0,0,1-3.53,1.76c-2.75,0-4.34-1.81-4.34-3.81C980.78,275.66,982.42,274.4,984.49,274.1Zm3.86,2.32v-.56l-2.37.38c-.81.13-1.41.51-1.41,1.39,0,.66.42,1.29,1.48,1.29S988.35,278.36,988.35,276.42Z"/><path class="cls-3" d="M999.79,268.8h2.44v3.35h-2.44v4.7c0,1,.55,1.31,1.38,1.31a4.71,4.71,0,0,0,1-.12v3.18a4.66,4.66,0,0,1-2,.35c-2.6,0-4.19-1.54-4.19-4v-5.38h-2.22V268.8h.63a1.85,1.85,0,0,0,1.94-2.05v-1.61h3.44Z"/><path class="cls-3" d="M1006.85,262.72a2.25,2.25,0,1,1-2.22,2.24A2.26,2.26,0,0,1,1006.85,262.72ZM1005,281.34V268.8h3.84v12.54Z"/><path class="cls-3" d="M1024.57,275.06a6.67,6.67,0,1,1-6.66-6.64A6.49,6.49,0,0,1,1024.57,275.06Zm-3.84,0a2.84,2.84,0,1,0-5.65,0,2.85,2.85,0,0,0,2.83,3.13A2.81,2.81,0,0,0,1020.73,275.06Z"/><path class="cls-3" d="M1030.88,281.34H1027V268.8h3.71v1.44a4.13,4.13,0,0,1,3.51-1.77c3.16,0,4.57,2.25,4.57,5v7.87H1035v-7.22a1.94,1.94,0,0,0-2-2.17,2,2,0,0,0-2.07,2.2Z"/><path class="cls-3" d="M864.7,450.58a2.72,2.72,0,0,0-3-2.25,2.2,2.2,0,0,0-2.45,1.92c0,.86.53,1.49,1.77,1.72l2.4.45c3.41.63,5.17,2.83,5.17,5.38,0,2.8-2.35,5.65-6.61,5.65-5,0-7.07-3.2-7.32-5.73l3.66-.88c.15,1.64,1.26,3.08,3.71,3.08,1.57,0,2.52-.76,2.52-1.87,0-.91-.73-1.56-1.91-1.79l-2.45-.46c-3-.58-4.87-2.6-4.87-5.25,0-3.38,3-5.75,6.41-5.75,4.46,0,6.16,2.68,6.53,4.77Z"/><path class="cls-3" d="M876,450.53h2.45v3.36H876v4.69c0,1,.55,1.31,1.39,1.31a4.89,4.89,0,0,0,1-.12V463a4.78,4.78,0,0,1-2,.35c-2.6,0-4.19-1.54-4.19-4v-5.37H870v-3.36h.63a1.85,1.85,0,0,0,2-2v-1.61H876Z"/><path class="cls-3" d="M889,454.31a5.3,5.3,0,0,0-1.22-.12c-1.54,0-2.92.91-2.92,3.41v5.47H881V450.53h3.71v1.69A3.56,3.56,0,0,1,888,450.4a3.65,3.65,0,0,1,1,.13Z"/><path class="cls-3" d="M894.38,455.83l3-.46c.69-.1.91-.42.91-.85,0-.74-.63-1.37-1.84-1.37a2,2,0,0,0-2.14,1.85l-3.34-.69c.16-1.79,1.82-4.16,5.51-4.16,4.06,0,5.55,2.27,5.55,4.85v6.13a11.72,11.72,0,0,0,.15,1.94h-3.46a6.66,6.66,0,0,1-.12-1.41,4,4,0,0,1-3.54,1.77c-2.75,0-4.34-1.82-4.34-3.82C890.67,457.39,892.31,456.13,894.38,455.83Zm3.86,2.32v-.55l-2.37.37c-.81.13-1.41.51-1.41,1.39,0,.66.43,1.29,1.49,1.29S898.24,460.09,898.24,458.15Z"/><path class="cls-3" d="M909.68,450.53h2.45v3.36h-2.45v4.69c0,1,.55,1.31,1.39,1.31a4.89,4.89,0,0,0,1-.12V463a4.78,4.78,0,0,1-2,.35c-2.6,0-4.19-1.54-4.19-4v-5.37h-2.22v-3.36h.63a1.85,1.85,0,0,0,2-2v-1.61h3.43Z"/><path class="cls-3" d="M926.11,459.46a5.64,5.64,0,0,1-5.78,4,6.66,6.66,0,0,1-.28-13.3c3.89,0,6.29,2.4,6.29,6.44a7,7,0,0,1-.08,1.18h-8.73a2.71,2.71,0,0,0,2.85,2.43,2.41,2.41,0,0,0,2.52-1.65Zm-3.48-4.16a2.25,2.25,0,0,0-2.53-2.12,2.4,2.4,0,0,0-2.5,2.12Z"/><path class="cls-3" d="M931.31,462.82a2.63,2.63,0,0,0,2.7,2.1c1.92,0,3.1-.94,3.1-3.21v-.58a3.88,3.88,0,0,1-3.35,1.41,5.84,5.84,0,0,1-5.83-6.11,5.9,5.9,0,0,1,5.83-6.13c2,0,3.13.91,3.48,1.57v-1.34h3.66v11c0,3.61-2,6.74-6.71,6.74-3.61,0-5.91-2.22-6.26-4.47Zm5.83-6.39a2.69,2.69,0,1,0-5.38,0,2.6,2.6,0,0,0,2.7,2.78A2.57,2.57,0,0,0,937.14,456.43Z"/><path class="cls-3" d="M946,444.45a2.25,2.25,0,1,1-2.22,2.24A2.26,2.26,0,0,1,946,444.45Zm-1.89,18.62V450.53H948v12.54Z"/><path class="cls-3" d="M954.23,456.81a2.87,2.87,0,0,0,2.92,3.11,2.59,2.59,0,0,0,2.6-1.87l3.39,1a6,6,0,0,1-6,4.37,6.54,6.54,0,0,1-6.73-6.64,6.47,6.47,0,0,1,6.61-6.66,5.86,5.86,0,0,1,6,4.37l-3.43,1a2.48,2.48,0,0,0-2.53-1.87A2.84,2.84,0,0,0,954.23,456.81Z"/><path class="cls-3" d="M856,485.79V467.9h4V482h7.72v3.81Z"/><path class="cls-3" d="M882.52,479.5a6.67,6.67,0,1,1-6.66-6.63A6.49,6.49,0,0,1,882.52,479.5Zm-3.84,0a2.84,2.84,0,1,0-5.65,0,2.84,2.84,0,0,0,2.83,3.13A2.81,2.81,0,0,0,878.68,479.5Z"/><path class="cls-3" d="M887.9,479.53a2.86,2.86,0,0,0,2.92,3.1,2.58,2.58,0,0,0,2.6-1.86l3.38,1a5.93,5.93,0,0,1-6,4.37,6.55,6.55,0,0,1-6.74-6.64,6.48,6.48,0,0,1,6.62-6.66,5.87,5.87,0,0,1,6,4.36l-3.43,1a2.48,2.48,0,0,0-2.53-1.87A2.84,2.84,0,0,0,887.9,479.53Z"/><path class="cls-3" d="M902.08,478.55l2.95-.46c.69-.1.91-.43.91-.86,0-.73-.63-1.36-1.84-1.36a2,2,0,0,0-2.14,1.84l-3.34-.68c.16-1.79,1.82-4.16,5.51-4.16,4.06,0,5.55,2.27,5.55,4.84v6.14a11.84,11.84,0,0,0,.15,1.94h-3.46a6.76,6.76,0,0,1-.12-1.41,4,4,0,0,1-3.54,1.76c-2.75,0-4.34-1.81-4.34-3.81C898.37,480.11,900,478.85,902.08,478.55Zm3.86,2.32v-.56l-2.37.38c-.81.13-1.41.51-1.41,1.39,0,.66.43,1.29,1.49,1.29S905.94,482.81,905.94,480.87Z"/><path class="cls-3" d="M917.38,473.25h2.45v3.35h-2.45v4.7c0,1,.55,1.31,1.39,1.31a4.59,4.59,0,0,0,1-.13v3.18a4.42,4.42,0,0,1-2,.36c-2.6,0-4.19-1.54-4.19-4V476.6h-2.22v-3.35H912a1.85,1.85,0,0,0,1.94-2.05v-1.61h3.44Z"/><path class="cls-3" d="M924.44,467.16a2.25,2.25,0,1,1-2.22,2.25A2.26,2.26,0,0,1,924.44,467.16Zm-1.89,18.63V473.25h3.84v12.54Z"/><path class="cls-3" d="M942.16,479.5a6.66,6.66,0,1,1-6.66-6.63A6.49,6.49,0,0,1,942.16,479.5Zm-3.83,0a2.84,2.84,0,1,0-5.66,0,2.84,2.84,0,1,0,5.66,0Z"/><path class="cls-3" d="M948.47,485.79h-3.83V473.25h3.71v1.43a4.11,4.11,0,0,1,3.5-1.76c3.16,0,4.57,2.24,4.57,5v7.87h-3.83v-7.22a1.94,1.94,0,0,0-2.05-2.17,2,2,0,0,0-2.07,2.2Z"/><path class="cls-3" d="M665.93,152.11a2.71,2.71,0,0,0-3-2.24,2.19,2.19,0,0,0-2.44,1.91c0,.86.53,1.49,1.76,1.72l2.4.45c3.41.64,5.17,2.83,5.17,5.38,0,2.8-2.34,5.65-6.61,5.65-5,0-7.07-3.2-7.32-5.73l3.66-.88c.15,1.64,1.26,3.08,3.71,3.08,1.57,0,2.53-.76,2.53-1.87,0-.91-.74-1.56-1.92-1.79l-2.45-.45c-3-.58-4.87-2.6-4.87-5.25,0-3.38,3-5.76,6.41-5.76,4.47,0,6.16,2.68,6.54,4.77Z"/><path class="cls-3" d="M677.24,152.06h2.45v3.36h-2.45v4.69c0,1,.55,1.31,1.39,1.31a4.89,4.89,0,0,0,1-.12v3.18a4.73,4.73,0,0,1-2,.35c-2.6,0-4.19-1.54-4.19-4v-5.37h-2.22v-3.36h.63a1.84,1.84,0,0,0,1.95-2V148.4h3.43Z"/><path class="cls-3" d="M690.24,155.85a5.31,5.31,0,0,0-1.21-.13c-1.54,0-2.93.91-2.93,3.41v5.47h-3.84V152.06H686v1.69a3.55,3.55,0,0,1,3.26-1.81,4,4,0,0,1,1,.12Z"/><path class="cls-3" d="M704.83,158.32a6.67,6.67,0,1,1-6.67-6.64A6.49,6.49,0,0,1,704.83,158.32Zm-3.84,0a2.84,2.84,0,1,0-5.65,0,2.84,2.84,0,1,0,5.65,0Z"/><path class="cls-3" d="M711.14,164.6H707.3V152.06H711v1.44a4.1,4.1,0,0,1,3.51-1.77c3.15,0,4.57,2.25,4.57,5v7.87h-3.84v-7.21a1.94,1.94,0,0,0-2-2.17,2,2,0,0,0-2.07,2.19Z"/><path class="cls-3" d="M724.82,164.35a2.63,2.63,0,0,0,2.7,2.1c1.91,0,3.1-.94,3.1-3.21v-.58a3.9,3.9,0,0,1-3.36,1.42,5.84,5.84,0,0,1-5.83-6.11,5.91,5.91,0,0,1,5.83-6.14c2,0,3.13.91,3.49,1.57v-1.34h3.66v11c0,3.61-2,6.74-6.72,6.74-3.61,0-5.9-2.22-6.26-4.47Zm5.83-6.38a2.69,2.69,0,1,0-5.38,0,2.6,2.6,0,0,0,2.7,2.77A2.57,2.57,0,0,0,730.65,158Z"/><path class="cls-3" d="M746.8,157.36l3-.45c.68-.1.91-.43.91-.86,0-.73-.63-1.36-1.84-1.36a2,2,0,0,0-2.15,1.84l-3.33-.68c.15-1.79,1.82-4.17,5.5-4.17,4.07,0,5.56,2.27,5.56,4.85v6.13a11.59,11.59,0,0,0,.15,1.94h-3.46a6.28,6.28,0,0,1-.13-1.41,3.94,3.94,0,0,1-3.53,1.77c-2.75,0-4.34-1.82-4.34-3.81C743.09,158.93,744.73,157.66,746.8,157.36Zm3.86,2.32v-.55l-2.37.38c-.81.12-1.41.5-1.41,1.39,0,.65.42,1.28,1.49,1.28S750.66,161.63,750.66,159.68Z"/><path class="cls-3" d="M761.46,164.6h-3.83V152.06h3.71v1.44a4.1,4.1,0,0,1,3.51-1.77c3.15,0,4.57,2.25,4.57,5v7.87h-3.84v-7.21a1.94,1.94,0,0,0-2.05-2.17,2,2,0,0,0-2.07,2.19Z"/><path class="cls-3" d="M785,162.36c0,1.13.07,2,.1,2.24H781.4a9.44,9.44,0,0,1-.1-1.21,4,4,0,0,1-3.35,1.49c-3.54,0-6.21-2.72-6.21-6.58s2.52-6.54,6.08-6.54c2.14,0,3.08.81,3.38,1.29v-6.72H785Zm-6.56-.91a2.83,2.83,0,0,0,2.82-3.13,2.84,2.84,0,1,0-5.65,0A2.83,2.83,0,0,0,778.43,161.45Z"/><path class="cls-3" d="M657.2,187.32V169.43h11.33v3.76h-7.34v3.41h6.66v3.5h-6.66v3.44h7.37v3.78Z"/><path class="cls-3" d="M674.64,181.06l-4.39-6.28h4.52l2.24,3.43,2.2-3.43h4.29l-4.34,6.13c1.41,2,3.05,4.39,4.49,6.41h-4.49l-2.32-3.53c-.69,1-1.62,2.5-2.3,3.53h-4.22Z"/><path class="cls-3" d="M685.59,192.12V174.78h3.71v1.28a4.5,4.5,0,0,1,3.69-1.58c3.63,0,5.83,2.77,5.83,6.53s-2.47,6.59-6,6.59a4.43,4.43,0,0,1-3.41-1.26v5.78Zm6.62-14.19a2.8,2.8,0,0,0-2.83,3.11,2.85,2.85,0,1,0,5.68,0A2.8,2.8,0,0,0,692.21,177.93Z"/><path class="cls-3" d="M712.7,183.71a5.63,5.63,0,0,1-5.78,4,6.66,6.66,0,0,1-.28-13.3c3.89,0,6.29,2.4,6.29,6.43a7.06,7.06,0,0,1-.08,1.19h-8.73a2.72,2.72,0,0,0,2.85,2.42,2.43,2.43,0,0,0,2.53-1.64Zm-3.48-4.16a2.25,2.25,0,0,0-2.53-2.12,2.38,2.38,0,0,0-2.49,2.12Z"/><path class="cls-3" d="M723.38,178.56a5.27,5.27,0,0,0-1.21-.12c-1.54,0-2.93.91-2.93,3.4v5.48H715.4V174.78h3.71v1.69a3.86,3.86,0,0,1,4.27-1.69Z"/><path class="cls-3" d="M727.59,168.7a2.25,2.25,0,1,1-2.22,2.24A2.26,2.26,0,0,1,727.59,168.7Zm-1.89,18.62V174.78h3.84v12.54Z"/><path class="cls-3" d="M744.3,183.71a5.63,5.63,0,0,1-5.78,4,6.66,6.66,0,0,1-.28-13.3c3.89,0,6.29,2.4,6.29,6.43a7.06,7.06,0,0,1-.08,1.19h-8.73a2.72,2.72,0,0,0,2.85,2.42,2.43,2.43,0,0,0,2.53-1.64Zm-3.48-4.16a2.25,2.25,0,0,0-2.53-2.12,2.38,2.38,0,0,0-2.49,2.12Z"/><path class="cls-3" d="M750.84,187.32H747V174.78h3.71v1.44a4.1,4.1,0,0,1,3.51-1.77c3.16,0,4.57,2.25,4.57,5v7.87H755V180.1a1.94,1.94,0,0,0-2-2.17,2,2,0,0,0-2.07,2.2Z"/><path class="cls-3" d="M764.92,181.06a2.87,2.87,0,0,0,2.93,3.11,2.59,2.59,0,0,0,2.6-1.87l3.38,1a5.93,5.93,0,0,1-6,4.37,6.55,6.55,0,0,1-6.74-6.64,6.47,6.47,0,0,1,6.61-6.66,5.88,5.88,0,0,1,6,4.37l-3.44,1a2.46,2.46,0,0,0-2.52-1.87A2.84,2.84,0,0,0,764.92,181.06Z"/><path class="cls-3" d="M787.46,183.71a5.63,5.63,0,0,1-5.78,4,6.66,6.66,0,0,1-.28-13.3c3.89,0,6.29,2.4,6.29,6.43a7.06,7.06,0,0,1-.08,1.19h-8.73a2.72,2.72,0,0,0,2.85,2.42,2.43,2.43,0,0,0,2.53-1.64ZM784,179.55a2.25,2.25,0,0,0-2.52-2.12,2.38,2.38,0,0,0-2.5,2.12Z"/><path class="cls-3" d="M802.5,185.08a21.53,21.53,0,0,0,.11,2.24h-3.69a9.62,9.62,0,0,1-.1-1.21,4,4,0,0,1-3.36,1.49c-3.53,0-6.21-2.73-6.21-6.59s2.53-6.53,6.09-6.53c2.14,0,3.08.8,3.38,1.28v-6.71h3.78Zm-6.56-.91a2.83,2.83,0,0,0,2.83-3.13,2.84,2.84,0,1,0-2.83,3.13Z"/><path class="cls-3" d="M820.45,173.24v14.08h-4V173.24H811v-3.81h15v3.81Z"/><path class="cls-3" d="M837.16,183.71a5.64,5.64,0,0,1-5.78,4,6.66,6.66,0,0,1-.28-13.3c3.89,0,6.29,2.4,6.29,6.43a7.06,7.06,0,0,1-.08,1.19h-8.73a2.72,2.72,0,0,0,2.85,2.42A2.43,2.43,0,0,0,834,182.8Zm-3.48-4.16a2.25,2.25,0,0,0-2.53-2.12,2.38,2.38,0,0,0-2.49,2.12Z"/><path class="cls-3" d="M842.81,180.08l3-.46c.68-.1.91-.43.91-.85,0-.74-.64-1.37-1.85-1.37a2,2,0,0,0-2.14,1.85l-3.33-.69c.15-1.79,1.81-4.16,5.5-4.16,4.06,0,5.55,2.27,5.55,4.85v6.13a13.06,13.06,0,0,0,.15,1.94h-3.45a5.66,5.66,0,0,1-.13-1.41,4,4,0,0,1-3.53,1.76c-2.76,0-4.35-1.81-4.35-3.81C839.1,181.64,840.75,180.38,842.81,180.08Zm3.87,2.32v-.56l-2.38.38c-.8.13-1.41.51-1.41,1.39,0,.66.43,1.29,1.49,1.29S846.68,184.34,846.68,182.4Z"/><path class="cls-3" d="M853.64,187.32V174.78h3.66v1.44a4.37,4.37,0,0,1,3.61-1.82,3.88,3.88,0,0,1,3.71,2,4.3,4.3,0,0,1,3.89-2c2.37,0,4.64,1.39,4.64,4.79v8.13h-3.71v-7.27a1.9,1.9,0,0,0-2-2.12,2,2,0,0,0-2.1,2.15v7.24h-3.78v-7.27a1.91,1.91,0,0,0-2-2.12,2,2,0,0,0-2.07,2.17v7.22Z"/><path class="cls-3" d="M635.75,441v-17.9h11.53v3.79h-7.55v3.78h6.64v3.64h-6.61V441Z"/><path class="cls-3" d="M651.9,433.74l3-.45c.68-.1.91-.43.91-.86,0-.73-.63-1.36-1.84-1.36a2,2,0,0,0-2.15,1.84l-3.33-.68c.15-1.79,1.82-4.17,5.5-4.17,4.07,0,5.56,2.28,5.56,4.85V439a11.89,11.89,0,0,0,.15,1.95h-3.46a5.79,5.79,0,0,1-.13-1.42,3.94,3.94,0,0,1-3.53,1.77c-2.75,0-4.34-1.82-4.34-3.81C648.19,435.31,649.83,434.05,651.9,433.74Zm3.86,2.33v-.56l-2.37.38c-.81.13-1.42.5-1.42,1.39,0,.65.43,1.28,1.49,1.28S655.76,438,655.76,436.07Z"/><path class="cls-3" d="M670,441h-3.87l-5.15-12.55h4.17l2.9,7.8,2.68-7.8h4Z"/><path class="cls-3" d="M688.7,434.7a6.67,6.67,0,1,1-6.66-6.64A6.49,6.49,0,0,1,688.7,434.7Zm-3.84,0a2.84,2.84,0,1,0-5.65,0,2.84,2.84,0,0,0,2.83,3.13A2.81,2.81,0,0,0,684.86,434.7Z"/><path class="cls-3" d="M699.15,432.23a5.31,5.31,0,0,0-1.21-.13c-1.54,0-2.93.91-2.93,3.41V441h-3.84V428.44h3.71v1.69a3.55,3.55,0,0,1,3.26-1.81,4,4,0,0,1,1,.12Z"/><path class="cls-3" d="M704.52,433.74l3-.45c.68-.1.91-.43.91-.86,0-.73-.64-1.36-1.85-1.36a2,2,0,0,0-2.14,1.84l-3.33-.68c.15-1.79,1.81-4.17,5.5-4.17,4.06,0,5.55,2.28,5.55,4.85V439a13.26,13.26,0,0,0,.15,1.95h-3.45a5.79,5.79,0,0,1-.13-1.42,4,4,0,0,1-3.53,1.77c-2.76,0-4.35-1.82-4.35-3.81C700.81,435.31,702.46,434.05,704.52,433.74Zm3.87,2.33v-.56l-2.38.38c-.8.13-1.41.5-1.41,1.39,0,.65.43,1.28,1.49,1.28S708.39,438,708.39,436.07Z"/><path class="cls-3" d="M715.35,441V422.71h3.76v6.92a4.52,4.52,0,0,1,3.64-1.49c3.63,0,5.83,2.78,5.83,6.54s-2.48,6.58-6,6.58a4,4,0,0,1-3.54-1.69V441Zm6.57-9.39a2.8,2.8,0,0,0-2.86,3.1,2.85,2.85,0,0,0,2.86,3.13,2.82,2.82,0,0,0,2.82-3.13A2.78,2.78,0,0,0,721.92,431.6Z"/><path class="cls-3" d="M731.05,441V422.71h3.84V441Z"/><path class="cls-3" d="M749.68,437.38a5.64,5.64,0,0,1-5.78,4,6.66,6.66,0,0,1-.28-13.31c3.89,0,6.29,2.4,6.29,6.44a7.28,7.28,0,0,1-.08,1.19H741.1a2.71,2.71,0,0,0,2.85,2.42,2.42,2.42,0,0,0,2.52-1.64Zm-3.48-4.17a2.25,2.25,0,0,0-2.53-2.12,2.4,2.4,0,0,0-2.5,2.12Z"/><path class="cls-3" d="M641.15,457h-1.42v6.66h-4V445.81h7.09a5.46,5.46,0,0,1,5.8,5.6,5.14,5.14,0,0,1-3.53,5l3.63,7.24h-4.39Zm.93-3.43c1.64,0,2.52-.91,2.52-2.17s-.88-2.17-2.52-2.17h-2.35v4.34Z"/><path class="cls-3" d="M662.47,460.09a5.63,5.63,0,0,1-5.78,4,6.66,6.66,0,0,1-.27-13.3c3.88,0,6.28,2.4,6.28,6.44a7,7,0,0,1-.08,1.18h-8.73a2.72,2.72,0,0,0,2.85,2.43,2.43,2.43,0,0,0,2.53-1.64ZM659,455.93a2.25,2.25,0,0,0-2.52-2.12,2.39,2.39,0,0,0-2.5,2.12Z"/><path class="cls-3" d="M667.67,463.45a2.64,2.64,0,0,0,2.7,2.1c1.92,0,3.11-.94,3.11-3.21v-.58a3.91,3.91,0,0,1-3.36,1.41,5.83,5.83,0,0,1-5.83-6.1,5.91,5.91,0,0,1,5.83-6.14c2,0,3.13.91,3.48,1.57v-1.34h3.66v11c0,3.61-2,6.74-6.71,6.74-3.61,0-5.9-2.22-6.26-4.47Zm5.83-6.38a2.69,2.69,0,1,0-5.37,0,2.6,2.6,0,0,0,2.7,2.77A2.57,2.57,0,0,0,673.5,457.07Z"/><path class="cls-3" d="M688.37,462.44A3.89,3.89,0,0,1,685,464a4.6,4.6,0,0,1-4.77-4.9v-7.92h3.84v7.12a2,2,0,0,0,2,2.17,2,2,0,0,0,2.09-2.15v-7.14H692v10.3a18.12,18.12,0,0,0,.13,2.24h-3.69A9.07,9.07,0,0,1,688.37,462.44Z"/><path class="cls-3" d="M695.41,463.7V445.43h3.84V463.7Z"/><path class="cls-3" d="M705.46,456.46l2.95-.45c.68-.11.91-.43.91-.86,0-.73-.63-1.37-1.84-1.37a2,2,0,0,0-2.15,1.85L702,455c.15-1.8,1.82-4.17,5.5-4.17,4.07,0,5.55,2.27,5.55,4.85v6.13a11.22,11.22,0,0,0,.16,1.94h-3.46a5.66,5.66,0,0,1-.13-1.41,4,4,0,0,1-3.53,1.77c-2.75,0-4.34-1.82-4.34-3.81C701.75,458,703.39,456.76,705.46,456.46Zm3.86,2.32v-.55l-2.37.37c-.81.13-1.42.51-1.42,1.39,0,.66.43,1.29,1.49,1.29S709.32,460.73,709.32,458.78Z"/><path class="cls-3" d="M720.75,451.16h2.45v3.36h-2.45v4.69c0,1,.56,1.31,1.39,1.31a4.8,4.8,0,0,0,1-.12v3.18a4.66,4.66,0,0,1-2,.35c-2.6,0-4.19-1.54-4.19-4v-5.37h-2.22v-3.36h.63a1.84,1.84,0,0,0,1.94-2V447.5h3.43Z"/><path class="cls-3" d="M738.2,457.42a6.67,6.67,0,1,1-6.67-6.64A6.49,6.49,0,0,1,738.2,457.42Zm-3.84,0a2.84,2.84,0,1,0-5.65,0,2.84,2.84,0,1,0,5.65,0Z"/><path class="cls-3" d="M748.64,455a4.71,4.71,0,0,0-1.21-.13c-1.54,0-2.92.91-2.92,3.41v5.47h-3.84V451.16h3.71v1.69a3.56,3.56,0,0,1,3.25-1.82,3.59,3.59,0,0,1,1,.13Z"/><path class="cls-3" d="M752.46,468.52l2.85-6.51L750,451.16h4.29l3.06,6.71,2.77-6.71h4.07l-7.73,17.36Z"/><path class="cls-3" d="M634.71,477.51a9.11,9.11,0,0,1,9.24-9.36c5.37,0,7.75,3.46,8.33,6l-3.76,1.19A4.33,4.33,0,0,0,644,472a5.4,5.4,0,0,0,0,10.78,4.56,4.56,0,0,0,4.69-3.36l3.81,1.09a8.26,8.26,0,0,1-8.5,6.26A9,9,0,0,1,634.71,477.51Z"/><path class="cls-3" d="M667,480.14a6.66,6.66,0,1,1-6.66-6.64A6.49,6.49,0,0,1,667,480.14Zm-3.83,0a2.84,2.84,0,1,0-5.66,0,2.84,2.84,0,1,0,5.66,0Z"/><path class="cls-3" d="M673.3,486.42h-3.83V473.88h3.71v1.44a4.1,4.1,0,0,1,3.5-1.77c3.16,0,4.57,2.24,4.57,5v7.87h-3.83V479.2a1.94,1.94,0,0,0-2-2.17,2,2,0,0,0-2.07,2.2Z"/><path class="cls-3" d="M689.08,473.88h2.45v3.35h-2.45v4.7c0,1,.55,1.31,1.38,1.31a4.61,4.61,0,0,0,1-.13v3.18a4.42,4.42,0,0,1-2,.36c-2.6,0-4.19-1.54-4.19-4v-5.38h-2.22v-3.35h.63a1.85,1.85,0,0,0,1.94-2.05v-1.61h3.44Z"/><path class="cls-3" d="M705.51,482.81a5.64,5.64,0,0,1-5.78,4,6.66,6.66,0,0,1-.28-13.3c3.89,0,6.28,2.4,6.28,6.43a9.41,9.41,0,0,1-.07,1.19h-8.73a2.71,2.71,0,0,0,2.85,2.42,2.41,2.41,0,0,0,2.52-1.64ZM702,478.65a2.24,2.24,0,0,0-2.52-2.12,2.39,2.39,0,0,0-2.5,2.12Z"/><path class="cls-3" d="M710.94,480.16l-4.4-6.28h4.52l2.25,3.43,2.19-3.43h4.29L715.45,480c1.42,2,3.06,4.39,4.5,6.41h-4.5l-2.32-3.53c-.68,1-1.61,2.49-2.3,3.53h-4.21Z"/><path class="cls-3" d="M726.74,473.88h2.44v3.35h-2.44v4.7c0,1,.55,1.31,1.38,1.31a4.61,4.61,0,0,0,1-.13v3.18a4.42,4.42,0,0,1-2,.36c-2.6,0-4.19-1.54-4.19-4v-5.38h-2.22v-3.35h.63a1.85,1.85,0,0,0,1.94-2.05v-1.61h3.44Z"/></g></g></svg>