<?xml version="1.0" encoding="utf-8"?>
<!-- Generator: Adobe Illustrator 25.0.0, SVG Export Plug-In . SVG Version: 6.00 Build 0)  -->
<svg version="1.1" id="Layer_1" xmlns="http://www.w3.org/2000/svg" xmlns:xlink="http://www.w3.org/1999/xlink" x="0px" y="0px"
	 viewBox="0 0 1920 1080" style="enable-background:new 0 0 1920 1080;" xml:space="preserve">
<style type="text/css">
	.st0{fill:#383838;}
	.st1{fill:#3399FF;}
	.st2{fill:#00FF33;}
	.st3{fill:#00FFCC;}
	.st4{fill:#66CCFF;}
	.st5{fill:#00FF99;}
	.st6{fill:#99FF00;}
	.st7{fill:#FFFFFF;}
	.st8{fill:none;}
	.st9{fill-rule:evenodd;clip-rule:evenodd;fill:none;}
</style>
<g>
	<g>
		<g>
			<path class="st0" d="M902.6,253c-0.9,0.3-2.7,0.9-4.9,0.9c-2.4,0-4.4-0.6-5.9-2.1c-1.4-1.3-2.2-3.4-2.2-5.9
				c0-4.7,3.3-8.2,8.6-8.2c1.8,0,3.3,0.4,3.9,0.7l-0.5,1.7c-0.8-0.4-1.9-0.7-3.5-0.7c-3.8,0-6.4,2.4-6.4,6.4c0,4,2.4,6.4,6.1,6.4
				c1.3,0,2.3-0.2,2.7-0.4V247h-3.2v-1.6h5.2V253z"/>
			<path class="st0" d="M905.7,237h2.1v16.7h-2.1V237z"/>
			<path class="st0" d="M921.5,247.9c0,4.2-2.9,6-5.7,6c-3.1,0-5.4-2.3-5.4-5.8c0-3.8,2.5-6,5.6-6
				C919.3,242,921.5,244.4,921.5,247.9z M912.5,248c0,2.5,1.4,4.4,3.4,4.4c2,0,3.4-1.9,3.4-4.4c0-1.9-1-4.4-3.4-4.4
				C913.5,243.6,912.5,245.8,912.5,248z"/>
			<path class="st0" d="M924,253.7c0-0.8,0.1-1.9,0.1-2.9V237h2v7.1h0c0.7-1.3,2-2.1,3.9-2.1c2.8,0,4.8,2.3,4.8,5.8
				c0,4.1-2.6,6.1-5.1,6.1c-1.6,0-3-0.6-3.8-2.1h-0.1l-0.1,1.9H924z M926.1,249.1c0,0.3,0,0.5,0.1,0.8c0.4,1.4,1.6,2.4,3.1,2.4
				c2.2,0,3.4-1.8,3.4-4.4c0-2.3-1.2-4.2-3.4-4.2c-1.4,0-2.7,1-3.1,2.5c0,0.2-0.1,0.5-0.1,0.8V249.1z"/>
			<path class="st0" d="M943.7,253.7l-0.2-1.4h-0.1c-0.6,0.9-1.9,1.7-3.5,1.7c-2.3,0-3.5-1.6-3.5-3.3c0-2.7,2.4-4.2,6.8-4.2v-0.2
				c0-0.9-0.3-2.6-2.6-2.6c-1.1,0-2.2,0.3-3,0.8l-0.5-1.4c0.9-0.6,2.3-1,3.7-1c3.5,0,4.3,2.4,4.3,4.6v4.2c0,1,0,1.9,0.2,2.7H943.7z
				 M943.4,247.9c-2.3,0-4.8,0.4-4.8,2.6c0,1.3,0.9,2,1.9,2c1.5,0,2.4-0.9,2.7-1.9c0.1-0.2,0.1-0.4,0.1-0.7V247.9z"/>
			<path class="st0" d="M948.8,237h2.1v16.7h-2.1V237z"/>
			<path class="st0" d="M967.5,246.2h-6.1v5.7h6.9v1.7h-8.9v-15.8h8.5v1.7h-6.5v5h6.1V246.2z"/>
			<path class="st0" d="M970.8,245.4c0-1.2,0-2.1-0.1-3.1h1.8l0.1,1.9h0c0.6-1.1,1.9-2.1,3.8-2.1c1.6,0,4,0.9,4,4.8v6.8h-2.1v-6.5
				c0-1.8-0.7-3.4-2.6-3.4c-1.4,0-2.4,1-2.8,2.1c-0.1,0.3-0.1,0.6-0.1,1v6.8h-2.1V245.4z"/>
			<path class="st0" d="M985,248.4c0,2.8,1.8,3.9,3.9,3.9c1.5,0,2.4-0.3,3.1-0.6l0.4,1.5c-0.7,0.3-2,0.7-3.8,0.7
				c-3.5,0-5.6-2.3-5.6-5.7c0-3.4,2-6.1,5.3-6.1c3.7,0,4.7,3.3,4.7,5.3c0,0.4,0,0.8-0.1,1H985z M991.1,246.9c0-1.3-0.5-3.4-2.9-3.4
				c-2.1,0-3,1.9-3.2,3.4H991.1z"/>
			<path class="st0" d="M995.6,245.8c0-1.3,0-2.5-0.1-3.5h1.8l0.1,2.2h0.1c0.5-1.5,1.8-2.5,3.1-2.5c0.2,0,0.4,0,0.6,0.1v1.9
				c-0.2,0-0.4-0.1-0.7-0.1c-1.5,0-2.5,1.1-2.8,2.7c0,0.3-0.1,0.6-0.1,1v6.1h-2V245.8z"/>
			<path class="st0" d="M1012.9,242.3c0,0.8-0.1,1.7-0.1,3.1v6.6c0,2.6-0.5,4.2-1.6,5.2c-1.1,1-2.7,1.4-4.1,1.4
				c-1.4,0-2.9-0.3-3.8-0.9l0.5-1.6c0.8,0.5,1.9,0.9,3.3,0.9c2.1,0,3.7-1.1,3.7-4v-1.3h0c-0.6,1.1-1.9,1.9-3.6,1.9
				c-2.8,0-4.8-2.4-4.8-5.5c0-3.8,2.5-6,5.1-6c2,0,3,1,3.5,2h0l0.1-1.7H1012.9z M1010.7,246.8c0-0.4,0-0.7-0.1-0.9
				c-0.4-1.2-1.4-2.2-2.9-2.2c-2,0-3.4,1.7-3.4,4.3c0,2.2,1.1,4.1,3.4,4.1c1.3,0,2.4-0.8,2.9-2.1c0.1-0.4,0.2-0.8,0.2-1.1V246.8z"/>
			<path class="st0" d="M1017,242.3l2.5,6.7c0.3,0.8,0.5,1.6,0.7,2.3h0c0.2-0.7,0.4-1.5,0.7-2.4l2.3-6.7h2.2l-3.1,8.1
				c-1.5,3.9-2.5,5.9-3.9,7.1c-1,0.9-2,1.2-2.5,1.3l-0.5-1.7c0.5-0.2,1.2-0.5,1.8-1c0.6-0.4,1.3-1.2,1.7-2.3
				c0.1-0.2,0.2-0.4,0.2-0.5c0-0.1,0-0.3-0.1-0.5l-4.2-10.5H1017z"/>
			<path class="st0" d="M1032.3,238.1c1.2-0.2,2.7-0.3,4.3-0.3c2.9,0,5,0.7,6.4,2c1.4,1.3,2.2,3.1,2.2,5.7c0,2.6-0.8,4.7-2.3,6.1
				c-1.5,1.5-3.9,2.3-7,2.3c-1.5,0-2.7-0.1-3.7-0.2V238.1z M1034.4,252c0.5,0.1,1.3,0.1,2.1,0.1c4.4,0,6.7-2.4,6.7-6.7
				c0-3.7-2.1-6.1-6.4-6.1c-1.1,0-1.9,0.1-2.4,0.2V252z"/>
			<path class="st0" d="M1049.1,248.4c0,2.8,1.8,3.9,3.9,3.9c1.5,0,2.4-0.3,3.1-0.6l0.4,1.5c-0.7,0.3-2,0.7-3.8,0.7
				c-3.5,0-5.6-2.3-5.6-5.7c0-3.4,2-6.1,5.3-6.1c3.7,0,4.7,3.3,4.7,5.3c0,0.4,0,0.8-0.1,1H1049.1z M1055.2,246.9
				c0-1.3-0.5-3.4-2.9-3.4c-2.1,0-3,1.9-3.2,3.4H1055.2z"/>
			<path class="st0" d="M1059.7,245.4c0-1.2,0-2.1-0.1-3.1h1.8l0.1,1.8h0.1c0.6-1.1,1.7-2.1,3.6-2.1c1.5,0,2.7,0.9,3.2,2.3h0
				c0.4-0.6,0.8-1.1,1.3-1.5c0.7-0.5,1.4-0.8,2.5-0.8c1.5,0,3.7,1,3.7,4.9v6.7h-2v-6.4c0-2.2-0.8-3.5-2.5-3.5
				c-1.2,0-2.1,0.9-2.4,1.9c-0.1,0.3-0.2,0.7-0.2,1v7h-2v-6.8c0-1.8-0.8-3.1-2.4-3.1c-1.3,0-2.2,1-2.6,2.1c-0.1,0.3-0.2,0.7-0.2,1
				v6.9h-2V245.4z"/>
			<path class="st0" d="M1085.6,253.7l-0.2-1.4h-0.1c-0.6,0.9-1.9,1.7-3.5,1.7c-2.3,0-3.5-1.6-3.5-3.3c0-2.7,2.4-4.2,6.8-4.2v-0.2
				c0-0.9-0.3-2.6-2.6-2.6c-1.1,0-2.2,0.3-3,0.8l-0.5-1.4c0.9-0.6,2.3-1,3.7-1c3.5,0,4.3,2.4,4.3,4.6v4.2c0,1,0,1.9,0.2,2.7H1085.6z
				 M1085.3,247.9c-2.3,0-4.8,0.4-4.8,2.6c0,1.3,0.9,2,1.9,2c1.5,0,2.4-0.9,2.7-1.9c0.1-0.2,0.1-0.4,0.1-0.7V247.9z"/>
			<path class="st0" d="M1090.6,245.4c0-1.2,0-2.1-0.1-3.1h1.8l0.1,1.9h0c0.6-1.1,1.9-2.1,3.8-2.1c1.6,0,4,0.9,4,4.8v6.8h-2.1v-6.5
				c0-1.8-0.7-3.4-2.6-3.4c-1.4,0-2.4,1-2.8,2.1c-0.1,0.3-0.1,0.6-0.1,1v6.8h-2.1V245.4z"/>
			<path class="st0" d="M1113.5,237v13.7c0,1,0,2.2,0.1,2.9h-1.9l-0.1-2h0c-0.6,1.3-2,2.2-3.9,2.2c-2.7,0-4.9-2.3-4.9-5.8
				c0-3.8,2.3-6.1,5.1-6.1c1.7,0,2.9,0.8,3.4,1.7h0V237H1113.5z M1111.4,246.9c0-0.3,0-0.6-0.1-0.9c-0.3-1.3-1.4-2.4-3-2.4
				c-2.1,0-3.4,1.9-3.4,4.4c0,2.3,1.1,4.2,3.4,4.2c1.4,0,2.7-0.9,3-2.5c0.1-0.3,0.1-0.6,0.1-0.9V246.9z"/>
			<path class="st0" d="M1121.7,251.2c0.9,0.6,2.3,1,3.7,1c2.1,0,3.3-1.1,3.3-2.7c0-1.5-0.8-2.3-3-3.1c-2.6-0.9-4.2-2.3-4.2-4.5
				c0-2.5,2-4.3,5.1-4.3c1.6,0,2.8,0.4,3.5,0.8l-0.6,1.7c-0.5-0.3-1.6-0.8-3-0.8c-2.2,0-3,1.3-3,2.4c0,1.5,1,2.2,3.1,3
				c2.7,1,4,2.3,4,4.6c0,2.4-1.8,4.6-5.5,4.6c-1.5,0-3.2-0.4-4-1L1121.7,251.2z"/>
			<path class="st0" d="M1142.9,250.6c0,1.2,0,2.2,0.1,3.1h-1.8l-0.1-1.9h0c-0.5,0.9-1.7,2.1-3.8,2.1c-1.8,0-3.9-1-3.9-5v-6.6h2.1
				v6.3c0,2.2,0.7,3.6,2.5,3.6c1.4,0,2.3-1,2.7-1.9c0.1-0.3,0.2-0.7,0.2-1.1v-7h2.1V250.6z"/>
			<path class="st0" d="M1146.4,246c0-1.5,0-2.6-0.1-3.7h1.9l0.1,1.9h0c0.8-1.4,2.2-2.2,4-2.2c2.7,0,4.8,2.3,4.8,5.8
				c0,4.1-2.5,6.1-5.2,6.1c-1.5,0-2.8-0.7-3.5-1.8h0v6.2h-2V246z M1148.4,249c0,0.3,0,0.6,0.1,0.8c0.4,1.4,1.6,2.4,3.1,2.4
				c2.2,0,3.4-1.8,3.4-4.4c0-2.3-1.2-4.2-3.4-4.2c-1.4,0-2.7,1-3.1,2.6c-0.1,0.3-0.1,0.6-0.1,0.8V249z"/>
			<path class="st0" d="M1159.7,246c0-1.5,0-2.6-0.1-3.7h1.9l0.1,1.9h0c0.8-1.4,2.2-2.2,4-2.2c2.7,0,4.8,2.3,4.8,5.8
				c0,4.1-2.5,6.1-5.2,6.1c-1.5,0-2.8-0.7-3.5-1.8h0v6.2h-2V246z M1161.8,249c0,0.3,0,0.6,0.1,0.8c0.4,1.4,1.6,2.4,3.1,2.4
				c2.2,0,3.4-1.8,3.4-4.4c0-2.3-1.2-4.2-3.4-4.2c-1.4,0-2.7,1-3.1,2.6c-0.1,0.3-0.1,0.6-0.1,0.8V249z"/>
			<path class="st0" d="M1173.1,237h2.1v16.7h-2.1V237z"/>
			<path class="st0" d="M1180.9,239.1c0,0.7-0.5,1.3-1.3,1.3c-0.7,0-1.2-0.6-1.2-1.3c0-0.7,0.5-1.3,1.3-1.3
				C1180.4,237.8,1180.9,238.4,1180.9,239.1z M1178.6,253.7v-11.4h2.1v11.4H1178.6z"/>
			<path class="st0" d="M1185.3,248.4c0,2.8,1.8,3.9,3.9,3.9c1.5,0,2.4-0.3,3.1-0.6l0.4,1.5c-0.7,0.3-2,0.7-3.8,0.7
				c-3.5,0-5.6-2.3-5.6-5.7c0-3.4,2-6.1,5.3-6.1c3.7,0,4.7,3.3,4.7,5.3c0,0.4,0,0.8-0.1,1H1185.3z M1191.3,246.9
				c0-1.3-0.5-3.4-2.9-3.4c-2.1,0-3,1.9-3.2,3.4H1191.3z"/>
			<path class="st0" d="M1205.7,237v13.7c0,1,0,2.2,0.1,2.9h-1.9l-0.1-2h0c-0.6,1.3-2,2.2-3.9,2.2c-2.7,0-4.9-2.3-4.9-5.8
				c0-3.8,2.3-6.1,5.1-6.1c1.7,0,2.9,0.8,3.4,1.7h0V237H1205.7z M1203.6,246.9c0-0.3,0-0.6-0.1-0.9c-0.3-1.3-1.4-2.4-3-2.4
				c-2.1,0-3.4,1.9-3.4,4.4c0,2.3,1.1,4.2,3.4,4.2c1.4,0,2.7-0.9,3-2.5c0.1-0.3,0.1-0.6,0.1-0.9V246.9z"/>
			<path class="st0" d="M1214.9,242.3l1.5,5.8c0.3,1.3,0.6,2.4,0.8,3.6h0.1c0.3-1.1,0.6-2.4,1-3.6l1.9-5.8h1.7l1.8,5.7
				c0.4,1.4,0.8,2.6,1,3.7h0.1c0.2-1.1,0.5-2.3,0.9-3.7l1.6-5.7h2l-3.7,11.4h-1.9l-1.7-5.4c-0.4-1.3-0.7-2.4-1-3.7h0
				c-0.3,1.4-0.6,2.5-1,3.8l-1.8,5.4h-1.9l-3.4-11.4H1214.9z"/>
			<path class="st0" d="M1233.7,239.1c0,0.7-0.5,1.3-1.3,1.3c-0.7,0-1.2-0.6-1.2-1.3c0-0.7,0.5-1.3,1.3-1.3
				C1233.2,237.8,1233.7,238.4,1233.7,239.1z M1231.4,253.7v-11.4h2.1v11.4H1231.4z"/>
			<path class="st0" d="M1239.3,239v3.3h3v1.6h-3v6.1c0,1.4,0.4,2.2,1.5,2.2c0.5,0,0.9-0.1,1.2-0.1l0.1,1.5c-0.4,0.2-1,0.3-1.8,0.3
				c-1,0-1.7-0.3-2.2-0.9c-0.6-0.6-0.8-1.6-0.8-3v-6.2h-1.8v-1.6h1.8v-2.7L1239.3,239z"/>
			<path class="st0" d="M1244.6,237h2.1v7.1h0c0.3-0.6,0.8-1.1,1.5-1.5c0.6-0.4,1.3-0.6,2.1-0.6c1.5,0,4,0.9,4,4.9v6.8h-2.1v-6.5
				c0-1.8-0.7-3.4-2.6-3.4c-1.3,0-2.4,0.9-2.8,2.1c-0.1,0.3-0.1,0.6-0.1,1v6.9h-2.1V237z"/>
			<path class="st0" d="M1264.7,237.8v6.6h7.6v-6.6h2.1v15.8h-2.1v-7.4h-7.6v7.4h-2v-15.8H1264.7z"/>
			<path class="st0" d="M1278.9,242.3l2.5,6.7c0.3,0.8,0.5,1.6,0.7,2.3h0c0.2-0.7,0.4-1.5,0.7-2.4l2.3-6.7h2.2l-3.1,8.1
				c-1.5,3.9-2.5,5.9-3.9,7.1c-1,0.9-2,1.2-2.5,1.3l-0.5-1.7c0.5-0.2,1.2-0.5,1.8-1c0.6-0.4,1.3-1.2,1.7-2.3
				c0.1-0.2,0.2-0.4,0.2-0.5c0-0.1,0-0.3-0.1-0.5l-4.2-10.5H1278.9z"/>
			<path class="st0" d="M1298.8,237v13.7c0,1,0,2.2,0.1,2.9h-1.9l-0.1-2h0c-0.6,1.3-2,2.2-3.9,2.2c-2.7,0-4.9-2.3-4.9-5.8
				c0-3.8,2.3-6.1,5.1-6.1c1.7,0,2.9,0.8,3.4,1.7h0V237H1298.8z M1296.7,246.9c0-0.3,0-0.6-0.1-0.9c-0.3-1.3-1.4-2.4-3-2.4
				c-2.1,0-3.4,1.9-3.4,4.4c0,2.3,1.1,4.2,3.4,4.2c1.4,0,2.7-0.9,3-2.5c0.1-0.3,0.1-0.6,0.1-0.9V246.9z"/>
			<path class="st0" d="M1302.2,245.8c0-1.3,0-2.5-0.1-3.5h1.8l0.1,2.2h0.1c0.5-1.5,1.8-2.5,3.1-2.5c0.2,0,0.4,0,0.6,0.1v1.9
				c-0.2,0-0.4-0.1-0.7-0.1c-1.5,0-2.5,1.1-2.8,2.7c0,0.3-0.1,0.6-0.1,1v6.1h-2V245.8z"/>
			<path class="st0" d="M1319.9,247.9c0,4.2-2.9,6-5.7,6c-3.1,0-5.4-2.3-5.4-5.8c0-3.8,2.5-6,5.6-6
				C1317.7,242,1319.9,244.4,1319.9,247.9z M1310.9,248c0,2.5,1.4,4.4,3.4,4.4c2,0,3.4-1.9,3.4-4.4c0-1.9-1-4.4-3.4-4.4
				C1312,243.6,1310.9,245.8,1310.9,248z"/>
			<path class="st0" d="M1332.3,242.3c0,0.8-0.1,1.7-0.1,3.1v6.6c0,2.6-0.5,4.2-1.6,5.2c-1.1,1-2.7,1.4-4.1,1.4
				c-1.4,0-2.9-0.3-3.8-0.9l0.5-1.6c0.8,0.5,1.9,0.9,3.3,0.9c2.1,0,3.7-1.1,3.7-4v-1.3h0c-0.6,1.1-1.9,1.9-3.6,1.9
				c-2.8,0-4.8-2.4-4.8-5.5c0-3.8,2.5-6,5.1-6c2,0,3.1,1,3.5,2h0l0.1-1.7H1332.3z M1330.2,246.8c0-0.4,0-0.7-0.1-0.9
				c-0.4-1.2-1.4-2.2-2.9-2.2c-2,0-3.4,1.7-3.4,4.3c0,2.2,1.1,4.1,3.4,4.1c1.3,0,2.4-0.8,2.9-2.1c0.1-0.4,0.2-0.8,0.2-1.1V246.8z"/>
			<path class="st0" d="M1336.8,248.4c0,2.8,1.8,3.9,3.9,3.9c1.5,0,2.4-0.3,3.1-0.6l0.4,1.5c-0.7,0.3-2,0.7-3.8,0.7
				c-3.5,0-5.6-2.3-5.6-5.7c0-3.4,2-6.1,5.3-6.1c3.7,0,4.7,3.3,4.7,5.3c0,0.4,0,0.8-0.1,1H1336.8z M1342.9,246.9
				c0-1.3-0.5-3.4-2.9-3.4c-2.1,0-3,1.9-3.2,3.4H1342.9z"/>
			<path class="st0" d="M1347.4,245.4c0-1.2,0-2.1-0.1-3.1h1.8l0.1,1.9h0c0.6-1.1,1.9-2.1,3.8-2.1c1.6,0,4,0.9,4,4.8v6.8h-2.1v-6.5
				c0-1.8-0.7-3.4-2.6-3.4c-1.4,0-2.4,1-2.8,2.1c-0.1,0.3-0.1,0.6-0.1,1v6.8h-2.1V245.4z"/>
			<path class="st0" d="M1369.9,237.4c-1.7,2.3-3,5.3-3,9.6c0,4.2,1.3,7.2,3,9.5h-1.6c-1.5-1.9-3.1-5-3.1-9.5c0-4.6,1.6-7.6,3.1-9.6
				H1369.9z"/>
			<path class="st0" d="M1372.2,238c1-0.2,2.3-0.3,3.9-0.3c2,0,3.5,0.5,4.4,1.3c0.9,0.8,1.4,1.9,1.4,3.3c0,1.4-0.4,2.6-1.2,3.4
				c-1.1,1.1-2.8,1.7-4.8,1.7c-0.6,0-1.2,0-1.6-0.1v6.3h-2V238z M1374.2,245.7c0.4,0.1,1,0.2,1.7,0.2c2.5,0,4-1.2,4-3.4
				c0-2.1-1.5-3.1-3.7-3.1c-0.9,0-1.6,0.1-1.9,0.2V245.7z"/>
			<path class="st0" d="M1387.2,253.7l-4-15.8h2.2l1.9,8c0.5,2,0.9,3.9,1.2,5.5h0c0.3-1.6,0.8-3.4,1.3-5.5l2.1-8h2.1l1.9,8
				c0.4,1.9,0.9,3.8,1.1,5.4h0c0.3-1.7,0.8-3.5,1.3-5.5l2.1-8h2.1l-4.5,15.8h-2.1l-2-8.2c-0.5-2-0.8-3.6-1-5.2h0
				c-0.3,1.6-0.6,3.1-1.2,5.2l-2.3,8.2H1387.2z"/>
			<path class="st0" d="M1404.3,237h2.1v7.1h0c0.3-0.6,0.8-1.1,1.5-1.5c0.6-0.4,1.3-0.6,2.1-0.6c1.5,0,4,0.9,4,4.9v6.8h-2.1v-6.5
				c0-1.8-0.7-3.4-2.6-3.4c-1.3,0-2.4,0.9-2.8,2.1c-0.1,0.3-0.1,0.6-0.1,1v6.9h-2.1V237z"/>
			<path class="st0" d="M1416.1,256.5c1.7-2.3,3-5.4,3-9.6c0-4.2-1.3-7.2-3-9.5h1.6c1.5,1.9,3.1,4.9,3.1,9.5c0,4.6-1.6,7.6-3.1,9.6
				H1416.1z"/>
		</g>
	</g>
	<rect x="1244.3" y="654.2" class="st1" width="70.1" height="28.7"/>
	<rect x="1355" y="627.7" class="st1" width="70.4" height="54.4"/>
	<rect x="1465.9" y="613.6" class="st1" width="70.1" height="68.4"/>
	<g>
		<g>
			<path class="st0" d="M1276.3,638.4v-1.3l1.6-1.6c3.9-3.7,5.7-5.7,5.7-8c0-1.5-0.8-3-3-3c-1.4,0-2.5,0.7-3.2,1.3l-0.7-1.5
				c1.1-0.9,2.6-1.5,4.3-1.5c3.3,0,4.7,2.3,4.7,4.4c0,2.8-2,5.1-5.3,8.2l-1.2,1.1v0h6.9v1.7H1276.3z"/>
		</g>
	</g>
	<g>
		<g>
			<path class="st0" d="M1386.4,620c0.6,0.4,1.9,1,3.4,1c2.6,0,3.5-1.7,3.4-3c0-2.1-1.9-3-3.9-3h-1.1v-1.5h1.1
				c1.5,0,3.4-0.8,3.4-2.6c0-1.2-0.8-2.3-2.7-2.3c-1.2,0-2.4,0.5-3,1l-0.5-1.5c0.8-0.6,2.3-1.2,4-1.2c3,0,4.4,1.8,4.4,3.6
				c0,1.6-0.9,2.9-2.8,3.6v0c1.9,0.4,3.4,1.8,3.4,3.9c0,2.4-1.9,4.6-5.6,4.6c-1.7,0-3.2-0.5-4-1L1386.4,620z"/>
		</g>
	</g>
	<g>
		<g>
			<path class="st0" d="M1503.5,568.8v-4.2h-7.1v-1.4l6.8-9.7h2.2v9.5h2.1v1.6h-2.1v4.2H1503.5z M1503.5,563.1V558
				c0-0.8,0-1.6,0.1-2.4h-0.1c-0.5,0.9-0.8,1.5-1.3,2.3l-3.7,5.2v0H1503.5z"/>
		</g>
	</g>
	<g>
		<g>
			<path class="st0" d="M1261.1,720.4v-1.3l1.6-1.6c3.9-3.7,5.7-5.7,5.7-8c0-1.5-0.8-3-3-3c-1.4,0-2.5,0.7-3.2,1.3l-0.7-1.5
				c1.1-0.9,2.6-1.5,4.3-1.5c3.3,0,4.7,2.3,4.7,4.4c0,2.8-2,5.1-5.3,8.2l-1.2,1.1v0h6.9v1.7H1261.1z"/>
			<path class="st0" d="M1283.3,712.6c0,5.2-1.9,8-5.3,8c-3,0-5-2.8-5-7.8c0-5.1,2.2-7.9,5.3-7.9
				C1281.4,704.9,1283.3,707.7,1283.3,712.6z M1275,712.8c0,4,1.2,6.2,3.1,6.2c2.1,0,3.1-2.5,3.1-6.4c0-3.8-1-6.2-3.1-6.2
				C1276.3,706.5,1275,708.7,1275,712.8z"/>
			<path class="st0" d="M1289.6,707L1289.6,707l-2.7,1.4l-0.4-1.6l3.3-1.8h1.8v15.2h-2V707z"/>
			<path class="st0" d="M1306.3,706.9h-5.8l-0.6,3.9c0.4,0,0.7-0.1,1.2-0.1c1.2,0,2.3,0.3,3.3,0.8c1.2,0.7,2.2,2,2.2,3.9
				c0,3-2.4,5.2-5.7,5.2c-1.7,0-3.1-0.5-3.8-0.9l0.5-1.6c0.6,0.4,1.9,0.8,3.3,0.8c1.9,0,3.6-1.3,3.6-3.3c0-2-1.3-3.4-4.4-3.4
				c-0.9,0-1.5,0.1-2.1,0.2l1-7.3h7.3V706.9z"/>
			<path class="st0" d="M1354,720.4v-1.3l1.6-1.6c3.9-3.7,5.7-5.7,5.7-8c0-1.5-0.8-3-3-3c-1.4,0-2.5,0.7-3.2,1.3l-0.7-1.5
				c1.1-0.9,2.6-1.5,4.3-1.5c3.3,0,4.7,2.3,4.7,4.4c0,2.8-2,5.1-5.3,8.2l-1.2,1.1v0h6.8v1.7H1354z"/>
			<path class="st0" d="M1376.2,712.6c0,5.2-1.9,8-5.3,8c-3,0-5-2.8-5-7.8c0-5.1,2.2-7.9,5.3-7.9
				C1374.4,704.9,1376.2,707.7,1376.2,712.6z M1367.9,712.8c0,4,1.2,6.2,3.1,6.2c2.1,0,3.1-2.5,3.1-6.4c0-3.8-1-6.2-3.1-6.2
				C1369.2,706.5,1367.9,708.7,1367.9,712.8z"/>
			<path class="st0" d="M1378.1,720.4v-1.3l1.6-1.6c3.9-3.7,5.7-5.7,5.7-8c0-1.5-0.8-3-3-3c-1.4,0-2.5,0.7-3.2,1.3l-0.7-1.5
				c1.1-0.9,2.6-1.5,4.3-1.5c3.3,0,4.7,2.3,4.7,4.4c0,2.8-2,5.1-5.3,8.2l-1.2,1.1v0h6.8v1.7H1378.1z"/>
			<path class="st0" d="M1400.3,712.6c0,5.2-1.9,8-5.3,8c-3,0-5-2.8-5-7.8c0-5.1,2.2-7.9,5.3-7.9
				C1398.5,704.9,1400.3,707.7,1400.3,712.6z M1392,712.8c0,4,1.2,6.2,3.1,6.2c2.1,0,3.1-2.5,3.1-6.4c0-3.8-1-6.2-3.1-6.2
				C1393.3,706.5,1392,708.7,1392,712.8z"/>
		</g>
	</g>
	<g>
		<g>
			<path class="st0" d="M1478.8,720.7v-1.3l1.6-1.6c3.9-3.7,5.7-5.7,5.7-8c0-1.5-0.7-3-3-3c-1.4,0-2.5,0.7-3.2,1.3l-0.7-1.5
				c1.1-0.9,2.6-1.5,4.3-1.5c3.3,0,4.7,2.3,4.7,4.4c0,2.8-2,5.1-5.3,8.2l-1.2,1.1v0h6.9v1.7H1478.8z"/>
			<path class="st0" d="M1501,712.9c0,5.2-1.9,8-5.3,8c-3,0-5-2.8-5-7.8c0-5.1,2.2-7.9,5.3-7.9C1499.2,705.1,1501,708,1501,712.9z
				 M1492.7,713.1c0,4,1.2,6.2,3.1,6.2c2.1,0,3.1-2.5,3.1-6.4c0-3.8-1-6.2-3.1-6.2C1494,706.7,1492.7,708.9,1492.7,713.1z"/>
			<path class="st0" d="M1503.4,718.3c0.6,0.4,1.9,1,3.4,1c2.6,0,3.5-1.7,3.4-3c0-2.1-1.9-3-3.9-3h-1.1v-1.5h1.1
				c1.5,0,3.4-0.8,3.4-2.6c0-1.2-0.8-2.3-2.7-2.3c-1.2,0-2.4,0.5-3,1l-0.5-1.5c0.8-0.6,2.3-1.2,4-1.2c3,0,4.4,1.8,4.4,3.6
				c0,1.6-0.9,2.9-2.8,3.6v0c1.9,0.4,3.4,1.8,3.4,3.9c0,2.4-1.9,4.6-5.6,4.6c-1.7,0-3.2-0.5-4-1L1503.4,718.3z"/>
			<path class="st0" d="M1525.1,712.9c0,5.2-1.9,8-5.3,8c-3,0-5-2.8-5-7.8c0-5.1,2.2-7.9,5.3-7.9
				C1523.2,705.1,1525.1,708,1525.1,712.9z M1516.8,713.1c0,4,1.2,6.2,3.1,6.2c2.1,0,3.1-2.5,3.1-6.4c0-3.8-1-6.2-3.1-6.2
				C1518.1,706.7,1516.8,708.9,1516.8,713.1z"/>
		</g>
	</g>
	<g>
		<g>
			<path class="st0" d="M1185.9,719.8v-6.7l-5-9.1h2.3l2.2,4.4c0.6,1.2,1.1,2.2,1.6,3.3h0c0.4-1,1-2.1,1.6-3.3l2.3-4.4h2.3l-5.3,9.1
				v6.7H1185.9z"/>
			<path class="st0" d="M1194.4,714.5c0,2.8,1.8,3.9,3.9,3.9c1.5,0,2.4-0.3,3.1-0.6l0.4,1.5c-0.7,0.3-2,0.7-3.8,0.7
				c-3.5,0-5.6-2.3-5.6-5.7s2-6.1,5.3-6.1c3.7,0,4.7,3.3,4.7,5.3c0,0.4,0,0.8-0.1,1H1194.4z M1200.4,713c0-1.3-0.5-3.4-2.9-3.4
				c-2.1,0-3,1.9-3.2,3.4H1200.4z"/>
			<path class="st0" d="M1211.3,719.8l-0.2-1.4h-0.1c-0.6,0.9-1.9,1.7-3.5,1.7c-2.3,0-3.5-1.6-3.5-3.3c0-2.7,2.4-4.2,6.8-4.2v-0.2
				c0-0.9-0.3-2.6-2.6-2.6c-1.1,0-2.2,0.3-3,0.8l-0.5-1.4c0.9-0.6,2.3-1,3.7-1c3.5,0,4.3,2.4,4.3,4.6v4.2c0,1,0,1.9,0.2,2.7H1211.3z
				 M1211,714c-2.3,0-4.8,0.4-4.8,2.6c0,1.3,0.9,2,1.9,2c1.5,0,2.4-0.9,2.7-1.9c0.1-0.2,0.1-0.4,0.1-0.7V714z"/>
			<path class="st0" d="M1216.3,712c0-1.3,0-2.5-0.1-3.5h1.8l0.1,2.2h0.1c0.5-1.5,1.8-2.5,3.1-2.5c0.2,0,0.4,0,0.6,0.1v1.9
				c-0.2,0-0.4-0.1-0.7-0.1c-1.5,0-2.5,1.1-2.8,2.7c0,0.3-0.1,0.6-0.1,1v6.1h-2V712z"/>
		</g>
	</g>
	<rect x="1576.6" y="613.6" class="st1" width="70.4" height="68.4"/>
	<rect x="1686.5" y="627.7" class="st1" width="70.1" height="56.3"/>
	<g>
		<g>
			<path class="st0" d="M1589.8,720.7v-1.3l1.6-1.6c3.9-3.7,5.7-5.7,5.7-8c0-1.5-0.8-3-3-3c-1.4,0-2.5,0.7-3.2,1.3l-0.7-1.5
				c1.1-0.9,2.6-1.5,4.3-1.5c3.3,0,4.7,2.3,4.7,4.4c0,2.8-2,5.1-5.3,8.2l-1.2,1.1v0h6.8v1.7H1589.8z"/>
			<path class="st0" d="M1612,712.9c0,5.2-1.9,8-5.3,8c-3,0-5-2.8-5-7.8c0-5.1,2.2-7.9,5.3-7.9C1610.1,705.1,1612,708,1612,712.9z
				 M1603.7,713.1c0,4,1.2,6.2,3.1,6.2c2.1,0,3.1-2.5,3.1-6.4c0-3.8-1-6.2-3.1-6.2C1605,706.7,1603.7,708.9,1603.7,713.1z"/>
			<path class="st0" d="M1620.3,720.7v-4.2h-7.1v-1.4l6.8-9.7h2.2v9.5h2.1v1.6h-2.1v4.2H1620.3z M1620.3,714.9v-5.1
				c0-0.8,0-1.6,0.1-2.4h-0.1c-0.5,0.9-0.8,1.5-1.3,2.3l-3.7,5.2v0H1620.3z"/>
			<path class="st0" d="M1636.1,712.9c0,5.2-1.9,8-5.3,8c-3,0-5-2.8-5-7.8c0-5.1,2.2-7.9,5.3-7.9
				C1634.2,705.1,1636.1,708,1636.1,712.9z M1627.8,713.1c0,4,1.2,6.2,3.1,6.2c2.1,0,3.1-2.5,3.1-6.4c0-3.8-1-6.2-3.1-6.2
				C1629.1,706.7,1627.8,708.9,1627.8,713.1z"/>
			<path class="st0" d="M1682.7,720.7v-1.3l1.6-1.6c3.9-3.7,5.7-5.7,5.7-8c0-1.5-0.8-3-3-3c-1.4,0-2.5,0.7-3.2,1.3l-0.7-1.5
				c1.1-0.9,2.6-1.5,4.3-1.5c3.3,0,4.7,2.3,4.7,4.4c0,2.8-2,5.1-5.3,8.2l-1.2,1.1v0h6.8v1.7H1682.7z"/>
			<path class="st0" d="M1704.9,712.9c0,5.2-1.9,8-5.3,8c-3,0-5-2.8-5-7.8c0-5.1,2.2-7.9,5.3-7.9
				C1703.1,705.1,1704.9,708,1704.9,712.9z M1696.6,713.1c0,4,1.2,6.2,3.1,6.2c2.1,0,3.1-2.5,3.1-6.4c0-3.8-1-6.2-3.1-6.2
				C1698,706.7,1696.6,708.9,1696.6,713.1z"/>
			<path class="st0" d="M1715.9,707.1h-5.8l-0.6,3.9c0.4,0,0.7-0.1,1.2-0.1c1.2,0,2.3,0.3,3.3,0.8c1.2,0.7,2.2,2,2.2,3.9
				c0,3-2.4,5.2-5.7,5.2c-1.7,0-3.1-0.5-3.8-0.9l0.5-1.6c0.6,0.4,1.9,0.8,3.3,0.8c1.9,0,3.6-1.3,3.6-3.3c0-2-1.3-3.4-4.4-3.4
				c-0.9,0-1.5,0.1-2.1,0.2l1-7.3h7.3V707.1z"/>
			<path class="st0" d="M1729,712.9c0,5.2-1.9,8-5.3,8c-3,0-5-2.8-5-7.8c0-5.1,2.2-7.9,5.3-7.9C1727.2,705.1,1729,708,1729,712.9z
				 M1720.7,713.1c0,4,1.2,6.2,3.1,6.2c2.1,0,3.1-2.5,3.1-6.4c0-3.8-1-6.2-3.1-6.2C1722,706.7,1720.7,708.9,1720.7,713.1z"/>
		</g>
	</g>
	<rect x="981" y="815.9" class="st1" width="14.7" height="84.6"/>
	<g>
		<g>
			<path class="st0" d="M1023.1,843.6h-6.1v5.7h6.9v1.7h-8.9v-15.8h8.5v1.7h-6.5v5h6.1V843.6z"/>
			<path class="st0" d="M1027.4,839.6l1.6,2.4c0.4,0.6,0.8,1.2,1.1,1.9h0.1c0.4-0.7,0.8-1.3,1.1-1.9l1.6-2.4h2.2l-3.9,5.5l4,5.9
				h-2.3l-1.7-2.6c-0.4-0.7-0.8-1.3-1.2-2h0c-0.4,0.7-0.8,1.3-1.2,2l-1.6,2.6h-2.3l4-5.8l-3.8-5.6H1027.4z"/>
			<path class="st0" d="M1039.6,836.4c0,0.7-0.5,1.3-1.3,1.3c-0.7,0-1.2-0.6-1.2-1.3c0-0.7,0.5-1.3,1.3-1.3
				C1039.1,835.1,1039.6,835.7,1039.6,836.4z M1037.3,851v-11.4h2.1V851H1037.3z"/>
			<path class="st0" d="M1042.5,848.9c0.6,0.4,1.7,0.8,2.7,0.8c1.5,0,2.2-0.7,2.2-1.7c0-1-0.6-1.5-2.1-2.1c-2-0.7-3-1.9-3-3.2
				c0-1.8,1.5-3.3,3.9-3.3c1.1,0,2.2,0.3,2.8,0.7l-0.5,1.5c-0.4-0.3-1.3-0.7-2.3-0.7c-1.2,0-1.9,0.7-1.9,1.5c0,0.9,0.7,1.4,2.2,1.9
				c2,0.8,3,1.7,3,3.4c0,2-1.5,3.4-4.2,3.4c-1.2,0-2.4-0.3-3.2-0.8L1042.5,848.9z"/>
			<path class="st0" d="M1054.5,836.4v3.3h3v1.6h-3v6.1c0,1.4,0.4,2.2,1.5,2.2c0.5,0,0.9-0.1,1.2-0.1l0.1,1.5
				c-0.4,0.2-1,0.3-1.8,0.3c-1,0-1.7-0.3-2.2-0.9c-0.6-0.6-0.8-1.6-0.8-3v-6.2h-1.8v-1.6h1.8v-2.7L1054.5,836.4z"/>
			<path class="st0" d="M1062.1,836.4c0,0.7-0.5,1.3-1.3,1.3c-0.7,0-1.2-0.6-1.2-1.3c0-0.7,0.5-1.3,1.3-1.3
				C1061.6,835.1,1062.1,835.7,1062.1,836.4z M1059.8,851v-11.4h2.1V851H1059.8z"/>
			<path class="st0" d="M1065.3,842.7c0-1.2,0-2.1-0.1-3.1h1.8l0.1,1.9h0c0.6-1.1,1.9-2.1,3.8-2.1c1.6,0,4,0.9,4,4.8v6.8h-2.1v-6.5
				c0-1.8-0.7-3.4-2.6-3.4c-1.4,0-2.4,1-2.8,2.1c-0.1,0.3-0.1,0.6-0.1,1v6.8h-2.1V842.7z"/>
			<path class="st0" d="M1088.1,839.6c0,0.8-0.1,1.7-0.1,3.1v6.6c0,2.6-0.5,4.2-1.6,5.2c-1.1,1-2.7,1.4-4.1,1.4
				c-1.4,0-2.9-0.3-3.8-0.9l0.5-1.6c0.7,0.5,1.9,0.9,3.3,0.9c2.1,0,3.7-1.1,3.7-4V849h0c-0.6,1.1-1.9,1.9-3.6,1.9
				c-2.8,0-4.8-2.4-4.8-5.5c0-3.8,2.5-6,5.1-6c2,0,3,1,3.5,2h0l0.1-1.7H1088.1z M1086,844.1c0-0.4,0-0.7-0.1-0.9
				c-0.4-1.2-1.4-2.2-2.9-2.2c-2,0-3.4,1.7-3.4,4.3c0,2.2,1.1,4.1,3.4,4.1c1.3,0,2.4-0.8,2.9-2.1c0.1-0.4,0.2-0.8,0.2-1.1V844.1z"/>
		</g>
	</g>
	<g>
		<g>
			<path class="st0" d="M1015.1,879.9v-9.8h-1.6v-1.6h1.6V868c0-1.6,0.4-3,1.3-4c0.8-0.8,1.8-1.1,2.8-1.1c0.7,0,1.4,0.2,1.8,0.3
				l-0.3,1.6c-0.3-0.1-0.7-0.3-1.3-0.3c-1.8,0-2.2,1.5-2.2,3.3v0.6h2.7v1.6h-2.7v9.8H1015.1z"/>
			<path class="st0" d="M1022.5,874.6c0,2.8,1.8,3.9,3.9,3.9c1.5,0,2.4-0.3,3.1-0.6l0.4,1.5c-0.7,0.3-2,0.7-3.8,0.7
				c-3.5,0-5.6-2.3-5.6-5.7s2-6.1,5.3-6.1c3.7,0,4.7,3.3,4.7,5.3c0,0.4,0,0.8-0.1,1H1022.5z M1028.6,873.1c0-1.3-0.5-3.4-2.9-3.4
				c-2.1,0-3,1.9-3.2,3.4H1028.6z"/>
			<path class="st0" d="M1034.3,874.6c0,2.8,1.8,3.9,3.9,3.9c1.5,0,2.4-0.3,3.1-0.6l0.4,1.5c-0.7,0.3-2,0.7-3.8,0.7
				c-3.5,0-5.6-2.3-5.6-5.7s2-6.1,5.3-6.1c3.7,0,4.7,3.3,4.7,5.3c0,0.4,0,0.8-0.1,1H1034.3z M1040.4,873.1c0-1.3-0.5-3.4-2.9-3.4
				c-2.1,0-3,1.9-3.2,3.4H1040.4z"/>
			<path class="st0" d="M1054.7,863.2V877c0,1,0,2.2,0.1,2.9h-1.9l-0.1-2h0c-0.6,1.3-2,2.2-3.9,2.2c-2.7,0-4.9-2.3-4.9-5.8
				c0-3.8,2.3-6.1,5.1-6.1c1.7,0,2.9,0.8,3.4,1.7h0v-6.8H1054.7z M1052.7,873.2c0-0.3,0-0.6-0.1-0.9c-0.3-1.3-1.4-2.4-3-2.4
				c-2.1,0-3.4,1.9-3.4,4.4c0,2.3,1.1,4.2,3.4,4.2c1.4,0,2.7-0.9,3-2.5c0.1-0.3,0.1-0.6,0.1-0.9V873.2z"/>
			<path class="st0" d="M1057.9,877.8c0.6,0.4,1.7,0.8,2.7,0.8c1.5,0,2.2-0.7,2.2-1.7c0-1-0.6-1.5-2.1-2.1c-2-0.7-3-1.9-3-3.2
				c0-1.8,1.5-3.3,3.9-3.3c1.1,0,2.2,0.3,2.8,0.7l-0.5,1.5c-0.4-0.3-1.3-0.7-2.3-0.7c-1.2,0-1.9,0.7-1.9,1.5c0,0.9,0.7,1.4,2.2,1.9
				c2,0.8,3,1.7,3,3.4c0,2-1.5,3.4-4.2,3.4c-1.2,0-2.4-0.3-3.2-0.8L1057.9,877.8z"/>
			<path class="st0" d="M1069.9,865.3v3.3h3v1.6h-3v6.1c0,1.4,0.4,2.2,1.5,2.2c0.5,0,0.9-0.1,1.2-0.1l0.1,1.5
				c-0.4,0.2-1,0.3-1.8,0.3c-1,0-1.7-0.3-2.2-0.9c-0.6-0.6-0.8-1.6-0.8-3v-6.2h-1.8v-1.6h1.8v-2.7L1069.9,865.3z"/>
			<path class="st0" d="M1085.3,874.1c0,4.2-2.9,6-5.7,6c-3.1,0-5.4-2.3-5.4-5.8c0-3.8,2.5-6,5.6-6
				C1083.1,868.3,1085.3,870.6,1085.3,874.1z M1076.3,874.2c0,2.5,1.4,4.4,3.4,4.4c2,0,3.4-1.9,3.4-4.4c0-1.9-1-4.4-3.4-4.4
				C1077.4,869.8,1076.3,872.1,1076.3,874.2z"/>
			<path class="st0" d="M1096.1,879.5c-0.5,0.3-1.7,0.7-3.3,0.7c-3.4,0-5.7-2.3-5.7-5.8c0-3.5,2.4-6,6.1-6c1.2,0,2.3,0.3,2.9,0.6
				l-0.5,1.6c-0.5-0.3-1.3-0.5-2.4-0.5c-2.6,0-4,1.9-4,4.3c0,2.6,1.7,4.2,3.9,4.2c1.2,0,1.9-0.3,2.5-0.6L1096.1,879.5z"/>
			<path class="st0" d="M1100.5,873.7L1100.5,873.7c0.3-0.4,0.7-0.9,1.1-1.3l3.3-3.9h2.5l-4.4,4.7l5,6.7h-2.5l-3.9-5.4l-1.1,1.2v4.3
				h-2v-16.7h2V873.7z"/>
			<path class="st0" d="M1119.1,876.8c0,1.2,0,2.2,0.1,3.1h-1.8l-0.1-1.9h0c-0.5,0.9-1.7,2.1-3.8,2.1c-1.8,0-3.9-1-3.9-5v-6.6h2.1
				v6.3c0,2.2,0.7,3.6,2.5,3.6c1.4,0,2.3-1,2.7-1.9c0.1-0.3,0.2-0.7,0.2-1.1v-7h2.1V876.8z"/>
			<path class="st0" d="M1122.2,877.8c0.6,0.4,1.7,0.8,2.7,0.8c1.5,0,2.2-0.7,2.2-1.7c0-1-0.6-1.5-2.1-2.1c-2-0.7-3-1.9-3-3.2
				c0-1.8,1.5-3.3,3.9-3.3c1.1,0,2.2,0.3,2.8,0.7l-0.5,1.5c-0.4-0.3-1.3-0.7-2.3-0.7c-1.2,0-1.9,0.7-1.9,1.5c0,0.9,0.7,1.4,2.2,1.9
				c2,0.8,3,1.7,3,3.4c0,2-1.5,3.4-4.2,3.4c-1.2,0-2.4-0.3-3.2-0.8L1122.2,877.8z"/>
			<path class="st0" d="M1133,874.6c0,2.8,1.8,3.9,3.9,3.9c1.5,0,2.4-0.3,3.1-0.6l0.4,1.5c-0.7,0.3-2,0.7-3.8,0.7
				c-3.5,0-5.6-2.3-5.6-5.7s2-6.1,5.3-6.1c3.7,0,4.7,3.3,4.7,5.3c0,0.4,0,0.8-0.1,1H1133z M1139,873.1c0-1.3-0.5-3.4-2.9-3.4
				c-2.1,0-3,1.9-3.2,3.4H1139z"/>
			<path class="st0" d="M1143.3,877.8c0.6,0.4,1.7,0.8,2.7,0.8c1.5,0,2.2-0.7,2.2-1.7c0-1-0.6-1.5-2.1-2.1c-2-0.7-3-1.9-3-3.2
				c0-1.8,1.5-3.3,3.9-3.3c1.1,0,2.2,0.3,2.8,0.7l-0.5,1.5c-0.4-0.3-1.3-0.7-2.3-0.7c-1.2,0-1.9,0.7-1.9,1.5c0,0.9,0.7,1.4,2.2,1.9
				c2,0.8,3,1.7,3,3.4c0,2-1.5,3.4-4.2,3.4c-1.2,0-2.4-0.3-3.2-0.8L1143.3,877.8z"/>
		</g>
	</g>
	<rect x="981" y="908.8" class="st2" width="14.7" height="84.6"/>
	<g>
		<g>
			<path class="st0" d="M1014.9,944.6v-15.8h2.2l5.1,8c1.2,1.9,2.1,3.5,2.8,5.1l0,0c-0.2-2.1-0.2-4-0.2-6.5v-6.6h1.9v15.8h-2.1l-5-8
				c-1.1-1.8-2.2-3.6-3-5.3l-0.1,0c0.1,2,0.2,3.9,0.2,6.5v6.8H1014.9z"/>
			<path class="st0" d="M1031.4,939.3c0,2.8,1.8,3.9,3.9,3.9c1.5,0,2.4-0.3,3.1-0.6l0.4,1.5c-0.7,0.3-2,0.7-3.8,0.7
				c-3.5,0-5.6-2.3-5.6-5.7s2-6.1,5.3-6.1c3.7,0,4.7,3.3,4.7,5.3c0,0.4,0,0.8-0.1,1H1031.4z M1037.5,937.9c0-1.3-0.5-3.4-2.9-3.4
				c-2.1,0-3,1.9-3.2,3.4H1037.5z"/>
			<path class="st0" d="M1042.9,933.3l1.5,5.8c0.3,1.3,0.6,2.4,0.8,3.6h0.1c0.3-1.1,0.6-2.4,1-3.6l1.9-5.8h1.7l1.8,5.7
				c0.4,1.4,0.7,2.6,1,3.7h0.1c0.2-1.1,0.5-2.3,0.9-3.7l1.6-5.7h2l-3.7,11.4h-1.9l-1.7-5.4c-0.4-1.3-0.7-2.4-1-3.7h0
				c-0.3,1.4-0.6,2.5-1,3.8l-1.8,5.4h-1.9l-3.4-11.4H1042.9z"/>
			<path class="st0" d="M1059.5,944.6v-9.8h-1.6v-1.6h1.6v-0.5c0-1.6,0.4-3,1.3-4c0.8-0.8,1.8-1.1,2.8-1.1c0.7,0,1.4,0.2,1.8,0.3
				l-0.3,1.6c-0.3-0.1-0.7-0.3-1.3-0.3c-1.8,0-2.2,1.5-2.2,3.3v0.6h2.7v1.6h-2.7v9.8H1059.5z"/>
			<path class="st0" d="M1067,939.3c0,2.8,1.8,3.9,3.9,3.9c1.5,0,2.4-0.3,3.1-0.6l0.4,1.5c-0.7,0.3-2,0.7-3.8,0.7
				c-3.5,0-5.6-2.3-5.6-5.7s2-6.1,5.3-6.1c3.7,0,4.7,3.3,4.7,5.3c0,0.4,0,0.8-0.1,1H1067z M1073.1,937.9c0-1.3-0.5-3.4-2.9-3.4
				c-2.1,0-3,1.9-3.2,3.4H1073.1z"/>
			<path class="st0" d="M1078.8,939.3c0,2.8,1.8,3.9,3.9,3.9c1.5,0,2.4-0.3,3.1-0.6l0.4,1.5c-0.7,0.3-2,0.7-3.8,0.7
				c-3.5,0-5.6-2.3-5.6-5.7s2-6.1,5.3-6.1c3.7,0,4.7,3.3,4.7,5.3c0,0.4,0,0.8-0.1,1H1078.8z M1084.8,937.9c0-1.3-0.5-3.4-2.9-3.4
				c-2.1,0-3,1.9-3.2,3.4H1084.8z"/>
			<path class="st0" d="M1099.2,928v13.7c0,1,0,2.2,0.1,2.9h-1.9l-0.1-2h0c-0.6,1.3-2,2.2-3.9,2.2c-2.7,0-4.9-2.3-4.9-5.8
				c0-3.8,2.3-6.1,5.1-6.1c1.7,0,2.9,0.8,3.4,1.7h0V928H1099.2z M1097.1,937.9c0-0.3,0-0.6-0.1-0.9c-0.3-1.3-1.4-2.4-3-2.4
				c-2.1,0-3.4,1.9-3.4,4.4c0,2.3,1.1,4.2,3.4,4.2c1.4,0,2.7-0.9,3-2.5c0.1-0.3,0.1-0.6,0.1-0.9V937.9z"/>
			<path class="st0" d="M1102.3,942.5c0.6,0.4,1.7,0.8,2.7,0.8c1.5,0,2.2-0.7,2.2-1.7c0-1-0.6-1.5-2.1-2.1c-2-0.7-3-1.9-3-3.2
				c0-1.8,1.5-3.3,3.9-3.3c1.1,0,2.2,0.3,2.8,0.7l-0.5,1.5c-0.4-0.3-1.3-0.7-2.3-0.7c-1.2,0-1.9,0.7-1.9,1.5c0,0.9,0.7,1.4,2.2,1.9
				c2,0.8,3,1.7,3,3.4c0,2-1.5,3.4-4.2,3.4c-1.2,0-2.4-0.3-3.2-0.8L1102.3,942.5z"/>
			<path class="st0" d="M1114.4,930v3.3h3v1.6h-3v6.1c0,1.4,0.4,2.2,1.5,2.2c0.5,0,0.9-0.1,1.2-0.1l0.1,1.5c-0.4,0.2-1,0.3-1.8,0.3
				c-1,0-1.7-0.3-2.2-0.9c-0.6-0.6-0.8-1.6-0.8-3v-6.2h-1.8v-1.6h1.8v-2.7L1114.4,930z"/>
			<path class="st0" d="M1129.8,938.9c0,4.2-2.9,6-5.7,6c-3.1,0-5.4-2.3-5.4-5.8c0-3.8,2.5-6,5.6-6
				C1127.6,933,1129.8,935.4,1129.8,938.9z M1120.8,939c0,2.5,1.4,4.4,3.4,4.4c2,0,3.4-1.9,3.4-4.4c0-1.9-1-4.4-3.4-4.4
				C1121.9,934.6,1120.8,936.8,1120.8,939z"/>
			<path class="st0" d="M1140.5,944.2c-0.5,0.3-1.7,0.7-3.3,0.7c-3.4,0-5.7-2.3-5.7-5.8c0-3.5,2.4-6,6.1-6c1.2,0,2.3,0.3,2.9,0.6
				l-0.5,1.6c-0.5-0.3-1.3-0.5-2.4-0.5c-2.6,0-4,1.9-4,4.3c0,2.6,1.7,4.2,3.9,4.2c1.2,0,1.9-0.3,2.5-0.6L1140.5,944.2z"/>
			<path class="st0" d="M1145,938.5L1145,938.5c0.3-0.4,0.7-0.9,1.1-1.3l3.3-3.9h2.5l-4.4,4.7l5,6.7h-2.5l-3.9-5.4l-1.1,1.2v4.3h-2
				V928h2V938.5z"/>
		</g>
	</g>
	<g>
		<g>
			<path class="st0" d="M1019.3,957.3c-1.7,2.3-3,5.4-3,9.6c0,4.2,1.3,7.2,3,9.5h-1.6c-1.5-1.9-3.1-4.9-3.1-9.5
				c0-4.6,1.6-7.6,3.1-9.6H1019.3z"/>
			<path class="st0" d="M1032.3,973c-0.7,0.4-2.3,0.7-4.2,0.7c-4.5,0-7.8-2.8-7.8-8c0-4.9,3.4-8.3,8.3-8.3c2,0,3.2,0.4,3.8,0.7
				l-0.5,1.7c-0.8-0.4-1.9-0.7-3.2-0.7c-3.7,0-6.2,2.4-6.2,6.5c0,3.9,2.2,6.4,6.1,6.4c1.2,0,2.5-0.3,3.3-0.7L1032.3,973z"/>
			<path class="st0" d="M1045.5,973c-0.7,0.4-2.3,0.7-4.2,0.7c-4.5,0-7.8-2.8-7.8-8c0-4.9,3.4-8.3,8.3-8.3c2,0,3.2,0.4,3.8,0.7
				l-0.5,1.7c-0.8-0.4-1.9-0.7-3.2-0.7c-3.7,0-6.2,2.4-6.2,6.5c0,3.9,2.2,6.4,6.1,6.4c1.2,0,2.5-0.3,3.3-0.7L1045.5,973z"/>
			<path class="st0" d="M1050.1,957.7v9.4c0,3.5,1.6,5,3.7,5c2.3,0,3.8-1.5,3.8-5v-9.4h2.1v9.2c0,4.9-2.6,6.9-6,6.9
				c-3.2,0-5.7-1.9-5.7-6.8v-9.3H1050.1z"/>
			<path class="st0" d="M1061.2,976.4c0.5-1.4,1.1-3.9,1.4-5.6l2.3-0.2c-0.5,2-1.6,4.6-2.2,5.7L1061.2,976.4z"/>
			<path class="st0" d="M1067.4,957.9c1.2-0.2,2.7-0.3,4.3-0.3c2.9,0,5,0.7,6.4,2c1.4,1.3,2.2,3.1,2.2,5.7c0,2.6-0.8,4.7-2.3,6.1
				c-1.5,1.5-3.9,2.3-7,2.3c-1.5,0-2.7-0.1-3.7-0.2V957.9z M1069.5,971.9c0.5,0.1,1.3,0.1,2.1,0.1c4.4,0,6.7-2.4,6.7-6.7
				c0-3.7-2.1-6.1-6.4-6.1c-1.1,0-1.9,0.1-2.4,0.2V971.9z"/>
			<path class="st0" d="M1083.1,957.9c1-0.2,2.5-0.3,3.9-0.3c2.2,0,3.6,0.4,4.6,1.3c0.8,0.7,1.2,1.8,1.2,3c0,2.1-1.3,3.5-3,4v0.1
				c1.2,0.4,1.9,1.5,2.3,3.2c0.5,2.2,0.9,3.7,1.2,4.3h-2.1c-0.3-0.4-0.6-1.8-1.1-3.8c-0.5-2.2-1.3-3-3.2-3.1h-1.9v6.8h-2V957.9z
				 M1085.1,965.1h2.1c2.2,0,3.6-1.2,3.6-3c0-2-1.5-2.9-3.6-3c-1,0-1.7,0.1-2,0.2V965.1z"/>
			<path class="st0" d="M1097.7,957.7v15.8h-2v-15.8H1097.7z"/>
			<path class="st0" d="M1100,976.4c1.7-2.3,3-5.4,3-9.6c0-4.2-1.3-7.2-3-9.5h1.6c1.5,1.9,3.1,4.9,3.1,9.5c0,4.6-1.6,7.6-3.1,9.6
				H1100z"/>
		</g>
	</g>
	<rect x="1293.2" y="818.5" class="st3" width="14.7" height="84.6"/>
	<g>
		<g>
			<path class="st0" d="M1607.9,823.3v15.8h-2v-15.8H1607.9z"/>
			<path class="st0" d="M1611.6,830.8c0-1.2,0-2.1-0.1-3.1h1.8l0.1,1.9h0c0.6-1.1,1.9-2.1,3.8-2.1c1.6,0,4,0.9,4,4.8v6.8h-2.1v-6.5
				c0-1.8-0.7-3.4-2.6-3.4c-1.4,0-2.4,1-2.8,2.1c-0.1,0.3-0.1,0.6-0.1,1v6.8h-2.1V830.8z"/>
			<path class="st0" d="M1634.4,822.5v13.7c0,1,0,2.2,0.1,2.9h-1.9l-0.1-2h0c-0.6,1.3-2,2.2-3.9,2.2c-2.7,0-4.9-2.3-4.9-5.8
				c0-3.8,2.3-6.1,5.1-6.1c1.7,0,2.9,0.8,3.4,1.7h0v-6.8H1634.4z M1632.4,832.4c0-0.3,0-0.6-0.1-0.9c-0.3-1.3-1.4-2.4-3-2.4
				c-2.1,0-3.4,1.9-3.4,4.4c0,2.3,1.1,4.2,3.4,4.2c1.4,0,2.7-0.9,3-2.5c0.1-0.3,0.1-0.6,0.1-0.9V832.4z"/>
			<path class="st0" d="M1647.4,836c0,1.2,0,2.2,0.1,3.1h-1.8l-0.1-1.9h0c-0.5,0.9-1.7,2.1-3.8,2.1c-1.8,0-3.9-1-3.9-5v-6.6h2.1v6.3
				c0,2.2,0.7,3.6,2.5,3.6c1.4,0,2.3-1,2.7-1.9c0.1-0.3,0.2-0.7,0.2-1.1v-7h2.1V836z"/>
			<path class="st0" d="M1650.5,837c0.6,0.4,1.7,0.8,2.7,0.8c1.5,0,2.2-0.7,2.2-1.7c0-1-0.6-1.5-2.1-2.1c-2-0.7-3-1.9-3-3.2
				c0-1.8,1.5-3.3,3.9-3.3c1.1,0,2.2,0.3,2.8,0.7l-0.5,1.5c-0.4-0.3-1.3-0.7-2.3-0.7c-1.2,0-1.9,0.7-1.9,1.5c0,0.9,0.7,1.4,2.2,1.9
				c2,0.8,3,1.7,3,3.4c0,2-1.5,3.4-4.2,3.4c-1.2,0-2.4-0.3-3.2-0.8L1650.5,837z"/>
			<path class="st0" d="M1662.6,824.5v3.3h3v1.6h-3v6.1c0,1.4,0.4,2.2,1.5,2.2c0.5,0,0.9-0.1,1.2-0.1l0.1,1.5
				c-0.4,0.2-1,0.3-1.8,0.3c-1,0-1.7-0.3-2.2-0.9c-0.6-0.6-0.8-1.6-0.8-3v-6.2h-1.8v-1.6h1.8V825L1662.6,824.5z"/>
			<path class="st0" d="M1667.9,831.3c0-1.3,0-2.5-0.1-3.5h1.8l0.1,2.2h0.1c0.5-1.5,1.8-2.5,3.1-2.5c0.2,0,0.4,0,0.6,0.1v1.9
				c-0.2,0-0.4-0.1-0.7-0.1c-1.5,0-2.5,1.1-2.8,2.7c0,0.3-0.1,0.6-0.1,1v6.1h-2V831.3z"/>
			<path class="st0" d="M1676.9,827.8l2.5,6.7c0.3,0.7,0.5,1.6,0.7,2.3h0c0.2-0.7,0.4-1.5,0.7-2.4l2.3-6.7h2.2l-3.1,8.1
				c-1.5,3.9-2.5,5.9-3.9,7.1c-1,0.9-2,1.2-2.5,1.3l-0.5-1.7c0.5-0.2,1.2-0.5,1.8-1c0.6-0.4,1.3-1.2,1.7-2.3
				c0.1-0.2,0.2-0.4,0.2-0.5c0-0.1,0-0.3-0.1-0.5l-4.2-10.5H1676.9z"/>
		</g>
	</g>
	<g>
		<g>
			<path class="st0" d="M1335.3,843h-6.1v5.7h6.9v1.7h-8.9v-15.8h8.5v1.7h-6.5v5h6.1V843z"/>
			<path class="st0" d="M1338.6,842.1c0-1.2,0-2.1-0.1-3.1h1.8l0.1,1.9h0c0.6-1.1,1.9-2.1,3.8-2.1c1.6,0,4,0.9,4,4.8v6.8h-2.1v-6.5
				c0-1.8-0.7-3.4-2.6-3.4c-1.4,0-2.4,1-2.8,2.1c-0.1,0.3-0.1,0.6-0.1,1v6.8h-2.1V842.1z"/>
			<path class="st0" d="M1352.8,845.1c0,2.8,1.8,3.9,3.9,3.9c1.5,0,2.4-0.3,3.1-0.6l0.4,1.5c-0.7,0.3-2,0.7-3.8,0.7
				c-3.5,0-5.6-2.3-5.6-5.7s2-6.1,5.3-6.1c3.7,0,4.7,3.3,4.7,5.3c0,0.4,0,0.8-0.1,1H1352.8z M1358.8,843.6c0-1.3-0.5-3.4-2.9-3.4
				c-2.1,0-3,1.9-3.2,3.4H1358.8z"/>
			<path class="st0" d="M1363.4,842.6c0-1.3,0-2.5-0.1-3.5h1.8l0.1,2.2h0.1c0.5-1.5,1.8-2.5,3.1-2.5c0.2,0,0.4,0,0.6,0.1v1.9
				c-0.2,0-0.4-0.1-0.7-0.1c-1.5,0-2.5,1.1-2.8,2.7c0,0.3-0.1,0.6-0.1,1v6.1h-2V842.6z"/>
			<path class="st0" d="M1380.6,839.1c0,0.8-0.1,1.7-0.1,3.1v6.6c0,2.6-0.5,4.2-1.6,5.2c-1.1,1-2.7,1.4-4.1,1.4
				c-1.4,0-2.9-0.3-3.8-0.9l0.5-1.6c0.7,0.5,1.9,0.9,3.3,0.9c2.1,0,3.7-1.1,3.7-4v-1.3h0c-0.6,1.1-1.9,1.9-3.6,1.9
				c-2.8,0-4.8-2.4-4.8-5.5c0-3.8,2.5-6,5.1-6c2,0,3,1,3.5,2h0l0.1-1.7H1380.6z M1378.5,843.5c0-0.4,0-0.7-0.1-0.9
				c-0.4-1.2-1.4-2.2-2.9-2.2c-2,0-3.4,1.7-3.4,4.3c0,2.2,1.1,4.1,3.4,4.1c1.3,0,2.4-0.8,2.9-2.1c0.1-0.4,0.2-0.8,0.2-1.1V843.5z"/>
			<path class="st0" d="M1384.7,839.1l2.5,6.7c0.3,0.7,0.5,1.6,0.7,2.3h0c0.2-0.7,0.4-1.5,0.7-2.4l2.3-6.7h2.2l-3.1,8.1
				c-1.5,3.9-2.5,5.9-3.9,7.1c-1,0.9-2,1.2-2.5,1.3l-0.5-1.7c0.5-0.2,1.2-0.5,1.8-1c0.6-0.4,1.3-1.2,1.7-2.3
				c0.1-0.2,0.2-0.4,0.2-0.5c0-0.1,0-0.3-0.1-0.5l-4.2-10.5H1384.7z"/>
		</g>
	</g>
	<rect x="1293.6" y="909.6" class="st4" width="14.7" height="84.6"/>
	<g>
		<g>
			<path class="st0" d="M1327.5,929c0.9-0.2,2.3-0.3,3.7-0.3c2,0,3.4,0.4,4.3,1.1c0.8,0.6,1.3,1.5,1.3,2.8c0,1.5-1,2.9-2.7,3.5v0
				c1.5,0.4,3.3,1.6,3.3,4c0,1.4-0.5,2.4-1.3,3.2c-1.1,1-2.9,1.5-5.5,1.5c-1.4,0-2.5-0.1-3.2-0.2V929z M1329.5,935.5h1.9
				c2.2,0,3.4-1.1,3.4-2.7c0-1.9-1.4-2.6-3.5-2.6c-0.9,0-1.5,0.1-1.8,0.1V935.5z M1329.5,943.1c0.4,0.1,1,0.1,1.7,0.1
				c2.1,0,4.1-0.8,4.1-3.1c0-2.2-1.9-3.1-4.1-3.1h-1.7V943.1z"/>
			<path class="st0" d="M1349.6,941.5c0,1.2,0,2.2,0.1,3.1h-1.8l-0.1-1.9h0c-0.5,0.9-1.7,2.1-3.8,2.1c-1.8,0-3.9-1-3.9-5v-6.6h2.1
				v6.3c0,2.2,0.7,3.6,2.5,3.6c1.4,0,2.3-1,2.7-1.9c0.1-0.3,0.2-0.7,0.2-1.1v-7h2.1V941.5z"/>
			<path class="st0" d="M1355.3,930.1c0,0.7-0.5,1.3-1.3,1.3c-0.7,0-1.2-0.6-1.2-1.3c0-0.7,0.5-1.3,1.3-1.3
				C1354.9,928.8,1355.3,929.4,1355.3,930.1z M1353,944.6v-11.4h2.1v11.4H1353z"/>
			<path class="st0" d="M1358.5,928h2.1v16.7h-2.1V928z"/>
			<path class="st0" d="M1373.9,928v13.7c0,1,0,2.2,0.1,2.9h-1.9l-0.1-2h0c-0.6,1.3-2,2.2-3.9,2.2c-2.7,0-4.9-2.3-4.9-5.8
				c0-3.8,2.3-6.1,5.1-6.1c1.7,0,2.9,0.8,3.4,1.7h0V928H1373.9z M1371.8,937.9c0-0.3,0-0.6-0.1-0.9c-0.3-1.3-1.4-2.4-3-2.4
				c-2.1,0-3.4,1.9-3.4,4.4c0,2.3,1.1,4.2,3.4,4.2c1.4,0,2.7-0.9,3-2.5c0.1-0.3,0.1-0.6,0.1-0.9V937.9z"/>
			<path class="st0" d="M1379.6,930.1c0,0.7-0.5,1.3-1.3,1.3c-0.7,0-1.2-0.6-1.2-1.3c0-0.7,0.5-1.3,1.3-1.3
				C1379.1,928.8,1379.6,929.4,1379.6,930.1z M1377.3,944.6v-11.4h2.1v11.4H1377.3z"/>
			<path class="st0" d="M1382.8,936.4c0-1.2,0-2.1-0.1-3.1h1.8l0.1,1.9h0c0.6-1.1,1.9-2.1,3.8-2.1c1.6,0,4,0.9,4,4.8v6.8h-2.1v-6.5
				c0-1.8-0.7-3.4-2.6-3.4c-1.4,0-2.4,1-2.8,2.1c-0.1,0.3-0.1,0.6-0.1,1v6.8h-2.1V936.4z"/>
			<path class="st0" d="M1405.6,933.3c0,0.8-0.1,1.7-0.1,3.1v6.6c0,2.6-0.5,4.2-1.6,5.2c-1.1,1-2.7,1.4-4.1,1.4
				c-1.4,0-2.9-0.3-3.8-0.9l0.5-1.6c0.7,0.5,1.9,0.9,3.3,0.9c2.1,0,3.7-1.1,3.7-4v-1.3h0c-0.6,1.1-1.9,1.9-3.6,1.9
				c-2.8,0-4.8-2.4-4.8-5.5c0-3.8,2.5-6,5.1-6c2,0,3,1,3.5,2h0l0.1-1.7H1405.6z M1403.5,937.8c0-0.4,0-0.7-0.1-0.9
				c-0.4-1.2-1.4-2.2-2.9-2.2c-2,0-3.4,1.7-3.4,4.3c0,2.2,1.1,4.1,3.4,4.1c1.3,0,2.4-0.8,2.9-2.1c0.1-0.4,0.2-0.8,0.2-1.1V937.8z"/>
			<path class="st0" d="M1411.1,928.8v6.6h7.6v-6.6h2.1v15.8h-2.1v-7.4h-7.6v7.4h-2v-15.8H1411.1z"/>
			<path class="st0" d="M1425.4,939.3c0,2.8,1.8,3.9,3.9,3.9c1.5,0,2.4-0.3,3.1-0.6l0.4,1.5c-0.7,0.3-2,0.7-3.8,0.7
				c-3.5,0-5.6-2.3-5.6-5.7s2-6.1,5.3-6.1c3.7,0,4.7,3.3,4.7,5.3c0,0.4,0,0.8-0.1,1H1425.4z M1431.5,937.9c0-1.3-0.5-3.4-2.9-3.4
				c-2.1,0-3,1.9-3.2,3.4H1431.5z"/>
			<path class="st0" d="M1442.3,944.6l-0.2-1.4h-0.1c-0.6,0.9-1.9,1.7-3.5,1.7c-2.3,0-3.5-1.6-3.5-3.3c0-2.7,2.4-4.2,6.8-4.2v-0.2
				c0-0.9-0.3-2.6-2.6-2.6c-1.1,0-2.2,0.3-3,0.8l-0.5-1.4c0.9-0.6,2.3-1,3.7-1c3.5,0,4.3,2.4,4.3,4.6v4.2c0,1,0,1.9,0.2,2.7H1442.3z
				 M1442,938.8c-2.3,0-4.8,0.4-4.8,2.6c0,1.3,0.9,2,1.9,2c1.5,0,2.4-0.9,2.7-1.9c0.1-0.2,0.1-0.4,0.1-0.7V938.8z"/>
			<path class="st0" d="M1449.7,930v3.3h3v1.6h-3v6.1c0,1.4,0.4,2.2,1.5,2.2c0.5,0,0.9-0.1,1.2-0.1l0.1,1.5c-0.4,0.2-1,0.3-1.8,0.3
				c-1,0-1.7-0.3-2.2-0.9c-0.6-0.6-0.8-1.6-0.8-3v-6.2h-1.8v-1.6h1.8v-2.7L1449.7,930z"/>
			<path class="st0" d="M1457.3,930.1c0,0.7-0.5,1.3-1.3,1.3c-0.7,0-1.2-0.6-1.2-1.3c0-0.7,0.5-1.3,1.3-1.3
				C1456.8,928.8,1457.3,929.4,1457.3,930.1z M1455,944.6v-11.4h2.1v11.4H1455z"/>
			<path class="st0" d="M1460.5,936.4c0-1.2,0-2.1-0.1-3.1h1.8l0.1,1.9h0c0.6-1.1,1.9-2.1,3.8-2.1c1.6,0,4,0.9,4,4.8v6.8h-2.1v-6.5
				c0-1.8-0.7-3.4-2.6-3.4c-1.4,0-2.4,1-2.8,2.1c-0.1,0.3-0.1,0.6-0.1,1v6.8h-2.1V936.4z"/>
			<path class="st0" d="M1483.3,933.3c0,0.8-0.1,1.7-0.1,3.1v6.6c0,2.6-0.5,4.2-1.6,5.2c-1.1,1-2.7,1.4-4.1,1.4
				c-1.4,0-2.9-0.3-3.8-0.9l0.5-1.6c0.7,0.5,1.9,0.9,3.3,0.9c2.1,0,3.7-1.1,3.7-4v-1.3h0c-0.6,1.1-1.9,1.9-3.6,1.9
				c-2.8,0-4.8-2.4-4.8-5.5c0-3.8,2.5-6,5.1-6c2,0,3,1,3.5,2h0l0.1-1.7H1483.3z M1481.2,937.8c0-0.4,0-0.7-0.1-0.9
				c-0.4-1.2-1.4-2.2-2.9-2.2c-2,0-3.4,1.7-3.4,4.3c0,2.2,1.1,4.1,3.4,4.1c1.3,0,2.4-0.8,2.9-2.1c0.1-0.4,0.2-0.8,0.2-1.1V937.8z"/>
		</g>
	</g>
	<g>
		<g>
			<path class="st0" d="M1337.4,973.5c-0.4-0.4-0.9-0.9-1.5-1.5c-1.4,1.3-2.9,1.8-4.6,1.8c-3.1,0-4.9-2.1-4.9-4.4
				c0-2.2,1.3-3.6,3.1-4.6v-0.1c-0.8-1-1.3-2.2-1.3-3.3c0-1.9,1.4-3.9,4-3.9c2,0,3.5,1.3,3.5,3.4c0,1.7-1,3-3.5,4.2v0.1
				c1.3,1.5,2.8,3.3,3.8,4.4c0.7-1.1,1.2-2.6,1.5-4.6h1.9c-0.4,2.5-1.1,4.5-2.3,5.8c0.8,0.9,1.7,1.8,2.6,2.8H1337.4z M1334.9,970.8
				c-0.9-1-2.7-3-4.5-5c-0.8,0.5-2,1.5-2,3.2c0,1.8,1.3,3.2,3.2,3.2C1333,972.3,1334.1,971.6,1334.9,970.8z M1330.1,961.2
				c0,1.1,0.5,2,1.2,2.8c1.6-0.9,2.6-1.8,2.6-3.1c0-1-0.5-2-1.8-2C1330.7,958.9,1330.1,960,1330.1,961.2z"/>
			<path class="st0" d="M1341.7,957.9c1-0.2,2.3-0.3,3.9-0.3c2,0,3.5,0.5,4.4,1.3c0.9,0.7,1.4,1.9,1.4,3.3c0,1.4-0.4,2.6-1.2,3.4
				c-1.1,1.1-2.8,1.7-4.8,1.7c-0.6,0-1.2,0-1.6-0.1v6.3h-2V957.9z M1343.7,965.5c0.4,0.1,1,0.2,1.7,0.2c2.5,0,4-1.2,4-3.4
				c0-2.1-1.5-3.1-3.7-3.1c-0.9,0-1.6,0.1-1.9,0.2V965.5z"/>
			<path class="st0" d="M1363.8,967.8c0,4.2-2.9,6-5.7,6c-3.1,0-5.4-2.3-5.4-5.8c0-3.8,2.5-6,5.6-6
				C1361.6,961.9,1363.8,964.3,1363.8,967.8z M1354.8,967.9c0,2.5,1.4,4.4,3.4,4.4c2,0,3.4-1.9,3.4-4.4c0-1.9-1-4.4-3.4-4.4
				C1355.8,963.5,1354.8,965.7,1354.8,967.9z"/>
			<path class="st0" d="M1367,962.2l1.5,5.8c0.3,1.3,0.6,2.4,0.8,3.6h0.1c0.3-1.1,0.6-2.4,1-3.6l1.9-5.8h1.7l1.8,5.7
				c0.4,1.4,0.7,2.6,1,3.7h0.1c0.2-1.1,0.5-2.3,0.9-3.7l1.6-5.7h2l-3.7,11.4h-1.9l-1.7-5.4c-0.4-1.3-0.7-2.4-1-3.7h0
				c-0.3,1.4-0.6,2.5-1,3.8l-1.8,5.4h-1.9l-3.4-11.4H1367z"/>
			<path class="st0" d="M1384.4,968.2c0,2.8,1.8,3.9,3.9,3.9c1.5,0,2.4-0.3,3.1-0.6l0.4,1.5c-0.7,0.3-2,0.7-3.8,0.7
				c-3.5,0-5.6-2.3-5.6-5.7s2-6.1,5.3-6.1c3.7,0,4.7,3.3,4.7,5.3c0,0.4,0,0.8-0.1,1H1384.4z M1390.5,966.8c0-1.3-0.5-3.4-2.9-3.4
				c-2.1,0-3,1.9-3.2,3.4H1390.5z"/>
			<path class="st0" d="M1395,965.7c0-1.3,0-2.5-0.1-3.5h1.8l0.1,2.2h0.1c0.5-1.5,1.8-2.5,3.1-2.5c0.2,0,0.4,0,0.6,0.1v1.9
				c-0.2,0-0.4-0.1-0.7-0.1c-1.5,0-2.5,1.1-2.8,2.7c0,0.3-0.1,0.6-0.1,1v6.1h-2V965.7z"/>
		</g>
	</g>
	<rect x="1572.3" y="819.6" class="st5" width="14.7" height="84.6"/>
	<g>
		<g>
			<path class="st0" d="M1609.2,855.5h-4.8v-1.7h11.7v1.7h-4.8v14.1h-2.1V855.5z"/>
			<path class="st0" d="M1616.7,861.7c0-1.3,0-2.5-0.1-3.5h1.8l0.1,2.2h0.1c0.5-1.5,1.8-2.5,3.1-2.5c0.2,0,0.4,0,0.6,0.1v1.9
				c-0.2,0-0.4-0.1-0.7-0.1c-1.5,0-2.5,1.1-2.8,2.7c0,0.3-0.1,0.6-0.1,1v6.1h-2V861.7z"/>
			<path class="st0" d="M1630.6,869.5l-0.2-1.4h-0.1c-0.6,0.9-1.9,1.7-3.5,1.7c-2.3,0-3.5-1.6-3.5-3.3c0-2.7,2.4-4.2,6.8-4.2v-0.2
				c0-0.9-0.3-2.6-2.6-2.6c-1.1,0-2.2,0.3-3,0.8l-0.5-1.4c0.9-0.6,2.3-1,3.7-1c3.5,0,4.3,2.4,4.3,4.6v4.2c0,1,0,1.9,0.2,2.7H1630.6z
				 M1630.3,863.7c-2.3,0-4.8,0.4-4.8,2.6c0,1.3,0.9,2,1.9,2c1.5,0,2.4-0.9,2.7-1.9c0.1-0.2,0.1-0.4,0.1-0.7V863.7z"/>
			<path class="st0" d="M1635.6,861.2c0-1.2,0-2.1-0.1-3.1h1.8l0.1,1.9h0c0.6-1.1,1.9-2.1,3.8-2.1c1.6,0,4,0.9,4,4.8v6.8h-2.1V863
				c0-1.8-0.7-3.4-2.6-3.4c-1.4,0-2.4,1-2.8,2.1c-0.1,0.3-0.1,0.6-0.1,1v6.8h-2.1V861.2z"/>
			<path class="st0" d="M1648.4,867.4c0.6,0.4,1.7,0.8,2.7,0.8c1.5,0,2.2-0.7,2.2-1.7c0-1-0.6-1.5-2.1-2.1c-2-0.7-3-1.9-3-3.2
				c0-1.8,1.5-3.3,3.9-3.3c1.1,0,2.2,0.3,2.8,0.7l-0.5,1.5c-0.4-0.3-1.3-0.7-2.3-0.7c-1.2,0-1.9,0.7-1.9,1.5c0,0.9,0.7,1.4,2.2,1.9
				c2,0.8,3,1.7,3,3.4c0,2-1.5,3.4-4.2,3.4c-1.2,0-2.4-0.3-3.2-0.8L1648.4,867.4z"/>
			<path class="st0" d="M1657.9,861.9c0-1.5,0-2.6-0.1-3.7h1.9l0.1,1.9h0c0.8-1.4,2.2-2.2,4-2.2c2.7,0,4.8,2.3,4.8,5.8
				c0,4.1-2.5,6.1-5.2,6.1c-1.5,0-2.8-0.7-3.5-1.8h0v6.2h-2V861.9z M1660,864.9c0,0.3,0,0.6,0.1,0.8c0.4,1.4,1.6,2.4,3.1,2.4
				c2.2,0,3.4-1.8,3.4-4.4c0-2.3-1.2-4.2-3.4-4.2c-1.4,0-2.7,1-3.1,2.6c-0.1,0.3-0.1,0.6-0.1,0.8V864.9z"/>
			<path class="st0" d="M1681.6,863.8c0,4.2-2.9,6-5.7,6c-3.1,0-5.4-2.3-5.4-5.8c0-3.8,2.5-6,5.6-6
				C1679.4,857.9,1681.6,860.3,1681.6,863.8z M1672.6,863.9c0,2.5,1.4,4.4,3.4,4.4c2,0,3.4-1.9,3.4-4.4c0-1.9-1-4.4-3.4-4.4
				C1673.6,859.5,1672.6,861.7,1672.6,863.9z"/>
			<path class="st0" d="M1684.2,861.7c0-1.3,0-2.5-0.1-3.5h1.8l0.1,2.2h0.1c0.5-1.5,1.8-2.5,3.1-2.5c0.2,0,0.4,0,0.6,0.1v1.9
				c-0.2,0-0.4-0.1-0.7-0.1c-1.5,0-2.5,1.1-2.8,2.7c0,0.3-0.1,0.6-0.1,1v6.1h-2V861.7z"/>
			<path class="st0" d="M1694.9,854.9v3.3h3v1.6h-3v6.1c0,1.4,0.4,2.2,1.5,2.2c0.5,0,0.9-0.1,1.2-0.1l0.1,1.5
				c-0.4,0.2-1,0.3-1.8,0.3c-1,0-1.7-0.3-2.2-0.9c-0.6-0.6-0.8-1.6-0.8-3v-6.2h-1.8v-1.6h1.8v-2.7L1694.9,854.9z"/>
			<path class="st0" d="M1706.5,869.5l-0.2-1.4h-0.1c-0.6,0.9-1.9,1.7-3.5,1.7c-2.3,0-3.5-1.6-3.5-3.3c0-2.7,2.4-4.2,6.8-4.2v-0.2
				c0-0.9-0.3-2.6-2.6-2.6c-1.1,0-2.2,0.3-3,0.8l-0.5-1.4c0.9-0.6,2.3-1,3.7-1c3.5,0,4.3,2.4,4.3,4.6v4.2c0,1,0,1.9,0.2,2.7H1706.5z
				 M1706.2,863.7c-2.3,0-4.8,0.4-4.8,2.6c0,1.3,0.9,2,1.9,2c1.5,0,2.4-0.9,2.7-1.9c0.1-0.2,0.1-0.4,0.1-0.7V863.7z"/>
			<path class="st0" d="M1713.9,854.9v3.3h3v1.6h-3v6.1c0,1.4,0.4,2.2,1.5,2.2c0.5,0,0.9-0.1,1.2-0.1l0.1,1.5
				c-0.4,0.2-1,0.3-1.8,0.3c-1,0-1.7-0.3-2.2-0.9c-0.6-0.6-0.8-1.6-0.8-3v-6.2h-1.8v-1.6h1.8v-2.7L1713.9,854.9z"/>
			<path class="st0" d="M1721.5,855c0,0.7-0.5,1.3-1.3,1.3c-0.7,0-1.2-0.6-1.2-1.3c0-0.7,0.5-1.3,1.3-1.3
				C1721,853.7,1721.5,854.3,1721.5,855z M1719.2,869.5v-11.4h2.1v11.4H1719.2z"/>
			<path class="st0" d="M1734.9,863.8c0,4.2-2.9,6-5.7,6c-3.1,0-5.4-2.3-5.4-5.8c0-3.8,2.5-6,5.6-6
				C1732.7,857.9,1734.9,860.3,1734.9,863.8z M1725.9,863.9c0,2.5,1.4,4.4,3.4,4.4c2,0,3.4-1.9,3.4-4.4c0-1.9-1-4.4-3.4-4.4
				C1727,859.5,1725.9,861.7,1725.9,863.9z"/>
			<path class="st0" d="M1737.6,861.2c0-1.2,0-2.1-0.1-3.1h1.8l0.1,1.9h0c0.6-1.1,1.9-2.1,3.8-2.1c1.6,0,4,0.9,4,4.8v6.8h-2.1V863
				c0-1.8-0.7-3.4-2.6-3.4c-1.4,0-2.4,1-2.8,2.1c-0.1,0.3-0.1,0.6-0.1,1v6.8h-2.1V861.2z"/>
		</g>
	</g>
	<g>
		<g>
			<path class="st0" d="M1616.1,898.4c-0.4-0.4-0.9-0.9-1.5-1.5c-1.4,1.3-2.9,1.8-4.6,1.8c-3.1,0-4.9-2.1-4.9-4.4
				c0-2.2,1.3-3.6,3.1-4.6v-0.1c-0.8-1-1.3-2.2-1.3-3.3c0-1.9,1.4-3.9,4-3.9c2,0,3.5,1.3,3.5,3.4c0,1.7-1,3-3.5,4.2v0.1
				c1.3,1.5,2.8,3.3,3.8,4.4c0.7-1.1,1.2-2.6,1.5-4.6h1.9c-0.4,2.5-1.1,4.5-2.3,5.8c0.8,0.9,1.7,1.8,2.6,2.8H1616.1z M1613.6,895.7
				c-0.9-1-2.7-3-4.5-5c-0.8,0.5-2,1.5-2,3.2c0,1.8,1.3,3.2,3.2,3.2C1611.7,897.1,1612.9,896.5,1613.6,895.7z M1608.8,886.1
				c0,1.1,0.5,2,1.2,2.8c1.6-0.9,2.6-1.8,2.6-3.1c0-1-0.5-2-1.8-2C1609.5,883.8,1608.8,884.8,1608.8,886.1z"/>
			<path class="st0" d="M1633.7,891.5c-0.1-2.2-0.3-4.9-0.2-6.8h-0.1c-0.5,1.9-1.2,3.8-2,6l-2.8,7.7h-1.5l-2.6-7.5
				c-0.7-2.2-1.4-4.3-1.8-6.1h0c0,2-0.2,4.6-0.3,7l-0.4,6.8h-1.9l1.1-15.8h2.6l2.7,7.6c0.7,1.9,1.2,3.7,1.6,5.3h0.1
				c0.4-1.6,1-3.3,1.7-5.3l2.8-7.6h2.6l1,15.8h-2L1633.7,891.5z"/>
			<path class="st0" d="M1649.6,892.7c0,4.2-2.9,6-5.7,6c-3.1,0-5.4-2.3-5.4-5.8c0-3.8,2.5-6,5.6-6
				C1647.4,886.8,1649.6,889.2,1649.6,892.7z M1640.6,892.8c0,2.5,1.4,4.4,3.4,4.4c2,0,3.4-1.9,3.4-4.4c0-1.9-1-4.4-3.4-4.4
				C1641.7,888.4,1640.6,890.6,1640.6,892.8z"/>
			<path class="st0" d="M1652.1,898.4c0-0.8,0.1-1.9,0.1-2.9v-13.7h2v7.1h0c0.7-1.3,2-2.1,3.9-2.1c2.8,0,4.8,2.3,4.8,5.8
				c0,4.1-2.6,6.1-5.1,6.1c-1.6,0-3-0.6-3.8-2.1h-0.1l-0.1,1.9H1652.1z M1654.3,893.9c0,0.3,0,0.5,0.1,0.7c0.4,1.4,1.6,2.4,3.1,2.4
				c2.2,0,3.4-1.8,3.4-4.4c0-2.3-1.2-4.2-3.4-4.2c-1.4,0-2.7,1-3.1,2.5c0,0.2-0.1,0.5-0.1,0.8V893.9z"/>
			<path class="st0" d="M1667.9,883.9c0,0.7-0.5,1.3-1.3,1.3c-0.7,0-1.2-0.6-1.2-1.3c0-0.7,0.5-1.3,1.3-1.3
				C1667.4,882.6,1667.9,883.2,1667.9,883.9z M1665.6,898.4v-11.4h2.1v11.4H1665.6z"/>
			<path class="st0" d="M1671.1,881.8h2.1v16.7h-2.1V881.8z"/>
			<path class="st0" d="M1678.9,883.9c0,0.7-0.5,1.3-1.3,1.3c-0.7,0-1.2-0.6-1.2-1.3c0-0.7,0.5-1.3,1.3-1.3
				C1678.4,882.6,1678.9,883.2,1678.9,883.9z M1676.6,898.4v-11.4h2.1v11.4H1676.6z"/>
			<path class="st0" d="M1684.6,883.8v3.3h3v1.6h-3v6.1c0,1.4,0.4,2.2,1.5,2.2c0.5,0,0.9-0.1,1.2-0.1l0.1,1.5
				c-0.4,0.2-1,0.3-1.8,0.3c-1,0-1.7-0.3-2.2-0.9c-0.6-0.6-0.8-1.6-0.8-3v-6.2h-1.8v-1.6h1.8v-2.7L1684.6,883.8z"/>
			<path class="st0" d="M1690.8,887.1l2.5,6.7c0.3,0.7,0.5,1.6,0.7,2.3h0c0.2-0.7,0.4-1.5,0.7-2.4l2.3-6.7h2.2l-3.1,8.1
				c-1.5,3.9-2.5,5.9-3.9,7.1c-1,0.9-2,1.2-2.5,1.3l-0.5-1.7c0.5-0.2,1.2-0.5,1.8-1c0.6-0.4,1.3-1.2,1.7-2.3
				c0.1-0.2,0.2-0.4,0.2-0.5c0-0.1,0-0.3-0.1-0.5l-4.2-10.5H1690.8z"/>
		</g>
	</g>
	<rect x="1572.3" y="912.2" class="st6" width="14.7" height="84.6"/>
	<g>
		<g>
			<path class="st0" d="M1606.2,925.4c1-0.2,2.3-0.3,3.9-0.3c2,0,3.5,0.5,4.4,1.3c0.9,0.7,1.4,1.9,1.4,3.3c0,1.4-0.4,2.6-1.2,3.4
				c-1.1,1.1-2.8,1.7-4.8,1.7c-0.6,0-1.2,0-1.6-0.1v6.3h-2V925.4z M1608.2,933c0.4,0.1,1,0.2,1.7,0.2c2.5,0,4-1.2,4-3.4
				c0-2.1-1.5-3.1-3.7-3.1c-0.9,0-1.6,0.1-1.9,0.2V933z"/>
			<path class="st0" d="M1628.3,935.2c0,4.2-2.9,6-5.7,6c-3.1,0-5.4-2.3-5.4-5.8c0-3.8,2.5-6,5.6-6
				C1626.1,929.4,1628.3,931.7,1628.3,935.2z M1619.3,935.3c0,2.5,1.4,4.4,3.4,4.4c2,0,3.4-1.9,3.4-4.4c0-1.9-1-4.4-3.4-4.4
				C1620.4,930.9,1619.3,933.2,1619.3,935.3z"/>
			<path class="st0" d="M1631.6,929.6l1.5,5.8c0.3,1.3,0.6,2.4,0.8,3.6h0.1c0.3-1.1,0.6-2.4,1-3.6l1.9-5.8h1.7l1.8,5.7
				c0.4,1.4,0.7,2.6,1,3.7h0.1c0.2-1.1,0.5-2.3,0.9-3.7l1.6-5.7h2l-3.7,11.4h-1.9l-1.7-5.4c-0.4-1.3-0.7-2.4-1-3.7h0
				c-0.3,1.4-0.6,2.5-1,3.8l-1.8,5.4h-1.9l-3.4-11.4H1631.6z"/>
			<path class="st0" d="M1648.9,935.7c0,2.8,1.8,3.9,3.9,3.9c1.5,0,2.4-0.3,3.1-0.6l0.4,1.5c-0.7,0.3-2,0.7-3.8,0.7
				c-3.5,0-5.6-2.3-5.6-5.7s2-6.1,5.3-6.1c3.7,0,4.7,3.3,4.7,5.3c0,0.4,0,0.8-0.1,1H1648.9z M1655,934.2c0-1.3-0.5-3.4-2.9-3.4
				c-2.1,0-3,1.9-3.2,3.4H1655z"/>
			<path class="st0" d="M1659.6,933.2c0-1.3,0-2.5-0.1-3.5h1.8l0.1,2.2h0.1c0.5-1.5,1.8-2.5,3.1-2.5c0.2,0,0.4,0,0.6,0.1v1.9
				c-0.2,0-0.4-0.1-0.7-0.1c-1.5,0-2.5,1.1-2.8,2.7c0,0.3-0.1,0.6-0.1,1v6.1h-2V933.2z"/>
		</g>
	</g>
	<g>
		<g>
			<path class="st0" d="M1618.2,969.2c-0.9,0.3-2.7,0.9-4.9,0.9c-2.4,0-4.4-0.6-5.9-2.1c-1.4-1.3-2.2-3.4-2.2-5.9
				c0-4.7,3.3-8.2,8.6-8.2c1.8,0,3.3,0.4,3.9,0.7l-0.5,1.7c-0.8-0.4-1.9-0.7-3.5-0.7c-3.8,0-6.4,2.4-6.4,6.4c0,4,2.4,6.4,6.1,6.4
				c1.3,0,2.3-0.2,2.7-0.4v-4.7h-3.2v-1.6h5.2V969.2z"/>
			<path class="st0" d="M1622.6,964.6c0,2.8,1.8,3.9,3.9,3.9c1.5,0,2.4-0.3,3.1-0.6l0.4,1.5c-0.7,0.3-2,0.7-3.8,0.7
				c-3.5,0-5.6-2.3-5.6-5.7s2-6.1,5.3-6.1c3.7,0,4.7,3.3,4.7,5.3c0,0.4,0,0.8-0.1,1H1622.6z M1628.6,963.1c0-1.3-0.5-3.4-2.9-3.4
				c-2.1,0-3,1.9-3.2,3.4H1628.6z"/>
			<path class="st0" d="M1633.2,961.6c0-1.2,0-2.1-0.1-3.1h1.8l0.1,1.9h0c0.6-1.1,1.9-2.1,3.8-2.1c1.6,0,4,0.9,4,4.8v6.8h-2.1v-6.5
				c0-1.8-0.7-3.4-2.6-3.4c-1.4,0-2.4,1-2.8,2.1c-0.1,0.3-0.1,0.6-0.1,1v6.8h-2.1V961.6z"/>
			<path class="st0" d="M1647.3,964.6c0,2.8,1.8,3.9,3.9,3.9c1.5,0,2.4-0.3,3.1-0.6l0.4,1.5c-0.7,0.3-2,0.7-3.8,0.7
				c-3.5,0-5.6-2.3-5.6-5.7s2-6.1,5.3-6.1c3.7,0,4.7,3.3,4.7,5.3c0,0.4,0,0.8-0.1,1H1647.3z M1653.4,963.1c0-1.3-0.5-3.4-2.9-3.4
				c-2.1,0-3,1.9-3.2,3.4H1653.4z"/>
			<path class="st0" d="M1658,962.1c0-1.3,0-2.5-0.1-3.5h1.8l0.1,2.2h0.1c0.5-1.5,1.8-2.5,3.1-2.5c0.2,0,0.4,0,0.6,0.1v1.9
				c-0.2,0-0.4-0.1-0.7-0.1c-1.5,0-2.5,1.1-2.8,2.7c0,0.3-0.1,0.6-0.1,1v6.1h-2V962.1z"/>
			<path class="st0" d="M1671.8,969.9l-0.2-1.4h-0.1c-0.6,0.9-1.9,1.7-3.5,1.7c-2.3,0-3.5-1.6-3.5-3.3c0-2.7,2.4-4.2,6.8-4.2v-0.2
				c0-0.9-0.3-2.6-2.6-2.6c-1.1,0-2.2,0.3-3,0.8l-0.5-1.4c0.9-0.6,2.3-1,3.7-1c3.5,0,4.3,2.4,4.3,4.6v4.2c0,1,0,1.9,0.2,2.7H1671.8z
				 M1671.5,964.1c-2.3,0-4.8,0.4-4.8,2.6c0,1.3,0.9,2,1.9,2c1.5,0,2.4-0.9,2.7-1.9c0.1-0.2,0.1-0.4,0.1-0.7V964.1z"/>
			<path class="st0" d="M1679.2,955.3v3.3h3v1.6h-3v6.1c0,1.4,0.4,2.2,1.5,2.2c0.5,0,0.9-0.1,1.2-0.1l0.1,1.5
				c-0.4,0.2-1,0.3-1.8,0.3c-1,0-1.7-0.3-2.2-0.9c-0.6-0.6-0.8-1.6-0.8-3v-6.2h-1.8v-1.6h1.8v-2.7L1679.2,955.3z"/>
			<path class="st0" d="M1686.8,955.3c0,0.7-0.5,1.3-1.3,1.3c-0.7,0-1.2-0.6-1.2-1.3c0-0.7,0.5-1.3,1.3-1.3
				C1686.3,954,1686.8,954.6,1686.8,955.3z M1684.5,969.9v-11.4h2.1v11.4H1684.5z"/>
			<path class="st0" d="M1700.3,964.1c0,4.2-2.9,6-5.7,6c-3.1,0-5.4-2.3-5.4-5.8c0-3.8,2.5-6,5.6-6
				C1698.1,958.3,1700.3,960.6,1700.3,964.1z M1691.3,964.2c0,2.5,1.4,4.4,3.4,4.4c2,0,3.4-1.9,3.4-4.4c0-1.9-1-4.4-3.4-4.4
				C1692.3,959.8,1691.3,962.1,1691.3,964.2z"/>
			<path class="st0" d="M1702.9,961.6c0-1.2,0-2.1-0.1-3.1h1.8l0.1,1.9h0c0.6-1.1,1.9-2.1,3.8-2.1c1.6,0,4,0.9,4,4.8v6.8h-2.1v-6.5
				c0-1.8-0.7-3.4-2.6-3.4c-1.4,0-2.4,1-2.8,2.1c-0.1,0.3-0.1,0.6-0.1,1v6.8h-2.1V961.6z"/>
		</g>
	</g>
	<g>
		<g>
			<path class="st7" d="M953.7,890.3c-21.1,0-42.1,0-63.2,0c0-19.7,0-39.4,0-59.1c21.1,0,42.1,0,63.2,0
				C953.7,850.9,953.7,870.6,953.7,890.3z M922.6,888.9c7.5,0,14.9,0,22.4,0c5.8,0,8.6-3.2,7.8-8.8c-0.3-1.8-0.9-3.5-1.6-5.2
				c-4.7-10.4-9.4-20.8-14.1-31.2c-1.2-2.6-2.3-5,0.6-7.5c1.6-1.4,0.9-3.5-1.5-3.5c-8.8-0.2-17.6-0.1-26.4,0c-2.2,0-2.9,2-1.6,3.3
				c3.1,2.9,1.7,5.7,0.4,8.6c-4.9,10.8-9.9,21.7-14.8,32.5c-3.1,6.9,0.1,11.9,7.6,11.9C908.4,889,915.5,888.9,922.6,888.9z"/>
			<path d="M922.6,888.9c-7.1,0-14.2,0-21.3,0c-7.5,0-10.7-5-7.6-11.9c4.9-10.9,9.8-21.7,14.8-32.5c1.3-2.9,2.7-5.6-0.4-8.6
				c-1.4-1.3-0.6-3.3,1.6-3.3c8.8-0.1,17.6-0.2,26.4,0c2.4,0,3,2.2,1.5,3.5c-2.9,2.5-1.7,5-0.6,7.5c4.7,10.4,9.4,20.8,14.1,31.2
				c0.7,1.6,1.4,3.4,1.6,5.2c0.8,5.7-1.9,8.8-7.8,8.8C937.5,889,930,888.9,922.6,888.9z M916.9,837.5c-1.9,4.9-3.3,9.3-5.2,13.6
				c-4.1,9.4-8.5,18.6-12.7,27.9c-1.5,3.4-0.7,4.9,3,4.9c13.9,0.1,27.9,0.1,41.8,0c3.7,0,4.4-1.4,2.9-4.9c-2.9-6.5-6-13.1-8.8-19.6
				c-3.1-7-6-14.1-9.2-21.8C925.2,837.5,920.6,837.5,916.9,837.5z"/>
			<path class="st7" d="M916.9,837.5c3.7,0,8.3,0,11.7,0c3.2,7.7,6.2,14.8,9.2,21.8c2.9,6.6,5.9,13.1,8.8,19.6
				c1.6,3.5,0.8,4.9-2.9,4.9c-13.9,0.1-27.9,0.1-41.8,0c-3.7,0-4.5-1.5-3-4.9c4.2-9.3,8.5-18.6,12.7-27.9
				C913.5,846.8,915,842.4,916.9,837.5z M913.2,860.4c0.3,4,0.6,7.5,0.9,11c1.2,12.8-0.8,11,12.6,11.1c0.5,0,1.1,0.1,1.4-0.1
				c0.9-0.7,2.4-1.4,2.5-2.3c0.7-6.5,1.1-13,1.6-19.6C925.7,860.4,919.7,860.4,913.2,860.4z M934.5,858.8c-1.5-1.3-2.1-2-2.9-2.5
				c-1.4-0.9-2.9-1.7-4.4-2.5c-0.7-0.4-1.4-0.8-2.2-1c-5.3-1.4-8.4,4.2-13.2,4.4c-0.1,0-0.2,0.8-0.4,1.6
				C918.8,858.8,926,858.8,934.5,858.8z"/>
			<path d="M913.2,860.4c6.5,0,12.5,0,19,0c-0.5,6.7-0.9,13.2-1.6,19.6c-0.1,0.9-1.5,1.6-2.5,2.3c-0.3,0.2-1,0.1-1.4,0.1
				c-13.4-0.1-11.4,1.7-12.6-11.1C913.8,867.9,913.5,864.4,913.2,860.4z M924.2,877.1c0.1,0,0.2,0,0.3,0c0-4.1,0-8.3,0-12.4
				c-0.1,0-0.2,0-0.3,0C924.2,868.8,924.2,873,924.2,877.1z"/>
			<path d="M934.5,858.8c-8.5,0-15.7,0-23.1,0c0.2-0.8,0.3-1.6,0.4-1.6c4.8-0.2,7.9-5.8,13.2-4.4c0.8,0.2,1.5,0.6,2.2,1
				c1.5,0.8,3,1.6,4.4,2.5C932.3,856.8,933,857.5,934.5,858.8z"/>
			<path class="st7" d="M924.2,877.1c0-4.1,0-8.3,0-12.4c0.1,0,0.2,0,0.3,0c0,4.1,0,8.3,0,12.4C924.4,877.1,924.3,877.1,924.2,877.1
				z"/>
		</g>
	</g>
	<g>
		<g>
			<path class="st7" d="M890.6,920c22.7,0,45.5,0,68.2,0c0,22.7,0,45.5,0,68.2c-22.7,0-45.5,0-68.2,0
				C890.6,965.5,890.6,942.8,890.6,920z M958.2,954.6c0-20.3-12.7-32.6-32.5-33.4c-17.1-0.7-33.8,14-33.7,33.2
				c0.1,20.2,17.2,33.8,33.7,33.4C945.2,987.2,958.2,974.4,958.2,954.6z"/>
			<path d="M958.2,954.6c0,19.8-13,32.6-32.5,33.2c-16.5,0.5-33.6-13.2-33.7-33.4c-0.1-19.2,16.6-33.9,33.7-33.2
				C945.5,922,958.2,934.3,958.2,954.6z M925.7,984.1c16.6,0,29.8-13.1,29.8-29.8c0-16.5-13.3-29.7-29.9-29.7
				c-16.3,0-29.6,13.3-29.6,29.6C895.9,970.8,909.1,984.1,925.7,984.1z"/>
			<path class="st7" d="M925.7,984.1c-16.6,0-29.8-13.3-29.7-29.8c0.1-16.3,13.3-29.6,29.6-29.6c16.6,0,29.9,13.2,29.9,29.7
				C955.4,971,942.3,984.1,925.7,984.1z M925.6,968.5c-0.5-5.3,4.2-6.2,6-9.1c1.3-2,2.5-4.8,2.2-6.9c-0.8-5.2-4.6-8.8-8.3-12.7
				c-1.7,2-3.1,3.6-4.4,5.2c-1,1.4-2,2.8-2.8,4.3c-2.2,4.2-1.8,7.3,1.5,10.6C922.2,962.3,925.9,963.6,925.6,968.5z M941.1,967
				c-4.7,6.3-12.9,9.2-20.7,7c-8.3-2.3-13.2-7.9-14.8-16.4c-0.2-1,0-2-0.4-2.9c-0.3-0.6-1.1-1.1-1.6-1.6c-0.5,0.6-1.2,1.2-1.4,1.8
				c-0.2,0.9,0,1.9,0.1,2.9c1.6,9.4,6.9,15.9,15.9,18.9c9,3,17.1,0.8,24-5.7c1.4-1.4,3.5-2.1,5.8-3.5c-0.4-1.6-1.2-4.2-2-7.3
				c-2.8,1.8-5,3.2-7.6,4.9C939.6,965.9,940.4,966.4,941.1,967z M910.1,941.1c6.4-6.8,13.6-9.3,22-6.6c8.4,2.6,13,8.7,14.2,17.4
				c0.1,0.6-0.1,1.3,0.2,1.8c0.3,0.6,1.1,1.4,1.4,1.3c0.6-0.2,1.5-0.9,1.6-1.5c0.2-1.2,0.1-2.5-0.2-3.6c-1.9-9.1-7.1-15.5-16-18.4
				c-8.9-2.9-16.8-0.7-23.7,5.6c-1.5,1.4-3.6,2.2-6,3.7c0.5,1.6,1.2,4.2,2.1,7.3c2.8-1.8,5.1-3.2,7.6-4.9
				C912,942.3,911.3,941.8,910.1,941.1z"/>
			<path d="M925.6,968.5c0.3-4.9-3.4-6.2-5.7-8.6c-3.3-3.3-3.7-6.4-1.5-10.6c0.8-1.5,1.8-2.9,2.8-4.3c1.2-1.6,2.6-3.2,4.4-5.2
				c3.7,3.9,7.5,7.5,8.3,12.7c0.3,2.2-0.9,4.9-2.2,6.9C929.8,962.3,925.1,963.3,925.6,968.5z M920.5,950.2c-0.4,0.4-0.9,0.7-1.3,1.1
				c1.6,1.8,3.2,3.5,4.8,5.3c0.4-0.3,0.7-0.6,1.1-0.9C923.6,953.9,922,952,920.5,950.2z M926.2,955.9c0.4,0.3,0.8,0.6,1.1,0.9
				c1.5-1.8,3.1-3.7,4.6-5.5c-0.4-0.3-0.8-0.6-1.2-0.9C929.2,952.2,927.7,954,926.2,955.9z"/>
			<path d="M941.1,967c-0.7-0.5-1.5-1.1-2.6-1.9c2.5-1.6,4.8-3.1,7.6-4.9c0.9,3.1,1.6,5.7,2,7.3c-2.4,1.4-4.4,2.1-5.8,3.5
				c-7,6.5-15,8.7-24,5.7c-9-3-14.3-9.5-15.9-18.9c-0.2-1-0.3-2-0.1-2.9c0.1-0.7,0.9-1.2,1.4-1.8c0.6,0.5,1.4,0.9,1.6,1.6
				c0.3,0.9,0.2,1.9,0.4,2.9c1.6,8.5,6.6,14.1,14.8,16.4C928.2,976.2,936.4,973.3,941.1,967z"/>
			<path d="M910.1,941.1c1.1,0.7,1.9,1.2,3.2,2c-2.6,1.7-4.9,3.1-7.6,4.9c-0.9-3.1-1.6-5.7-2.1-7.3c2.4-1.4,4.4-2.3,6-3.7
				c6.9-6.3,14.8-8.5,23.7-5.6c8.9,2.9,14.1,9.3,16,18.4c0.2,1.2,0.4,2.5,0.2,3.6c-0.1,0.6-0.9,1.3-1.6,1.5
				c-0.3,0.1-1.1-0.8-1.4-1.3c-0.3-0.5-0.1-1.2-0.2-1.8c-1.1-8.7-5.8-14.8-14.2-17.4C923.7,931.8,916.5,934.3,910.1,941.1z"/>
			<path class="st7" d="M920.5,950.2c1.5,1.8,3.1,3.7,4.6,5.5c-0.4,0.3-0.7,0.6-1.1,0.9c-1.6-1.8-3.2-3.5-4.8-5.3
				C919.6,950.9,920.1,950.6,920.5,950.2z"/>
			<path class="st7" d="M926.2,955.9c1.5-1.8,3.1-3.7,4.6-5.5c0.4,0.3,0.8,0.6,1.2,0.9c-1.5,1.8-3.1,3.7-4.6,5.5
				C927,956.5,926.6,956.2,926.2,955.9z"/>
		</g>
	</g>
	<rect x="890.6" y="920" class="st8" width="68.2" height="68.2"/>
	<rect x="890.6" y="920" class="st9" width="68.2" height="68.2"/>
	<g>
		<g>
			<path class="st7" d="M1206.5,890.8c0-21.2,0-42.4,0-63.7c22.9,0,45.8,0,68.8,0c0,21.2,0,42.4,0,63.7
				C1252.4,890.8,1229.5,890.8,1206.5,890.8z M1207.9,827.7c0.3,5.2,2.4,7.9,6,9.5c0.7,0.3,1.3,1.1,1.9,1.7c-0.7,0.3-1.4,1-2.1,0.9
				c-2.5-0.2-3.1,1.1-3.1,3.3c0.1,4.6,0.1,9.3,0,13.9c0,1-0.5,1.9-0.9,2.8c-0.6,1.3-1.8,2.5-1.8,3.8c-0.2,7.4,0.1,14.9-0.2,22.3
				c-0.1,3.4,1.2,4.1,4.2,4c19.4-0.1,38.8-0.1,58.3-0.1c1.2,0,2.4-0.1,3.8-0.2c0-9.1-0.1-17.8,0.1-26.6c0.1-2.5-0.9-3.7-2.9-4.8
				c-4-2.1-7.9-4.4-11.8-6.6c-4.1-2.3-4.5-2.1-4.6,2.8c0,1-0.1,2.1-0.2,3.5c-1.1-0.7-1.8-1.2-2.5-1.6c-5.4-2.9-8.9-6.9-7.4-13.7
				c0.5-2.2-0.7-3.1-2.9-3c-0.7,0-1.4-0.5-2.1-0.8c0.6-0.6,1.1-1.4,1.8-1.8c3.6-1.7,5.9-4.2,5.8-8.5c-3.8-1.4-6.7,0.2-8.4,1.8
				c-3.6-1.1-6.4-2-9.5-2.9c-1.2,6.8,4.4,8.4,8.1,11.7c-6.5,1.2-5.9-0.2-6,6.1c-0.1,4.7,0,9.4,0,14.3c-2.6,0-4.8,0-7.3,0
				c0-5.4-0.1-10.7,0-15.9c0.1-2.7-0.5-4.3-3.6-4c-0.5,0.1-1-0.3-2.5-0.8c4-3,9.2-4.6,8.1-11.5c-3.3,1.1-6.2,2.1-8.3,2.8
				C1214.3,829.5,1211.3,828.7,1207.9,827.7z"/>
			<path d="M1207.9,827.7c3.5,0.9,6.5,1.8,9.9,2.7c2.1-0.7,5-1.7,8.3-2.8c1.2,6.9-4.1,8.5-8.1,11.5c1.4,0.5,2,0.9,2.5,0.8
				c3.1-0.3,3.7,1.3,3.6,4c-0.1,5.2,0,10.4,0,15.9c2.5,0,4.7,0,7.3,0c0-4.8,0-9.5,0-14.3c0.1-6.3-0.5-4.9,6-6.1
				c-3.7-3.3-9.3-4.9-8.1-11.7c3.1,0.9,5.9,1.8,9.5,2.9c1.7-1.6,4.6-3.2,8.4-1.8c0.1,4.3-2.2,6.8-5.8,8.5c-0.7,0.3-1.2,1.2-1.8,1.8
				c0.7,0.3,1.4,0.9,2.1,0.8c2.2-0.1,3.4,0.9,2.9,3c-1.4,6.7,2,10.7,7.4,13.7c0.7,0.4,1.4,0.9,2.5,1.6c0.1-1.4,0.2-2.5,0.2-3.5
				c0.1-4.9,0.4-5.2,4.6-2.8c3.9,2.2,7.8,4.5,11.8,6.6c2,1.1,3,2.3,2.9,4.8c-0.2,8.8-0.1,17.5-0.1,26.6c-1.4,0.1-2.6,0.2-3.8,0.2
				c-19.4,0-38.8-0.1-58.3,0.1c-3.1,0-4.4-0.7-4.2-4c0.2-7.4,0-14.9,0.2-22.3c0-1.3,1.2-2.5,1.8-3.8c0.4-0.9,0.9-1.9,0.9-2.8
				c0.1-4.6,0.1-9.3,0-13.9c0-2.2,0.5-3.5,3.1-3.3c0.7,0,1.4-0.6,2.1-0.9c-0.6-0.6-1.2-1.4-1.9-1.7
				C1210.2,835.6,1208.2,832.9,1207.9,827.7z M1233.6,877.5c0.2-0.6,0.4-0.9,0.4-1.2c0.4-2.7-0.1-6.5,1.4-7.7
				c1.8-1.4,5.4-0.4,8.1-0.6c2.8-0.2,4.1,0.8,3.9,3.8c-0.1,1.9,0,3.8,0,5.7c2.5,0.3,4.5,1.2,4.8-2.1c0.6-7.3,0.7-7.3,8.3-7.3
				c0.5,0,1,0,1.5,0c2.6-0.2,3.9,0.7,3.7,3.5c-0.2,1.9,0,3.8,0,5.9c2.3,0,4.1,0,6.3,0c0-4.8,0.1-9.3-0.1-13.8c0-0.7-0.5-1.7-1.1-2.1
				c-4-2.4-8.2-4.7-12.9-7.4c0,2.2,0.1,3.8,0,5.3c-0.1,1-0.6,2-0.9,3c-1-0.3-2.1-0.5-2.9-1.1c-3-2.1-5.8-4.2-9.3-6.8
				c0,1.8-0.1,2.7,0,3.6c0.6,3.8-1.1,4.9-4.7,4.7c-5.6-0.3-11.2-0.1-16.8-0.1c-4,0-8,0-11.9,0c0,5.2,0,9.9,0,14.6c1.6,0,2.9,0,4.1,0
				c0.4-3.2-0.2-7.4,1.5-8.7c2.1-1.6,6-0.7,9.2-0.8c0.1,0,0.3-0.1,0.4,0c0.9,1,2.5,1.8,2.7,2.9c0.4,2.1,0.1,4.3,0.1,6.5
				C1231,877.5,1232.3,877.5,1233.6,877.5z M1229.4,887.4c14.1,0,28.1,0,42.2,0c0-2.3,0-4.3,0-6.5c-14.2,0-28.1,0-42.2,0
				C1229.4,882.9,1229.4,884.8,1229.4,887.4z M1226,887.5c0-5.5,0-10.8,0-16.2c-2.4,0-4.6,0-6.8,0c0,5.6,0,10.8,0,16.2
				C1221.5,887.5,1223.5,887.5,1226,887.5z M1213.9,847.8c0,4.1,0,8,0,11.9c2.5,0,4.7,0,6.9,0c0-4.2,0-8,0-11.9
				C1218.4,847.8,1216.3,847.8,1213.9,847.8z M1234.6,847.8c0,4.1,0,8,0,11.9c2.5,0,4.7,0,6.8,0c0-4.2,0-8,0-11.9
				C1239.1,847.8,1236.9,847.8,1234.6,847.8z M1262.4,871.3c-2.6,0-4.9,0-7.1,0c0,2.2,0,4.1,0,6.1c2.5,0,4.9,0,7.1,0
				C1262.4,875.1,1262.4,873.2,1262.4,871.3z M1244.2,877.7c0-2.4,0-4.4,0-6.4c-2.5,0-4.7,0-7,0c0,2.3,0,4.2,0,6.4
				C1239.6,877.7,1241.8,877.7,1244.2,877.7z M1215.7,880.9c-1.7,0-3.1,0-4.4,0c0,2.4,0,4.5,0,6.5c1.6,0,2.9,0,4.4,0
				C1215.7,885.2,1215.7,883.2,1215.7,880.9z M1221.8,844.4c-3.3-2.4-6.4-2.2-8,0C1216.3,844.4,1218.6,844.4,1221.8,844.4z
				 M1241.5,844.3c-2.8-2.4-5.7-2.1-6.9,0C1236.9,844.3,1239.2,844.3,1241.5,844.3z"/>
			<path class="st7" d="M1233.6,877.5c-1.3,0-2.5,0-4.3,0c0-2.2,0.3-4.5-0.1-6.5c-0.2-1.1-1.7-2-2.7-2.9c-0.1-0.1-0.2,0-0.4,0
				c-3.1,0.2-7.1-0.8-9.2,0.8c-1.7,1.3-1.1,5.5-1.5,8.7c-1.2,0-2.5,0-4.1,0c0-4.7,0-9.4,0-14.6c3.9,0,7.9,0,11.9,0
				c5.6,0,11.2-0.2,16.8,0.1c3.6,0.2,5.3-0.9,4.7-4.7c-0.1-0.9,0-1.9,0-3.6c3.5,2.6,6.3,4.8,9.3,6.8c0.8,0.6,1.9,0.7,2.9,1.1
				c0.3-1,0.8-2,0.9-3c0.1-1.5,0-3.1,0-5.3c4.7,2.7,8.8,4.9,12.9,7.4c0.6,0.4,1.1,1.4,1.1,2.1c0.1,4.5,0.1,9,0.1,13.8
				c-2.2,0-4,0-6.3,0c0-2.1-0.1-4,0-5.9c0.2-2.8-1-3.8-3.7-3.5c-0.5,0-1,0-1.5,0c-7.6,0-7.7,0-8.3,7.3c-0.3,3.3-2.3,2.4-4.8,2.1
				c0-1.9-0.1-3.8,0-5.7c0.2-2.9-1.1-4-3.9-3.8c-2.8,0.2-6.4-0.8-8.1,0.6c-1.5,1.2-1,5-1.4,7.7C1234,876.7,1233.8,877,1233.6,877.5z
				"/>
			<path class="st7" d="M1229.4,887.4c0-2.5,0-4.4,0-6.5c14.1,0,28.1,0,42.2,0c0,2.2,0,4.2,0,6.5
				C1257.5,887.4,1243.5,887.4,1229.4,887.4z M1255.1,883.9c-3.7-2.1-14-1.7-15.6,0.5C1242.6,886.3,1252.6,886.1,1255.1,883.9z"/>
			<path class="st7" d="M1226,887.5c-2.5,0-4.5,0-6.8,0c0-5.4,0-10.6,0-16.2c2.2,0,4.4,0,6.8,0C1226,876.7,1226,881.9,1226,887.5z"
				/>
			<path class="st7" d="M1213.9,847.8c2.3,0,4.5,0,6.9,0c0,3.9,0,7.7,0,11.9c-2.1,0-4.3,0-6.9,0
				C1213.9,855.8,1213.9,851.9,1213.9,847.8z"/>
			<path class="st7" d="M1234.6,847.8c2.3,0,4.4,0,6.8,0c0,3.9,0,7.7,0,11.9c-2.1,0-4.3,0-6.8,0
				C1234.6,855.8,1234.6,851.9,1234.6,847.8z"/>
			<path class="st7" d="M1262.4,871.3c0,1.9,0,3.8,0,6.1c-2.2,0-4.5,0-7.1,0c0-2,0-3.9,0-6.1
				C1257.6,871.3,1259.9,871.3,1262.4,871.3z"/>
			<path class="st7" d="M1244.2,877.7c-2.4,0-4.6,0-7,0c0-2.2,0-4.2,0-6.4c2.2,0,4.5,0,7,0C1244.2,873.2,1244.2,875.2,1244.2,877.7z
				"/>
			<path class="st7" d="M1215.7,880.9c0,2.3,0,4.3,0,6.5c-1.5,0-2.8,0-4.4,0c0-2,0-4.2,0-6.5C1212.6,880.9,1214,880.9,1215.7,880.9z
				"/>
			<path class="st7" d="M1221.8,844.4c-3.3,0-5.6,0-8,0C1215.4,842.2,1218.5,842,1221.8,844.4z"/>
			<path class="st7" d="M1241.5,844.3c-2.3,0-4.6,0-6.9,0C1235.8,842.2,1238.7,842,1241.5,844.3z"/>
			<path d="M1255.1,883.9c-2.5,2.1-12.5,2.3-15.6,0.5C1241,882.2,1251.4,881.8,1255.1,883.9z"/>
		</g>
	</g>
	<rect x="1206.5" y="827.1" class="st8" width="68.8" height="63.7"/>
	<rect x="1206.5" y="827.1" class="st9" width="68.8" height="63.7"/>
	<g>
		<g>
			<path class="st7" d="M1277,987.7c-22.4,0-44.9,0-67.4,0c0-22.2,0-44.4,0-66.6c22.4,0,44.9,0,67.4,0
				C1277,943.3,1277,965.5,1277,987.7z M1211.5,939.1c1.5-0.4,3.1-0.6,4.5-1.3c5.4-2.7,10.6-5.6,16-8.1c1.4-0.6,3.5-0.6,4.9,0
				c5.4,2.5,10.6,5.4,16,8.2c2,1,4.3,2.2,5.7-0.5c1.3-2.5-0.5-4-2.7-5.1c-6-3-12-6.1-17.8-9.3c-2.6-1.4-5-1.3-7.6,0.1
				c-5.2,2.9-10.5,5.8-15.9,8.2C1211.1,932.9,1210.1,935,1211.5,939.1z M1234.1,970.8c6.5,0,13,0,19.5,0c2,0,3.6-0.3,3.7-2.9
				c0.1-2.7-1.4-3.3-3.7-3.3c-12.7,0-25.5,0-38.2,0c-2.2,0-3.9,0.3-3.9,3.1c0,2.8,1.7,3.1,3.9,3.1
				C1221.6,970.8,1227.9,970.8,1234.1,970.8z M1261,984.8c0.2,0.1,0.4,0.2,0.6,0.3c4.2-5.1,8.3-10.2,13-15.9c-3.2,0-5.4,0-7.9,0
				c1.2-3.7,2.3-7.1,3.5-10.4c-0.2-0.1-0.5-0.2-0.7-0.3c-4.1,5-8.3,10-12.8,15.6c3,0.2,5.2,0.4,7.6,0.5
				C1263.2,978.2,1262.1,981.5,1261,984.8z M1249.9,945c-0.8-1.9-1.3-3.8-2.4-5.3c-0.5-0.7-2-0.6-3.1-0.8c-0.2,1-0.9,2.2-0.5,2.8
				c1.7,2.9,0.9,5.3-0.6,7.8c-2,3.4-2.3,7,0,10.3c0.6,0.8,2.2,0.9,3.3,1.3c0.2-1.2,0.4-2.3,0.5-3.5c0.2-2.1,0-4.4,0.4-6.4
				C1248,949.2,1249.1,947.2,1249.9,945z M1230,955c0.8,1.9,1.4,3.8,2.5,5.3c0.5,0.7,2,0.5,3.1,0.8c0.2-1,0.8-2.2,0.4-2.9
				c-1.8-2.9-0.9-5.3,0.6-7.8c1.9-3.2,2.4-6.7,0.1-10c-0.6-0.9-2.3-1.1-3.5-1.6c-0.1,1.2-0.3,2.3-0.4,3.5c-0.1,2.1,0.1,4.2-0.3,6.1
				C1232.1,950.6,1231,952.7,1230,955z M1227.3,944.9c-0.7-1.6-1.4-3.7-2.5-5.4c-0.4-0.6-2-0.7-2.8-0.4c-0.5,0.2-1,1.9-0.7,2.4
				c2.3,3.2,0.8,5.9-0.8,8.8c-1.8,3.3-1.9,6.8,0.5,9.9c0.6,0.7,2,1,3.1,1c0.3,0,1.2-1.9,0.9-2.3c-2.5-3.5-0.7-6.4,0.9-9.4
				C1226.5,948.1,1226.7,946.8,1227.3,944.9z"/>
			<path d="M1211.5,939.1c-1.4-4.1-0.3-6.2,3.1-7.8c5.4-2.5,10.7-5.4,15.9-8.2c2.6-1.4,4.9-1.5,7.6-0.1c5.9,3.2,11.9,6.3,17.8,9.3
				c2.2,1.1,4,2.5,2.7,5.1c-1.4,2.7-3.7,1.5-5.7,0.5c-5.3-2.7-10.5-5.6-16-8.2c-1.4-0.6-3.6-0.7-4.9,0c-5.4,2.5-10.6,5.5-16,8.1
				C1214.6,938.4,1213,938.6,1211.5,939.1z"/>
			<path d="M1234.1,970.8c-6.2,0-12.5,0-18.7,0c-2.2,0-3.9-0.2-3.9-3.1c0-2.8,1.7-3.1,3.9-3.1c12.7,0,25.5,0,38.2,0
				c2.3,0,3.8,0.6,3.7,3.3c-0.1,2.6-1.7,2.9-3.7,2.9C1247.1,970.8,1240.6,970.8,1234.1,970.8z"/>
			<path d="M1261,984.8c1.1-3.3,2.2-6.6,3.4-10.2c-2.4-0.2-4.7-0.3-7.6-0.5c4.6-5.6,8.7-10.6,12.8-15.6c0.2,0.1,0.5,0.2,0.7,0.3
				c-1.1,3.4-2.2,6.7-3.5,10.4c2.5,0,4.7,0,7.9,0c-4.7,5.7-8.9,10.8-13,15.9C1261.5,985.1,1261.2,984.9,1261,984.8z"/>
			<path d="M1249.9,945c-0.9,2.2-1.9,4.2-2.4,6.2c-0.4,2.1-0.2,4.3-0.4,6.4c-0.1,1.2-0.3,2.3-0.5,3.5c-1.1-0.4-2.7-0.5-3.3-1.3
				c-2.3-3.3-2-6.9,0-10.3c1.5-2.6,2.4-5,0.6-7.8c-0.4-0.6,0.3-1.9,0.5-2.8c1.1,0.3,2.6,0.2,3.1,0.8
				C1248.6,941.3,1249.1,943.2,1249.9,945z"/>
			<path d="M1230,955c0.9-2.3,2-4.4,2.5-6.5c0.5-2,0.2-4.1,0.3-6.1c0.1-1.2,0.3-2.3,0.4-3.5c1.2,0.5,2.9,0.7,3.5,1.6
				c2.2,3.2,1.8,6.7-0.1,10c-1.5,2.5-2.4,5-0.6,7.8c0.4,0.6-0.2,1.9-0.4,2.9c-1.1-0.2-2.6-0.1-3.1-0.8
				C1231.4,958.8,1230.9,956.9,1230,955z"/>
			<path d="M1227.3,944.9c-0.6,1.9-0.8,3.2-1.4,4.4c-1.6,3-3.4,5.9-0.9,9.4c0.3,0.4-0.6,2.3-0.9,2.3c-1,0-2.5-0.2-3.1-1
				c-2.4-3.1-2.3-6.6-0.5-9.9c1.6-2.9,3.1-5.5,0.8-8.8c-0.3-0.5,0.2-2.2,0.7-2.4c0.8-0.3,2.5-0.1,2.8,0.4
				C1225.9,941.2,1226.6,943.3,1227.3,944.9z"/>
		</g>
	</g>
	<rect x="1209.5" y="921.1" class="st8" width="67.4" height="66.6"/>
	<rect x="1209.5" y="921.1" class="st9" width="67.4" height="66.6"/>
	<g>
		<g>
			<path class="st7" d="M1474.4,905.5c0-28.5,0-57.1,0-85.6c28.1,0,56.2,0,84.3,0c0,28.5,0,57.1,0,85.6
				C1530.6,905.5,1502.5,905.5,1474.4,905.5z M1525.4,881.4c7.1,0,14,0,20.9,0c-0.2,0.3-0.5,0.6-0.7,0.9c1.4,1.6,2.6,4.4,4.1,4.6
				c3.5,0.5,2.9-3,3.3-5.2c3.2-1.2,3.4-1.2,3.2-4.6c-0.5-10.2-1.2-20.4-1.8-30.6c-0.2-3.3-1.9-5.2-4.8-6.2c-9-3.3-18.1-3.3-27.2-0.1
				c-3,1.1-4.8,3.1-5,6.5c-0.5,10.1-1.1,20.1-1.8,30.2c-0.2,2.6,0.4,4.5,2.9,5.3c0.8,1.9,2,4.5,3.5,4.7
				C1525.7,887.5,1525,884,1525.4,881.4z M1505.1,881.4c0.1,0.9,0.1,1.4,0.3,1.8c0.9,1.4,1.7,3.5,3,3.8c2.2,0.5,3-1.4,3-3.5
				c0-0.7,0.3-1.8,0.6-1.9c3.4-0.6,2.4-3.2,2.3-5.2c-0.1-2.7-0.1-5.6-1.1-8.1c-1.1-2.9-3.5-5.4-4.8-8.3c-1.2-2.7-2.9-4.1-5.8-4.1
				c-1.5,0-2.9,0.2-3.5-2.1c-0.4-1.8-6.1-1.4-7.3,0.1c-0.7,0.8-1.8,1.9-2.7,1.9c-3.4,0-5.3,1.5-6.6,4.6c-1.1,2.7-3,5-4.5,7.6
				c-0.4,0.7-1.1,1.6-0.9,2.3c0.9,3.9-2.8,8.7,2.5,11.7c0.3,0.1,0.3,0.9,0.3,1.4c0,2,0.7,4.1,2.9,3.7c1.2-0.2,2.1-2.3,3.1-3.6
				c0.3-0.4,0.2-1.1,0.4-1.9C1492.5,881.4,1498.7,881.4,1505.1,881.4z"/>
			<path d="M1525.4,881.4c-0.5,2.6,0.2,6.1-3.4,5.6c-1.5-0.2-2.7-2.8-3.5-4.7c-2.6-0.8-3.1-2.6-2.9-5.3c0.7-10.1,1.2-20.1,1.8-30.2
				c0.2-3.4,2-5.4,5-6.5c9.1-3.3,18.2-3.3,27.2,0.1c2.9,1.1,4.6,3,4.8,6.2c0.5,10.2,1.2,20.4,1.8,30.6c0.2,3.4,0,3.4-3.2,4.6
				c-0.3,2.2,0.3,5.7-3.3,5.2c-1.6-0.2-2.8-3-4.1-4.6c0.2-0.3,0.5-0.6,0.7-0.9C1539.5,881.4,1532.6,881.4,1525.4,881.4z
				 M1535.9,861.7c4.6,0,9.3,0,13.9,0c2,0,2.9-0.7,2.5-2.8c-0.5-3-0.9-6-1.2-9c-0.3-2.3-1.5-3-3.7-3c-7.6,0.1-15.1,0.1-22.7,0
				c-2.4,0-3.6,0.7-3.9,3.2c-0.3,2.9-0.6,5.8-1.1,8.7c-0.4,2.3,0.4,3.1,2.7,3C1526.9,861.6,1531.4,861.7,1535.9,861.7z
				 M1526.8,842.5c0,0.4,0,0.7,0,1.1c6.1,0,12.3,0,18.4,0c0-0.4,0-0.7,0-1.1C1539.1,842.5,1532.9,842.5,1526.8,842.5z M1522,875.5
				c1.4-1.8,2.8-2.8,2.6-3.6c-0.2-1.1-1.5-2.4-2.5-2.7c-0.6-0.2-2.4,1.4-2.5,2.2C1519.6,872.5,1520.8,873.6,1522,875.5z
				 M1549.7,867.8c-1.2,1.8-2.5,2.9-2.5,3.9c0,0.9,1.8,2.5,2.4,2.3c1.1-0.3,2.4-1.5,2.6-2.6C1552.5,870.7,1551,869.6,1549.7,867.8z"
				/>
			<path d="M1505.1,881.4c-6.4,0-12.6,0-18.8,0c-0.1,0.8-0.1,1.5-0.4,1.9c-0.9,1.3-1.9,3.4-3.1,3.6c-2.2,0.4-2.9-1.6-2.9-3.7
				c0-0.5,0-1.2-0.3-1.4c-5.3-2.9-1.7-7.8-2.5-11.7c-0.1-0.7,0.5-1.6,0.9-2.3c1.5-2.5,3.4-4.9,4.5-7.6c1.3-3.2,3.2-4.6,6.6-4.6
				c0.9,0,2.1-1,2.7-1.9c1.2-1.6,6.9-1.9,7.3-0.1c0.6,2.3,2,2.1,3.5,2.1c2.9,0,4.6,1.3,5.8,4.1c1.3,2.9,3.7,5.3,4.8,8.3
				c0.9,2.5,1,5.4,1.1,8.1c0.1,1.9,1.1,4.6-2.3,5.2c-0.3,0.1-0.6,1.2-0.6,1.9c0,2.1-0.8,4-3,3.5c-1.2-0.3-2-2.4-3-3.8
				C1505.2,882.8,1505.2,882.2,1505.1,881.4z M1507.1,866.4c-1.6-7.4-1.6-7.4-8.4-7.5c-2.2,0-4.4,0-6.6,0c-6.2,0-7.2,1-7.9,7.4
				C1491.8,866.4,1499.3,866.4,1507.1,866.4z M1486.5,872.3c-1.7-1.3-2.8-2.6-3.6-2.5c-0.9,0.1-2.2,1.5-2.4,2.4
				c-0.1,0.6,1.3,2.2,2.2,2.2C1483.7,874.6,1484.7,873.4,1486.5,872.3z M1508.4,868.5c-1.2,1.8-2.4,2.9-2.3,3.7
				c0.1,0.9,1.5,1.7,2.4,2.5c0.8-0.8,2.1-1.6,2.2-2.4C1510.7,871.3,1509.5,870.3,1508.4,868.5z"/>
			<path class="st7" d="M1535.9,861.7c-4.5,0-9-0.1-13.5,0c-2.3,0-3.1-0.7-2.7-3c0.5-2.9,0.8-5.8,1.1-8.7c0.2-2.4,1.5-3.2,3.9-3.2
				c7.6,0.1,15.1,0.1,22.7,0c2.2,0,3.4,0.7,3.7,3c0.3,3,0.7,6,1.2,9c0.4,2.2-0.5,2.9-2.5,2.8
				C1545.2,861.6,1540.5,861.7,1535.9,861.7z"/>
			<path class="st7" d="M1526.8,842.5c6.2,0,12.3,0,18.5,0c0,0.4,0,0.7,0,1.1c-6.1,0-12.3,0-18.4,0
				C1526.8,843.2,1526.8,842.8,1526.8,842.5z"/>
			<path class="st7" d="M1522,875.5c-1.2-1.9-2.4-3-2.4-4c0-0.9,1.8-2.4,2.5-2.2c1.1,0.3,2.3,1.6,2.5,2.7
				C1524.8,872.6,1523.4,873.7,1522,875.5z"/>
			<path class="st7" d="M1549.7,867.8c1.3,1.8,2.7,2.9,2.6,3.7c-0.3,1.1-1.6,2.4-2.6,2.6c-0.6,0.2-2.4-1.5-2.4-2.3
				C1547.2,870.7,1548.5,869.6,1549.7,867.8z"/>
			<path class="st7" d="M1507.1,866.4c-7.8,0-15.3,0-22.8,0c0.6-6.5,1.7-7.4,7.9-7.4c2.2,0,4.4,0,6.6,0
				C1505.5,859,1505.5,859,1507.1,866.4z"/>
			<path class="st7" d="M1486.5,872.3c-1.8,1.1-2.8,2.3-3.8,2.2c-0.8-0.1-2.3-1.6-2.2-2.2c0.2-1,1.4-2.3,2.4-2.4
				C1483.7,869.7,1484.8,871,1486.5,872.3z"/>
			<path class="st7" d="M1508.4,868.5c1.2,1.9,2.3,2.9,2.3,3.8c0,0.8-1.4,1.6-2.2,2.4c-0.9-0.8-2.3-1.6-2.4-2.5
				C1505.9,871.3,1507.2,870.3,1508.4,868.5z"/>
		</g>
	</g>
	<rect x="1474.4" y="819.9" class="st8" width="84.3" height="85.6"/>
	<rect x="1474.4" y="819.9" class="st9" width="84.3" height="85.6"/>
	<g>
		<g>
			<path class="st7" d="M1552,995.4c-22.9,0-45.8,0-68.8,0c0-26.1,0-52.2,0-78.4c22.9,0,45.8,0,68.8,0
				C1552,943.1,1552,969.2,1552,995.4z M1536,948.2c-6,0-11.3,0-17.1,0c0-9.5,0-18.6,0-27.7c-0.3,0-0.5-0.1-0.8-0.1
				c-6.3,14.3-12.6,28.6-19.1,43.6c6.1,0,11.5,0,17.3,0c0,9.5,0,18.6,0,27.6c0.2,0,0.5,0.1,0.7,0.1
				C1523.1,977.5,1529.4,963.2,1536,948.2z"/>
			<path d="M1536,948.2c-6.6,15-12.8,29.3-19.1,43.6c-0.2,0-0.5-0.1-0.7-0.1c0-9,0-18.1,0-27.6c-5.8,0-11.2,0-17.3,0
				c6.6-15,12.9-29.3,19.1-43.6c0.3,0,0.5,0.1,0.8,0.1c0,9.1,0,18.2,0,27.7C1524.6,948.2,1529.9,948.2,1536,948.2z M1518.9,977.3
				c0.3,0.1,0.6,0.2,0.8,0.2c3.7-8.4,7.4-16.8,11.4-25.9c-5.4,0-10.2,0-15.2,0c0-6.1,0-11.7,0-17.2c-0.2-0.1-0.4-0.1-0.6-0.2
				c-3.8,8.6-7.5,17.2-11.6,26.5c5.4,0,10.2,0,15.2,0C1518.9,966.6,1518.9,971.9,1518.9,977.3z"/>
			<path class="st7" d="M1518.9,977.3c0-5.3,0-10.7,0-16.6c-5,0-9.8,0-15.2,0c4.1-9.3,7.9-17.9,11.6-26.5c0.2,0.1,0.4,0.1,0.6,0.2
				c0,5.6,0,11.1,0,17.2c5,0,9.7,0,15.2,0c-4,9.1-7.7,17.5-11.4,25.9C1519.5,977.4,1519.2,977.4,1518.9,977.3z"/>
		</g>
	</g>
	<rect x="1483.2" y="917" class="st8" width="68.8" height="78.4"/>
	<rect x="1483.2" y="917" class="st9" width="68.8" height="78.4"/>
	<rect x="1465.9" y="606" class="st3" width="70.4" height="8.5"/>
	<rect x="1465.7" y="596.7" class="st6" width="70.4" height="8.5"/>
	<rect x="1465.9" y="591.1" class="st5" width="70.1" height="3.4"/>
	<rect x="1465.9" y="586" class="st2" width="70.1" height="3.4"/>
	<rect x="1577.5" y="584" class="st3" width="70.4" height="28.4"/>
	<rect x="1577.5" y="563.8" class="st6" width="70.1" height="18.9"/>
	<rect x="1577.5" y="527.4" class="st5" width="70.4" height="35.5"/>
	<rect x="1577.5" y="515.6" class="st2" width="70.4" height="8.5"/>
	<rect x="1577.5" y="504.1" class="st4" width="70.4" height="8.5"/>
	<g>
		<g>
			<path class="st0" d="M1607.4,483c0-1.9,1.1-3.3,3-4.1l0-0.1c-1.7-0.8-2.4-2.1-2.4-3.4c0-2.4,2-4.1,4.7-4.1c3,0,4.4,1.9,4.4,3.8
				c0,1.3-0.6,2.7-2.5,3.6v0.1c1.9,0.8,3.1,2.1,3.1,3.9c0,2.7-2.3,4.4-5.2,4.4C1609.3,487.1,1607.4,485.2,1607.4,483z M1615.6,482.9
				c0-1.9-1.3-2.7-3.4-3.3c-1.8,0.5-2.7,1.7-2.7,3.1c-0.1,1.5,1.1,2.9,3,2.9C1614.4,485.6,1615.6,484.5,1615.6,482.9z M1609.9,475.3
				c0,1.5,1.2,2.3,2.9,2.8c1.3-0.4,2.3-1.4,2.3-2.8c0-1.2-0.7-2.5-2.6-2.5C1610.8,472.8,1609.9,474,1609.9,475.3z"/>
		</g>
	</g>
	<rect x="1686.5" y="563.5" class="st3" width="70.1" height="63.1"/>
	<rect x="1686.2" y="531.9" class="st6" width="70.1" height="28.4"/>
	<rect x="1686.2" y="442.9" class="st5" width="70.4" height="85.9"/>
	<rect x="1686.2" y="411.9" class="st2" width="70.4" height="28.7"/>
	<rect x="1686.2" y="380.4" class="st4" width="70.4" height="28.7"/>
	<g>
		<g>
			<path class="st0" d="M1711.2,369.4v-1.3l1.6-1.6c3.9-3.7,5.7-5.7,5.7-8c0-1.5-0.7-3-3-3c-1.4,0-2.5,0.7-3.2,1.3l-0.7-1.5
				c1.1-0.9,2.6-1.5,4.3-1.5c3.3,0,4.7,2.3,4.7,4.4c0,2.8-2,5.1-5.3,8.2l-1.2,1.1v0h6.9v1.7H1711.2z"/>
			<path class="st0" d="M1723.2,369.4v-1.3l1.6-1.6c3.9-3.7,5.7-5.7,5.7-8c0-1.5-0.7-3-3-3c-1.4,0-2.5,0.7-3.2,1.3l-0.7-1.5
				c1.1-0.9,2.6-1.5,4.3-1.5c3.3,0,4.7,2.3,4.7,4.4c0,2.8-2,5.1-5.3,8.2l-1.2,1.1v0h6.9v1.7H1723.2z"/>
		</g>
	</g>
	<g>
		<g>
			<path class="st0" d="M1717.3,398.4c0.4,0.2,1.2,0.6,2,0.6c1.6,0,2.1-1,2.1-1.8c0-1.3-1.2-1.8-2.4-1.8h-0.7v-0.9h0.7
				c0.9,0,2-0.5,2-1.5c0-0.7-0.5-1.4-1.6-1.4c-0.7,0-1.4,0.3-1.8,0.6l-0.3-0.9c0.5-0.4,1.4-0.7,2.4-0.7c1.8,0,2.6,1.1,2.6,2.2
				c0,0.9-0.6,1.7-1.7,2.2v0c1.1,0.2,2,1.1,2,2.4c0,1.5-1.1,2.7-3.3,2.7c-1,0-1.9-0.3-2.4-0.6L1717.3,398.4z"/>
		</g>
	</g>
	<g>
		<g>
			<path class="st0" d="M1717.3,429.7c0.4,0.2,1.2,0.6,2,0.6c1.6,0,2.1-1,2.1-1.8c0-1.3-1.2-1.8-2.4-1.8h-0.7v-0.9h0.7
				c0.9,0,2-0.5,2-1.5c0-0.7-0.5-1.4-1.6-1.4c-0.7,0-1.4,0.3-1.8,0.6l-0.3-0.9c0.5-0.4,1.4-0.7,2.4-0.7c1.8,0,2.6,1.1,2.6,2.2
				c0,0.9-0.6,1.7-1.7,2.2v0c1.1,0.2,2,1.1,2,2.4c0,1.5-1.1,2.7-3.3,2.7c-1,0-1.9-0.3-2.4-0.6L1717.3,429.7z"/>
		</g>
	</g>
	<g>
		<g>
			<path class="st0" d="M1723.3,484.8c-0.3,0-0.6,0-0.9,0.1c-1.9,0.3-3,1.7-3.2,3.3h0c0.4-0.6,1.2-1.1,2.2-1.1c1.6,0,2.8,1.2,2.8,3
				c0,1.7-1.1,3.2-3,3.2c-2,0-3.2-1.5-3.2-3.9c0-1.8,0.6-3.2,1.5-4.1c0.8-0.7,1.8-1.2,2.9-1.4c0.4-0.1,0.7-0.1,0.9-0.1V484.8z
				 M1723,490.1c0-1.3-0.7-2.1-1.9-2.1c-0.7,0-1.4,0.5-1.8,1.1c-0.1,0.1-0.1,0.3-0.1,0.5c0,1.5,0.7,2.6,2,2.6
				C1722.2,492.3,1723,491.4,1723,490.1z"/>
		</g>
	</g>
	<g>
		<g>
			<path class="st0" d="M1717.3,550.2c0.4,0.2,1.2,0.6,2,0.6c1.6,0,2.1-1,2.1-1.8c0-1.3-1.2-1.8-2.4-1.8h-0.7v-0.9h0.7
				c0.9,0,2-0.5,2-1.5c0-0.7-0.5-1.4-1.6-1.4c-0.7,0-1.4,0.3-1.8,0.6l-0.3-0.9c0.5-0.4,1.4-0.7,2.4-0.7c1.8,0,2.6,1.1,2.6,2.2
				c0,0.9-0.6,1.7-1.7,2.2v0c1.1,0.2,2,1.1,2,2.4c0,1.5-1.1,2.7-3.3,2.7c-1,0-1.9-0.3-2.4-0.6L1717.3,550.2z"/>
		</g>
	</g>
	<g>
		<g>
			<path class="st0" d="M1723.6,592.8h-3.5l-0.4,2.3c0.2,0,0.4-0.1,0.7-0.1c0.7,0,1.4,0.2,2,0.5c0.7,0.4,1.3,1.2,1.3,2.3
				c0,1.8-1.4,3.1-3.4,3.1c-1,0-1.8-0.3-2.3-0.6l0.3-0.9c0.4,0.2,1.1,0.5,2,0.5c1.2,0,2.2-0.8,2.2-2c0-1.2-0.8-2-2.6-2
				c-0.5,0-0.9,0.1-1.3,0.1l0.6-4.4h4.4V592.8z"/>
		</g>
	</g>
	<g>
		<g>
			<path class="st0" d="M1722.4,652.5h-3.5l-0.4,2.3c0.2,0,0.4-0.1,0.7-0.1c0.7,0,1.4,0.2,2,0.5c0.7,0.4,1.3,1.2,1.3,2.3
				c0,1.8-1.4,3.1-3.4,3.1c-1,0-1.8-0.3-2.3-0.6l0.3-0.9c0.4,0.2,1.1,0.5,2,0.5c1.2,0,2.2-0.8,2.2-2c0-1.2-0.8-2-2.6-2
				c-0.5,0-0.9,0.1-1.3,0.1l0.6-4.4h4.4V652.5z"/>
		</g>
	</g>
	<g>
		<g>
			<path class="st0" d="M897.8,339.9v-19.8h-7.3v-4.9c4.6,0,7.8-2.6,8.3-5.7h6.3v30.5H897.8z"/>
			<path class="st0" d="M910.9,331.7c0-3.1,2-6.2,5.2-7.4c-3.1-1.1-4.6-4.3-4.6-6.7c0-5.1,4.6-8.8,11.2-8.8c6.6,0,11.2,3.7,11.2,8.8
				c0,2.4-1.5,5.5-4.6,6.7c3.2,1.3,5.2,4.3,5.2,7.4c0,5.4-4.8,9-11.8,9C915.7,340.6,910.9,337,910.9,331.7z M927.2,330.8
				c0-1.9-1.4-3.9-4.6-3.9c-3.1,0-4.5,2-4.5,3.9c0,1.8,1.5,3.8,4.5,3.8C925.6,334.6,927.2,332.7,927.2,330.8z M926.5,318.1
				c0-1.6-1.4-3.3-3.9-3.3c-2.5,0-3.9,1.7-3.9,3.3c0,1.8,1.3,3.5,3.9,3.6C925.3,321.7,926.5,320,926.5,318.1z"/>
			<path class="st0" d="M945.8,308.9c4.3,0,7.9,3.4,7.9,7.8c0,4.5-3.6,7.8-8,7.8c-4.4,0-7.9-3.4-7.9-7.8
				C937.9,312.3,941.5,308.9,945.8,308.9z M942.9,339.9l21.3-30.5h6.1l-21.4,30.5H942.9z M945.8,319.8c1.6,0,2.8-1.3,2.8-3.1
				c0-1.8-1.2-3-2.8-3c-1.6,0-2.9,1.2-2.9,3C943,318.6,944.2,319.8,945.8,319.8z M967.3,325c4.3,0,7.9,3.4,7.9,7.8
				c0,4.5-3.6,7.8-8,7.8c-4.4,0-7.9-3.4-7.9-7.8C959.3,328.4,963,325,967.3,325z M967.3,335.8c1.6,0,2.8-1.3,2.8-3.1
				c0-1.8-1.2-3-2.8-3s-2.9,1.2-2.9,3C964.4,334.6,965.6,335.8,967.3,335.8z"/>
			<path class="st0" d="M1007.6,305.9c9.3,0,17.3,6.8,17.3,17.4c0,10.5-7.9,17.3-17.3,17.3c-9.4,0-17.3-6.8-17.3-17.3
				C990.2,312.7,998.2,305.9,1007.6,305.9z M1007.6,333.3c4.6,0,9.6-3.1,9.6-10c0-6.9-5-10.1-9.6-10.1c-4.6,0-9.6,3.1-9.6,10.1
				C997.9,330.2,1002.9,333.3,1007.6,333.3z"/>
			<path class="st0" d="M1038.5,322.6v17.3h-7.1v-17.3h-3.7v-6h3.7v-2c0-5.4,3.2-9,8.9-9c1.5,0,2.7,0.2,3.4,0.5v5.8
				c-0.4-0.1-1-0.2-2.1-0.2c-1.3,0-3.1,0.6-3.1,3.1v1.8h5.1v6H1038.5z"/>
			<path class="st0" d="M1096.5,306.6h7.6l-9.1,33.3h-7.7l-7.1-22.1l-7.1,22.1h-7.8l-9.1-33.3h7.9l5.5,21.3l6.9-21.3h7.6l6.9,21.4
				L1096.5,306.6z"/>
			<path class="st0" d="M1128.9,328.2c0,7.2-5.4,12.4-12.4,12.4c-7,0-12.4-5.2-12.4-12.4s5.4-12.3,12.4-12.3
				C1123.5,315.9,1128.9,321,1128.9,328.2z M1121.8,328.2c0-3.9-2.5-5.8-5.3-5.8c-2.7,0-5.3,1.8-5.3,5.8c0,3.9,2.6,5.8,5.3,5.8
				C1119.2,334.1,1121.8,332.2,1121.8,328.2z"/>
			<path class="st0" d="M1148.3,323.6c-0.8-0.2-1.5-0.2-2.3-0.2c-2.9,0-5.4,1.7-5.4,6.3v10.2h-7.1v-23.3h6.9v3.1
				c1.2-2.6,4.2-3.4,6.1-3.4c0.7,0,1.4,0.1,1.9,0.2V323.6z"/>
			<path class="st0" d="M1152.7,339.9v-34h7.1v34H1152.7z"/>
			<path class="st0" d="M1189,335.8c0,2.1,0.1,3.7,0.2,4.2h-6.9c0-0.3-0.2-1.3-0.2-2.3c-1.1,1.6-3.4,2.8-6.2,2.8
				c-6.6,0-11.6-5.1-11.6-12.3c0-7,4.7-12.2,11.3-12.2c4,0,5.7,1.5,6.3,2.4v-12.5h7V335.8z M1176.8,334.1c2.8,0,5.3-2,5.3-5.8
				c0-3.9-2.5-5.8-5.3-5.8s-5.3,1.9-5.3,5.8C1171.6,332.1,1174.1,334.1,1176.8,334.1z"/>
			<path class="st0" d="M1207.5,339.9v-33.3h21.1v7h-13.7v6.3h12.4v6.5h-12.4v6.4h13.7v7H1207.5z"/>
			<path class="st0" d="M1241.4,339.9h-7.1v-23.3h6.9v2.7c1.3-2.2,4.1-3.3,6.5-3.3c5.9,0,8.5,4.2,8.5,9.3v14.6h-7.1v-13.4
				c0-2.3-1.2-4-3.8-4c-2.3,0-3.9,1.7-3.9,4.1V339.9z"/>
			<path class="st0" d="M1283.5,333.2c-1.1,4-4.8,7.4-10.8,7.4c-6.4,0-12.2-4.6-12.2-12.4c0-7.5,5.6-12.3,11.6-12.3
				c7.2,0,11.7,4.5,11.7,12c0,1-0.1,2.1-0.1,2.2h-16.2c0.1,2.6,2.5,4.5,5.3,4.5c2.6,0,4-1.2,4.7-3.1L1283.5,333.2z M1277,325.5
				c-0.1-1.8-1.3-3.9-4.7-3.9c-3,0-4.5,2.2-4.6,3.9H1277z"/>
			<path class="st0" d="M1303.3,323.6c-0.8-0.2-1.5-0.2-2.3-0.2c-2.9,0-5.4,1.7-5.4,6.3v10.2h-7.1v-23.3h6.9v3.1
				c1.2-2.6,4.2-3.4,6.1-3.4c0.7,0,1.4,0.1,1.9,0.2V323.6z"/>
			<path class="st0" d="M1312,339.5c0.5,2.3,2.3,3.9,5,3.9c3.6,0,5.8-1.7,5.8-6v-1.1c-0.8,1.3-2.9,2.6-6.2,2.6
				c-6.2,0-10.8-4.9-10.8-11.4c0-6.2,4.5-11.4,10.8-11.4c3.8,0,5.8,1.7,6.5,2.9v-2.5h6.8V337c0,6.7-3.8,12.5-12.5,12.5
				c-6.7,0-11-4.1-11.6-8.3L1312,339.5z M1322.8,327.6c0-3.2-2.3-5.2-5-5.2c-2.7,0-5,2-5,5.2c0,3.2,2.2,5.2,5,5.2
				C1320.8,332.7,1322.8,330.8,1322.8,327.6z"/>
			<path class="st0" d="M1337.2,348.9l5.3-12.1l-9.8-20.2h8l5.7,12.5l5.2-12.5h7.6l-14.4,32.3H1337.2z"/>
			<path class="st0" d="M892.6,382.2v-33.3h12.1c10,0,16.7,6.4,16.7,16.7c0,10.3-6.7,16.6-16.8,16.6H892.6z M904.3,375.2
				c5.1,0,9.3-3,9.3-9.6c0-6.7-4.2-9.7-9.3-9.7H900v19.3H904.3z"/>
			<path class="st0" d="M947.7,375.5c-1.1,4-4.8,7.4-10.8,7.4c-6.4,0-12.2-4.6-12.2-12.4c0-7.5,5.6-12.3,11.6-12.3
				c7.2,0,11.7,4.5,11.7,12c0,1-0.1,2.1-0.1,2.2h-16.2c0.1,2.6,2.5,4.5,5.3,4.5c2.6,0,4-1.2,4.7-3.1L947.7,375.5z M941.2,367.7
				c-0.1-1.8-1.3-3.9-4.7-3.9c-3,0-4.5,2.2-4.6,3.9H941.2z"/>
			<path class="st0" d="M952.7,382.2v-23.3h6.8v2.7c1.2-2.1,4.2-3.4,6.7-3.4c3.3,0,5.7,1.4,6.9,3.7c1.8-2.6,4.1-3.7,7.2-3.7
				c4.4,0,8.6,2.6,8.6,8.9v15.1h-6.9v-13.5c0-2.2-1.2-3.9-3.7-3.9c-2.5,0-3.9,1.9-3.9,4v13.5h-7v-13.5c0-2.2-1.2-3.9-3.8-3.9
				c-2.5,0-3.9,1.9-3.9,4v13.4H952.7z"/>
			<path class="st0" d="M1000.5,368.7l5.5-0.8c1.3-0.2,1.7-0.8,1.7-1.6c0-1.4-1.2-2.5-3.4-2.5c-2.5,0-3.9,1.7-4,3.4l-6.2-1.3
				c0.3-3.3,3.4-7.7,10.2-7.7c7.6,0,10.3,4.2,10.3,9v11.4c0,1.8,0.2,3.4,0.3,3.6h-6.4c0-0.2-0.2-1-0.2-2.6c-1.2,2-3.5,3.3-6.6,3.3
				c-5.1,0-8.1-3.4-8.1-7.1C993.6,371.6,996.6,369.3,1000.5,368.7z M1007.6,373v-1l-4.4,0.7c-1.5,0.2-2.6,0.9-2.6,2.6
				c0,1.2,0.8,2.4,2.8,2.4C1005.5,377.7,1007.6,376.6,1007.6,373z"/>
			<path class="st0" d="M1027.7,382.2h-7.1v-23.3h6.9v2.7c1.3-2.2,4.1-3.3,6.5-3.3c5.9,0,8.5,4.2,8.5,9.3v14.6h-7.1v-13.4
				c0-2.3-1.2-4-3.8-4c-2.3,0-3.9,1.7-3.9,4.1V382.2z"/>
			<path class="st0" d="M1071.5,378c0,2.1,0.1,3.7,0.2,4.2h-6.9c0-0.3-0.2-1.3-0.2-2.3c-1.1,1.6-3.4,2.8-6.2,2.8
				c-6.6,0-11.6-5.1-11.6-12.3c0-7,4.7-12.2,11.3-12.2c4,0,5.7,1.5,6.3,2.4v-12.5h7V378z M1059.3,376.3c2.8,0,5.3-2,5.3-5.8
				c0-3.9-2.5-5.8-5.3-5.8s-5.3,1.9-5.3,5.8C1054,374.3,1056.5,376.3,1059.3,376.3z"/>
		</g>
	</g>
</g>
</svg>
