<svg xmlns="http://www.w3.org/2000/svg" viewBox="0 0 533.09 542"><defs><style>.cls-1{fill:#477452;}.cls-2{fill:#4ec66b;}.cls-3,.cls-4,.cls-7{fill:none;stroke:#999;stroke-miterlimit:10;}.cls-4{stroke-dasharray:7.97 7.97;}.cls-5{fill:#666;}.cls-6{fill:#333;}.cls-7{stroke-width:3px;}</style></defs><g id="Layer_2" data-name="Layer 2"><g id="Layer_1-2" data-name="Layer 1"><rect class="cls-1" x="221.49" y="80.55" width="90.23" height="36.49" rx="1"/><path class="cls-1" d="M310.72,81.55V116H222.49V81.55h88.23m0-2H222.49a2,2,0,0,0-2,2V116a2,2,0,0,0,2,2h88.23a2,2,0,0,0,2-2V81.55a2,2,0,0,0-2-2Z"/><rect class="cls-1" x="65.2" y="93.34" width="91.16" height="23.7" rx="1"/><path class="cls-1" d="M155.37,94.34V116H66.2V94.34h89.17m0-2H66.2a2,2,0,0,0-2,2V116a2,2,0,0,0,2,2h89.17a2,2,0,0,0,2-2V94.34a2,2,0,0,0-2-2Z"/><rect class="cls-2" x="377.92" y="31.82" width="90.51" height="85.22" rx="1"/><path class="cls-2" d="M467.43,32.82V116H378.92V32.82h88.51m0-2H378.92a2,2,0,0,0-2,2V116a2,2,0,0,0,2,2h88.51a2,2,0,0,0,2-2V32.82a2,2,0,0,0-2-2Z"/><rect class="cls-1" x="221.49" y="176.2" width="90.23" height="61.91" rx="1"/><path class="cls-1" d="M310.72,177.2v59.91H222.49V177.2h88.23m0-2H222.49a2,2,0,0,0-2,2v59.91a2,2,0,0,0,2,2h88.23a2,2,0,0,0,2-2V177.2a2,2,0,0,0-2-2Z"/><rect class="cls-1" x="65.2" y="195.44" width="91.16" height="42.67" rx="1"/><path class="cls-1" d="M155.37,196.43v40.68H66.2V196.43h89.17m0-2H66.2a2,2,0,0,0-2,2v40.68a2,2,0,0,0,2,2h89.17a2,2,0,0,0,2-2V196.43a2,2,0,0,0-2-2Z"/><rect class="cls-2" x="377.92" y="157.11" width="90.51" height="81" rx="1"/><path class="cls-2" d="M467.43,158.11v79H378.92v-79h88.51m0-2H378.92a2,2,0,0,0-2,2v79a2,2,0,0,0,2,2h88.51a2,2,0,0,0,2-2v-79a2,2,0,0,0-2-2Z"/><rect class="cls-1" x="221.49" y="323.26" width="90.23" height="50.01" rx="1"/><path class="cls-1" d="M310.72,324.26v48H222.49v-48h88.23m0-2H222.49a2,2,0,0,0-2,2v48a2,2,0,0,0,2,2h88.23a2,2,0,0,0,2-2v-48a2,2,0,0,0-2-2Z"/><rect class="cls-1" x="65.2" y="349.69" width="91.16" height="23.59" rx="1"/><path class="cls-1" d="M155.37,350.69v21.59H66.2V350.69h89.17m0-2H66.2a2,2,0,0,0-2,2v21.59a2,2,0,0,0,2,2h89.17a2,2,0,0,0,2-2V350.69a2,2,0,0,0-2-2Z"/><rect class="cls-2" x="377.92" y="283.82" width="90.51" height="89.45" rx="1"/><path class="cls-2" d="M467.43,284.82v87.46H378.92V284.82h88.51m0-2H378.92a2,2,0,0,0-2,2v87.46a2,2,0,0,0,2,2h88.51a2,2,0,0,0,2-2V284.82a2,2,0,0,0-2-2Z"/><rect class="cls-1" x="221.49" y="489.87" width="90.23" height="11.15" rx="1"/><path class="cls-1" d="M310.72,490.87V500H222.49v-9.15h88.23m0-2H222.49a2,2,0,0,0-2,2V500a2,2,0,0,0,2,2h88.23a2,2,0,0,0,2-2v-9.15a2,2,0,0,0-2-2Z"/><rect class="cls-1" x="65.2" y="496.52" width="91.16" height="4.5" rx="1"/><path class="cls-1" d="M155.37,497.52V500H66.2v-2.5h89.17m0-2H66.2a2,2,0,0,0-2,2V500a2,2,0,0,0,2,2h89.17a2,2,0,0,0,2-2v-2.5a2,2,0,0,0-2-2Z"/><rect class="cls-2" x="377.92" y="457.02" width="90.51" height="44" rx="1"/><path class="cls-2" d="M467.43,458v42H378.92V458h88.51m0-2H378.92a2,2,0,0,0-2,2v42a2,2,0,0,0,2,2h88.51a2,2,0,0,0,2-2V458a2,2,0,0,0-2-2Z"/><line class="cls-3" x1="188.09" x2="188.09" y2="4"/><line class="cls-4" x1="188.09" y1="11.97" x2="188.09" y2="534.01"/><line class="cls-3" x1="188.09" y1="538" x2="188.09" y2="542"/><line class="cls-3" x1="345.59" x2="345.59" y2="4"/><line class="cls-4" x1="345.59" y1="11.97" x2="345.59" y2="534.01"/><line class="cls-3" x1="345.59" y1="538" x2="345.59" y2="542"/><path class="cls-5" d="M101.62,82.4c0-.77.07-1.94.11-2.7h-.08c-.3.68-.64,1.35-1,2l-1.59,2.63h6.54V86.5H96.41V84.57l4.4-7.26h3.42V89.38h-2.61Z"/><path class="cls-5" d="M106.77,83.29c0-4.11,1.73-6.21,4.32-6.21s4.31,2.12,4.31,6.21-1.72,6.31-4.31,6.31S106.77,87.4,106.77,83.29Zm6,0c0-3.29-.73-4.05-1.67-4.05s-1.68.76-1.68,4.05.74,4.15,1.68,4.15S112.76,86.58,112.76,83.29Z"/><path class="cls-5" d="M116.8,83.29c0-4.11,1.73-6.21,4.32-6.21s4.32,2.12,4.32,6.21-1.73,6.31-4.32,6.31S116.8,87.4,116.8,83.29Zm6,0c0-3.29-.73-4.05-1.67-4.05s-1.67.76-1.67,4.05.73,4.15,1.67,4.15S122.79,86.58,122.79,83.29Z"/><path class="cls-6" d="M1.6,19.46V12.11H3.92v7.52c0,2.85,1.06,3.79,2.65,3.79s2.7-.94,2.7-3.79V12.11h2.24v7.35c0,4.29-1.91,6-4.94,6S1.6,23.75,1.6,19.46Z"/><path class="cls-6" d="M13.67,23.52,15,21.92a5.11,5.11,0,0,0,3.41,1.5c1.47,0,2.28-.67,2.28-1.69s-.84-1.42-2-1.93L16.89,19a3.76,3.76,0,0,1-2.65-3.47c0-2.09,1.84-3.69,4.4-3.69a5.7,5.7,0,0,1,4,1.67L21.48,15a4.19,4.19,0,0,0-2.84-1.12c-1.24,0-2.05.58-2.05,1.53s1,1.41,2.08,1.85l1.76.74c1.56.65,2.65,1.64,2.65,3.53,0,2.12-1.76,3.89-4.7,3.89A6.72,6.72,0,0,1,13.67,23.52Z"/><path class="cls-6" d="M1,147.69c0-4.28,2.68-6.82,6-6.82a5.19,5.19,0,0,1,3.77,1.66L9.5,144A3.42,3.42,0,0,0,7,142.89c-2.13,0-3.66,1.8-3.66,4.73s1.41,4.8,3.6,4.8a3.67,3.67,0,0,0,2.79-1.35L11,152.53a5.21,5.21,0,0,1-4.12,1.9C3.58,154.43,1,152,1,147.69Z"/><path class="cls-6" d="M13,140.06h2.31v3.66l-.1,1.89a4.57,4.57,0,0,1,3.15-1.48c2.1,0,3,1.42,3,3.9v6.16h-2.3v-5.86c0-1.62-.47-2.23-1.53-2.23a3.09,3.09,0,0,0-2.24,1.23v6.86H13Z"/><path class="cls-6" d="M23.88,141.34a1.43,1.43,0,0,1,2.85,0,1.43,1.43,0,0,1-2.85,0Zm.26,3h2.31v9.82H24.14Z"/><path class="cls-6" d="M29.38,144.37h1.89l.18,1.32h.06a4.6,4.6,0,0,1,3.23-1.56c2.1,0,3,1.42,3,3.9v6.16h-2.3v-5.86c0-1.62-.47-2.23-1.53-2.23a3.09,3.09,0,0,0-2.24,1.23v6.86H29.38Z"/><path class="cls-6" d="M40.06,151.55c0-2.1,1.74-3.2,5.77-3.63,0-1.06-.45-1.94-1.78-1.94a5.38,5.38,0,0,0-2.76,1l-.85-1.54a7.65,7.65,0,0,1,4-1.28c2.46,0,3.67,1.51,3.67,4.24v5.82H46.25l-.18-1.09H46a4.72,4.72,0,0,1-3,1.33A2.75,2.75,0,0,1,40.06,151.55Zm5.77,0v-2.21c-2.66.34-3.55,1-3.55,2s.59,1.24,1.42,1.24A3.09,3.09,0,0,0,45.83,151.56Z"/><path class="cls-6" d="M1.66,268.11H9.54v1.95H4v3.35H8.69v2H4v3.87H9.74v1.95H1.66Z"/><path class="cls-6" d="M12.11,277.53v-6.16h2.31v5.86c0,1.62.46,2.23,1.52,2.23.87,0,1.44-.4,2.18-1.36v-6.73h2.31v9.82H18.54l-.18-1.45H18.3a4,4,0,0,1-3.16,1.69C13,281.43,12.11,280,12.11,277.53Z"/><path class="cls-6" d="M23.34,271.37h1.89l.18,1.75h.06a3.35,3.35,0,0,1,2.8-2,2.45,2.45,0,0,1,1.11.2l-.4,2a3.24,3.24,0,0,0-1-.16c-.78,0-1.73.53-2.32,2v6H23.34Z"/><path class="cls-6" d="M30,276.29c0-3.28,2.22-5.16,4.67-5.16s4.67,1.88,4.67,5.16-2.22,5.14-4.67,5.14S30,279.54,30,276.29Zm7,0c0-2-.86-3.28-2.3-3.28s-2.31,1.31-2.31,3.28.87,3.26,2.31,3.26S36.93,278.26,36.93,276.29Z"/><path class="cls-6" d="M41.58,271.37h1.89l.18,1h.06a4.76,4.76,0,0,1,3-1.28c2.46,0,3.87,2,3.87,5,0,3.36-2,5.3-4.19,5.3a3.9,3.9,0,0,1-2.53-1.08l.07,1.63v3.1H41.58Zm6.59,4.78c0-2-.64-3.12-2.14-3.12a3.12,3.12,0,0,0-2.14,1.1v4.58a3.06,3.06,0,0,0,2,.82C47.17,279.53,48.17,278.38,48.17,276.15Z"/><path class="cls-6" d="M52.22,276.29c0-3.2,2.21-5.16,4.53-5.16,2.65,0,4,1.92,4,4.66a6.14,6.14,0,0,1-.1,1.12H54.46a2.8,2.8,0,0,0,2.9,2.74,4.26,4.26,0,0,0,2.28-.71l.79,1.43a6.12,6.12,0,0,1-3.37,1.06C54.34,281.43,52.22,279.53,52.22,276.29Zm6.59-1c0-1.51-.67-2.43-2-2.43a2.47,2.47,0,0,0-2.35,2.43Z"/><path class="cls-6" d="M1.66,399.11H4v5.94h.07l4.66-5.94h2.57l-4,5.1,4.7,8H9.4L5.87,406,4,408.37v3.82H1.66Z"/><path class="cls-6" d="M12.52,407.29c0-3.28,2.22-5.16,4.67-5.16s4.67,1.88,4.67,5.16-2.22,5.14-4.67,5.14S12.52,410.54,12.52,407.29Zm7,0c0-2-.86-3.28-2.3-3.28s-2.31,1.31-2.31,3.28.87,3.26,2.31,3.26S19.49,409.26,19.49,407.29Z"/><path class="cls-6" d="M24.14,402.37H26l.18,1.75h.06a3.35,3.35,0,0,1,2.79-2,2.5,2.5,0,0,1,1.12.2l-.4,2a3.24,3.24,0,0,0-1-.16c-.79,0-1.73.53-2.32,2v6H24.14Z"/><path class="cls-6" d="M30.76,407.29c0-3.2,2.21-5.16,4.52-5.16,2.66,0,4.06,1.92,4.06,4.66a6.14,6.14,0,0,1-.1,1.12H33a2.8,2.8,0,0,0,2.9,2.74,4.26,4.26,0,0,0,2.28-.71l.78,1.43a6.09,6.09,0,0,1-3.36,1.06C32.88,412.43,30.76,410.53,30.76,407.29Zm6.59-1c0-1.51-.67-2.43-2-2.43A2.47,2.47,0,0,0,33,406.34Z"/><path class="cls-6" d="M40.77,409.55c0-2.1,1.75-3.2,5.78-3.63,0-1.06-.45-1.94-1.78-1.94A5.38,5.38,0,0,0,42,405l-.85-1.54a7.65,7.65,0,0,1,4-1.28c2.46,0,3.67,1.51,3.67,4.24v5.82H47l-.18-1.09h-.06a4.72,4.72,0,0,1-3,1.33A2.76,2.76,0,0,1,40.77,409.55Zm5.78,0v-2.21c-2.66.34-3.55,1-3.55,2s.59,1.24,1.42,1.24A3.09,3.09,0,0,0,46.55,409.56Z"/><path class="cls-6" d="M54.73,408.75c0-4.08,6-4.41,6-7.09,0-.69-.32-1.22-1.07-1.22s-1.39.68-1.39,1.68c0,2.25,2.75,5.3,5.35,7a9.31,9.31,0,0,0,2.94,1.4L66,412.43a10.74,10.74,0,0,1-3.75-1.79c-3.08-2.2-5.9-5.81-5.9-8.51a3.16,3.16,0,0,1,3.29-3.26,2.66,2.66,0,0,1,2.9,2.78c0,3.42-5.64,4.33-5.64,7a2.07,2.07,0,0,0,2.25,2A4.28,4.28,0,0,0,62,409.22,9.73,9.73,0,0,0,64.37,405h2.11a14,14,0,0,1-2.85,5.3,6.18,6.18,0,0,1-4.73,2.16C56.29,412.43,54.73,410.81,54.73,408.75Z"/><path class="cls-6" d="M71.41,410.2,73,409a2.3,2.3,0,0,0,2,1.39c1.23,0,1.86-.67,1.86-2.53v-8.78h2.32v9c0,2.39-1.18,4.34-3.91,4.34A4.12,4.12,0,0,1,71.41,410.2Z"/><path class="cls-6" d="M81.75,409.55c0-2.1,1.75-3.2,5.78-3.63,0-1.06-.45-1.94-1.78-1.94A5.38,5.38,0,0,0,83,405l-.85-1.54a7.65,7.65,0,0,1,4-1.28c2.46,0,3.67,1.51,3.67,4.24v5.82H88l-.18-1.09h-.06a4.72,4.72,0,0,1-3,1.33A2.76,2.76,0,0,1,81.75,409.55Zm5.78,0v-2.21c-2.66.34-3.55,1-3.55,2s.59,1.24,1.42,1.24A3.09,3.09,0,0,0,87.53,409.56Z"/><path class="cls-6" d="M92.6,402.37h1.89l.18,1h.06a4.76,4.76,0,0,1,3-1.28c2.46,0,3.87,2,3.87,5,0,3.36-2,5.3-4.2,5.3a3.94,3.94,0,0,1-2.53-1.08l.08,1.63v3.1H92.6Zm6.59,4.78c0-2-.64-3.12-2.14-3.12a3.12,3.12,0,0,0-2.14,1.1v4.58a3.06,3.06,0,0,0,2,.82C98.19,410.53,99.19,409.38,99.19,407.15Z"/><path class="cls-6" d="M103.11,409.55c0-2.1,1.75-3.2,5.78-3.63,0-1.06-.45-1.94-1.78-1.94a5.38,5.38,0,0,0-2.76,1l-.85-1.54a7.65,7.65,0,0,1,4-1.28c2.46,0,3.67,1.51,3.67,4.24v5.82h-1.89l-.18-1.09h-.06a4.72,4.72,0,0,1-3,1.33A2.76,2.76,0,0,1,103.11,409.55Zm5.78,0v-2.21c-2.66.34-3.55,1-3.55,2s.59,1.24,1.42,1.24A3.09,3.09,0,0,0,108.89,409.56Z"/><path class="cls-6" d="M114,402.37h1.89l.18,1.32h.06a4.6,4.6,0,0,1,3.23-1.56c2.1,0,3,1.42,3,3.9v6.16H120v-5.86c0-1.62-.47-2.23-1.53-2.23a3.09,3.09,0,0,0-2.24,1.23v6.86H114Z"/><path class="cls-6" d="M3.94,527.22,0,519H2.48l1.42,3.35,1.17,2.88h.08c.41-1,.82-1.91,1.2-2.88L7.78,519h2.41l-3.93,8.22v4.87H3.94Z"/><path class="cls-6" d="M10,527.18C10,524,12.18,522,14.49,522c2.66,0,4.06,1.92,4.06,4.67a6.14,6.14,0,0,1-.1,1.12H12.21a2.79,2.79,0,0,0,2.9,2.73,4.17,4.17,0,0,0,2.28-.71l.78,1.43a6,6,0,0,1-3.36,1.07C12.09,532.33,10,530.42,10,527.18Zm6.6-.94c0-1.51-.67-2.43-2-2.43a2.46,2.46,0,0,0-2.35,2.43Z"/><path class="cls-6" d="M20,529.45c0-2.11,1.75-3.2,5.78-3.64,0-1-.45-1.93-1.78-1.93a5.38,5.38,0,0,0-2.76,1l-.85-1.54a7.65,7.65,0,0,1,4-1.29c2.46,0,3.67,1.51,3.67,4.25v5.82H26.18L26,531h-.06a4.77,4.77,0,0,1-3.05,1.33A2.76,2.76,0,0,1,20,529.45Zm5.78,0v-2.21c-2.66.33-3.55,1-3.55,2s.59,1.25,1.41,1.25A3.11,3.11,0,0,0,25.76,529.46Z"/><path class="cls-6" d="M30.83,522.26h1.89L32.9,524H33a3.35,3.35,0,0,1,2.79-2,2.64,2.64,0,0,1,1.12.2l-.4,2a3.56,3.56,0,0,0-1-.16c-.79,0-1.73.54-2.32,2v6H30.83Z"/><path class="cls-5" d="M102.28,182.66h-5.4v-2.35h8.39V182c-2.8,3.37-3.18,5.64-3.4,10.35H99.06A16.12,16.12,0,0,1,102.28,182.66Z"/><path class="cls-5" d="M106.77,186.29c0-4.11,1.73-6.21,4.32-6.21s4.31,2.12,4.31,6.21-1.72,6.31-4.31,6.31S106.77,190.4,106.77,186.29Zm6,0c0-3.29-.73-4-1.67-4s-1.68.76-1.68,4,.74,4.15,1.68,4.15S112.76,189.58,112.76,186.29Z"/><path class="cls-5" d="M116.8,186.29c0-4.11,1.73-6.21,4.32-6.21s4.32,2.12,4.32,6.21-1.73,6.31-4.32,6.31S116.8,190.4,116.8,186.29Zm6,0c0-3.29-.73-4-1.67-4s-1.67.76-1.67,4,.73,4.15,1.67,4.15S122.79,189.58,122.79,186.29Z"/><path class="cls-5" d="M101.62,338.4c0-.77.07-1.94.11-2.7h-.08c-.3.68-.64,1.35-1,2l-1.59,2.63h6.54v2.13H96.41v-1.93l4.4-7.26h3.42v12.06h-2.61Z"/><path class="cls-5" d="M106.77,339.29c0-4.11,1.73-6.21,4.32-6.21s4.31,2.12,4.31,6.21-1.72,6.31-4.31,6.31S106.77,343.4,106.77,339.29Zm6,0c0-3.29-.73-4.05-1.67-4.05s-1.68.76-1.68,4.05.74,4.15,1.68,4.15S112.76,342.58,112.76,339.29Z"/><path class="cls-5" d="M116.8,339.29c0-4.11,1.73-6.21,4.32-6.21s4.32,2.12,4.32,6.21-1.73,6.31-4.32,6.31S116.8,343.4,116.8,339.29Zm6,0c0-3.29-.73-4.05-1.67-4.05s-1.67.76-1.67,4.05.73,4.15,1.67,4.15S122.79,342.58,122.79,339.29Z"/><path class="cls-5" d="M97.36,490.12H100v-7H97.74v-1.73a8.3,8.3,0,0,0,3-1.1h2.06v9.81h2.26v2.25H97.36Z"/><path class="cls-5" d="M106.77,486.29c0-4.11,1.73-6.21,4.32-6.21s4.31,2.12,4.31,6.21-1.72,6.31-4.31,6.31S106.77,490.4,106.77,486.29Zm6,0c0-3.29-.73-4.05-1.67-4.05s-1.68.76-1.68,4.05.74,4.15,1.68,4.15S112.76,489.58,112.76,486.29Z"/><path class="cls-5" d="M116.8,486.29c0-4.11,1.73-6.21,4.32-6.21s4.32,2.12,4.32,6.21-1.73,6.31-4.32,6.31S116.8,490.4,116.8,486.29Zm6,0c0-3.29-.73-4.05-1.67-4.05s-1.67.76-1.67,4.05.73,4.15,1.67,4.15S122.79,489.58,122.79,486.29Z"/><path class="cls-5" d="M252.82,70.62c0-4.51,2.34-6.54,4.87-6.54a4.83,4.83,0,0,1,3.53,1.46l-1.48,1.67a2.67,2.67,0,0,0-1.87-.87c-1.4,0-2.51,1.07-2.51,4.28,0,3,.94,3.89,2,3.89.83,0,1.52-.59,1.52-2s-.67-1.76-1.58-1.76a2.22,2.22,0,0,0-1.88,1.3l-.12-1.82a3.36,3.36,0,0,1,2.54-1.45c2.06,0,3.59,1.17,3.59,3.73a3.87,3.87,0,0,1-4,4C255,76.6,252.82,74.86,252.82,70.62Z"/><path class="cls-5" d="M262.77,70.29c0-4.11,1.73-6.21,4.32-6.21s4.31,2.12,4.31,6.21-1.72,6.31-4.31,6.31S262.77,74.4,262.77,70.29Zm6,0c0-3.29-.73-4.05-1.67-4.05s-1.68.76-1.68,4.05.74,4.15,1.68,4.15S268.76,73.58,268.76,70.29Z"/><path class="cls-5" d="M272.8,70.29c0-4.11,1.73-6.21,4.32-6.21s4.32,2.12,4.32,6.21-1.73,6.31-4.32,6.31S272.8,74.4,272.8,70.29Zm6,0c0-3.29-.73-4.05-1.67-4.05s-1.67.76-1.67,4.05.73,4.15,1.67,4.15S278.79,73.58,278.79,70.29Z"/><path class="cls-5" d="M245.49,170.12h2.64v-7h-2.26v-1.73a8.36,8.36,0,0,0,3-1.1h2v9.81h2.26v2.26h-7.69Z"/><path class="cls-5" d="M255.37,170.85a1.69,1.69,0,1,1,1.69,1.75A1.69,1.69,0,0,1,255.37,170.85Z"/><path class="cls-5" d="M260.61,170.77c3.07-2.9,5.23-5,5.23-6.69a1.61,1.61,0,0,0-1.71-1.81A3.11,3.11,0,0,0,262,163.5L260.48,162a5.07,5.07,0,0,1,4-1.91,3.72,3.72,0,0,1,4,3.85c0,2-1.9,4.19-3.87,6.24.62-.07,1.46-.14,2-.14h2.42v2.35h-8.48Z"/><path class="cls-5" d="M270.64,166.29c0-4.11,1.72-6.21,4.31-6.21s4.32,2.12,4.32,6.21-1.72,6.31-4.32,6.31S270.64,170.4,270.64,166.29Zm6,0c0-3.29-.74-4-1.68-4s-1.67.76-1.67,4,.73,4.15,1.67,4.15S276.63,169.58,276.63,166.29Z"/><path class="cls-5" d="M280.67,166.29c0-4.11,1.72-6.21,4.32-6.21s4.31,2.12,4.31,6.21-1.72,6.31-4.31,6.31S280.67,170.4,280.67,166.29Zm6,0c0-3.29-.73-4-1.67-4s-1.68.76-1.68,4,.73,4.15,1.68,4.15S286.66,169.58,286.66,166.29Z"/><path class="cls-5" d="M258.28,307.66h-5.4v-2.35h8.39V307c-2.8,3.37-3.18,5.64-3.4,10.34h-2.81A16.11,16.11,0,0,1,258.28,307.66Z"/><path class="cls-5" d="M262.77,311.29c0-4.11,1.73-6.21,4.32-6.21s4.31,2.12,4.31,6.21-1.72,6.31-4.31,6.31S262.77,315.4,262.77,311.29Zm6,0c0-3.29-.73-4.05-1.67-4.05s-1.68.76-1.68,4.05.74,4.15,1.68,4.15S268.76,314.58,268.76,311.29Z"/><path class="cls-5" d="M272.8,311.29c0-4.11,1.73-6.21,4.32-6.21s4.32,2.12,4.32,6.21-1.73,6.31-4.32,6.31S272.8,315.4,272.8,311.29Zm6,0c0-3.29-.73-4.05-1.67-4.05s-1.67.76-1.67,4.05.73,4.15,1.67,4.15S278.79,314.58,278.79,311.29Z"/><path class="cls-5" d="M252.74,483.77c3.07-2.9,5.24-5,5.24-6.69a1.61,1.61,0,0,0-1.71-1.81,3.13,3.13,0,0,0-2.15,1.23L252.61,475a5.1,5.1,0,0,1,4-1.91,3.71,3.71,0,0,1,4,3.85c0,2-1.9,4.19-3.87,6.24.62-.07,1.46-.14,2-.14h2.43v2.34h-8.49Z"/><path class="cls-5" d="M262.77,479.29c0-4.11,1.73-6.21,4.32-6.21s4.31,2.12,4.31,6.21-1.72,6.31-4.31,6.31S262.77,483.4,262.77,479.29Zm6,0c0-3.29-.73-4.05-1.67-4.05s-1.68.76-1.68,4.05.74,4.15,1.68,4.15S268.76,482.58,268.76,479.29Z"/><path class="cls-5" d="M272.8,479.29c0-4.11,1.73-6.21,4.32-6.21s4.32,2.12,4.32,6.21-1.73,6.31-4.32,6.31S272.8,483.4,272.8,479.29Zm6,0c0-3.29-.73-4.05-1.67-4.05s-1.67.76-1.67,4.05.73,4.15,1.67,4.15S278.79,482.58,278.79,479.29Z"/><path class="cls-5" d="M400.88,25.77c3.07-2.9,5.23-5,5.23-6.69a1.61,1.61,0,0,0-1.71-1.81,3.09,3.09,0,0,0-2.14,1.23L400.75,17a5.07,5.07,0,0,1,4-1.91,3.72,3.72,0,0,1,4,3.85c0,2-1.9,4.19-3.88,6.24.63-.07,1.47-.14,2-.14h2.43v2.35h-8.48Z"/><path class="cls-5" d="M411.37,25.85a1.69,1.69,0,1,1,1.69,1.75A1.69,1.69,0,0,1,411.37,25.85Z"/><path class="cls-5" d="M417.23,25.12h2.63v-7H417.6V16.41a8.36,8.36,0,0,0,3-1.1h2.06v9.81h2.26v2.26h-7.69Z"/><path class="cls-5" d="M426.64,21.29c0-4.11,1.72-6.21,4.31-6.21s4.32,2.12,4.32,6.21S433.55,27.6,431,27.6,426.64,25.4,426.64,21.29Zm6,0c0-3.29-.74-4.05-1.68-4.05s-1.67.76-1.67,4.05.73,4.15,1.67,4.15S432.63,24.58,432.63,21.29Z"/><path class="cls-5" d="M436.67,21.29c0-4.11,1.72-6.21,4.32-6.21s4.31,2.12,4.31,6.21S443.58,27.6,441,27.6,436.67,25.4,436.67,21.29Zm6,0c0-3.29-.73-4.05-1.67-4.05s-1.68.76-1.68,4.05.73,4.15,1.68,4.15S442.66,24.58,442.66,21.29Z"/><path class="cls-5" d="M403.73,148.77c3.07-2.9,5.23-5,5.23-6.69a1.61,1.61,0,0,0-1.71-1.81,3.09,3.09,0,0,0-2.14,1.23L403.6,140a5.07,5.07,0,0,1,4-1.91,3.72,3.72,0,0,1,4,3.85c0,2-1.9,4.19-3.88,6.24.62-.07,1.46-.14,2-.14h2.43v2.35h-8.48Z"/><path class="cls-5" d="M413.76,144.29c0-4.11,1.72-6.21,4.31-6.21s4.32,2.12,4.32,6.21-1.73,6.31-4.32,6.31S413.76,148.4,413.76,144.29Zm6,0c0-3.29-.74-4-1.68-4s-1.67.76-1.67,4,.73,4.15,1.67,4.15S419.75,147.58,419.75,144.29Z"/><path class="cls-5" d="M423.79,144.29c0-4.11,1.72-6.21,4.31-6.21s4.32,2.12,4.32,6.21-1.72,6.31-4.32,6.31S423.79,148.4,423.79,144.29Zm6,0c0-3.29-.74-4-1.68-4s-1.67.76-1.67,4,.73,4.15,1.67,4.15S429.78,147.58,429.78,144.29Z"/><path class="cls-5" d="M433.82,144.29c0-4.11,1.72-6.21,4.32-6.21s4.31,2.12,4.31,6.21-1.72,6.31-4.31,6.31S433.82,148.4,433.82,144.29Zm6,0c0-3.29-.73-4-1.67-4s-1.68.76-1.68,4,.74,4.15,1.68,4.15S439.81,147.58,439.81,144.29Z"/><path class="cls-5" d="M400.88,276.77c3.07-2.9,5.23-5,5.23-6.69a1.61,1.61,0,0,0-1.71-1.81,3.09,3.09,0,0,0-2.14,1.23L400.75,268a5.07,5.07,0,0,1,4-1.91,3.72,3.72,0,0,1,4,3.85c0,2-1.9,4.19-3.88,6.24.63-.07,1.47-.14,2-.14h2.43v2.35h-8.48Z"/><path class="cls-5" d="M411.37,276.85a1.69,1.69,0,1,1,1.69,1.75A1.69,1.69,0,0,1,411.37,276.85Z"/><path class="cls-5" d="M416.32,276.89l1.29-1.76a3.89,3.89,0,0,0,2.64,1.22c1.18,0,2-.51,2-1.44s-.62-1.71-3.24-1.71v-2c2.17,0,2.85-.66,2.85-1.62s-.54-1.33-1.49-1.33a3.25,3.25,0,0,0-2.25,1.06l-1.42-1.7a5.67,5.67,0,0,1,3.8-1.55c2.5,0,4.16,1.19,4.16,3.31a2.82,2.82,0,0,1-2,2.68v.08a3,3,0,0,1,2.4,2.94c0,2.25-2.06,3.51-4.48,3.51A5.3,5.3,0,0,1,416.32,276.89Z"/><path class="cls-5" d="M426.64,272.29c0-4.11,1.72-6.21,4.31-6.21s4.32,2.12,4.32,6.21-1.72,6.31-4.32,6.31S426.64,276.4,426.64,272.29Zm6,0c0-3.29-.74-4.05-1.68-4.05s-1.67.76-1.67,4.05.73,4.15,1.67,4.15S432.63,275.58,432.63,272.29Z"/><path class="cls-5" d="M436.67,272.29c0-4.11,1.72-6.21,4.32-6.21s4.31,2.12,4.31,6.21-1.72,6.31-4.31,6.31S436.67,276.4,436.67,272.29Zm6,0c0-3.29-.73-4.05-1.67-4.05s-1.68.76-1.68,4.05.73,4.15,1.68,4.15S442.66,275.58,442.66,272.29Z"/><path class="cls-5" d="M408.86,451.15l1.48-1.67a2.67,2.67,0,0,0,1.87.87c1.41,0,2.5-1.07,2.5-4.29,0-3-.94-3.88-1.95-3.88-.83,0-1.52.58-1.52,1.95s.67,1.75,1.58,1.75a2.22,2.22,0,0,0,1.88-1.3l.12,1.83a3.39,3.39,0,0,1-2.54,1.45c-2.06,0-3.59-1.18-3.59-3.73a3.88,3.88,0,0,1,4-4.05c2.34,0,4.56,1.75,4.56,6,0,4.51-2.34,6.54-4.87,6.54A4.82,4.82,0,0,1,408.86,451.15Z"/><path class="cls-5" d="M418.77,446.29c0-4.11,1.73-6.21,4.32-6.21s4.31,2.12,4.31,6.21-1.72,6.31-4.31,6.31S418.77,450.4,418.77,446.29Zm6,0c0-3.29-.73-4.05-1.67-4.05s-1.68.76-1.68,4.05.74,4.15,1.68,4.15S424.76,449.58,424.76,446.29Z"/><path class="cls-5" d="M428.8,446.29c0-4.11,1.73-6.21,4.32-6.21s4.32,2.12,4.32,6.21-1.73,6.31-4.32,6.31S428.8,450.4,428.8,446.29Zm6,0c0-3.29-.73-4.05-1.67-4.05s-1.67.76-1.67,4.05.73,4.15,1.67,4.15S434.79,449.58,434.79,446.29Z"/><path class="cls-5" d="M90.73,530.77c3.07-2.9,5.23-5,5.23-6.69a1.61,1.61,0,0,0-1.71-1.81,3.09,3.09,0,0,0-2.14,1.23L90.6,522a5.07,5.07,0,0,1,4-1.91,3.72,3.72,0,0,1,4,3.85c0,2-1.9,4.19-3.88,6.24.62-.07,1.47-.14,2-.14h2.43v2.34H90.73Z"/><path class="cls-5" d="M100.76,526.29c0-4.11,1.72-6.21,4.31-6.21s4.32,2.12,4.32,6.21-1.73,6.31-4.32,6.31S100.76,530.4,100.76,526.29Zm6,0c0-3.29-.74-4-1.68-4s-1.67.76-1.67,4,.73,4.15,1.67,4.15S106.75,529.58,106.75,526.29Z"/><path class="cls-5" d="M110.79,530.77c3.07-2.9,5.24-5,5.24-6.69a1.61,1.61,0,0,0-1.71-1.81,3.13,3.13,0,0,0-2.15,1.23L110.66,522a5.09,5.09,0,0,1,4-1.91,3.71,3.71,0,0,1,4,3.85c0,2-1.9,4.19-3.87,6.24.62-.07,1.46-.14,2-.14h2.43v2.34h-8.49Z"/><path class="cls-5" d="M120.82,526.29c0-4.11,1.72-6.21,4.32-6.21s4.31,2.12,4.31,6.21-1.72,6.31-4.31,6.31S120.82,530.4,120.82,526.29Zm6,0c0-3.29-.73-4-1.67-4s-1.68.76-1.68,4,.74,4.15,1.68,4.15S126.81,529.58,126.81,526.29Z"/><path class="cls-5" d="M246.73,530.77c3.07-2.9,5.23-5,5.23-6.69a1.61,1.61,0,0,0-1.71-1.81,3.09,3.09,0,0,0-2.14,1.23L246.6,522a5.07,5.07,0,0,1,4-1.91,3.72,3.72,0,0,1,4,3.85c0,2-1.9,4.19-3.88,6.24.62-.07,1.47-.14,2-.14h2.43v2.34h-8.48Z"/><path class="cls-5" d="M256.76,526.29c0-4.11,1.72-6.21,4.31-6.21s4.32,2.12,4.32,6.21-1.73,6.31-4.32,6.31S256.76,530.4,256.76,526.29Zm6,0c0-3.29-.74-4-1.68-4s-1.67.76-1.67,4,.73,4.15,1.67,4.15S262.75,529.58,262.75,526.29Z"/><path class="cls-5" d="M266.5,530.89l1.29-1.76a3.91,3.91,0,0,0,2.64,1.22c1.18,0,2-.51,2-1.44s-.61-1.71-3.24-1.71v-2c2.17,0,2.85-.66,2.85-1.62s-.54-1.33-1.49-1.33a3.29,3.29,0,0,0-2.25,1.06l-1.41-1.7a5.65,5.65,0,0,1,3.79-1.55c2.5,0,4.16,1.19,4.16,3.31a2.82,2.82,0,0,1-2,2.68v.08a3,3,0,0,1,2.4,2.94c0,2.25-2.05,3.51-4.48,3.51A5.31,5.31,0,0,1,266.5,530.89Z"/><path class="cls-5" d="M276.82,526.29c0-4.11,1.72-6.21,4.32-6.21s4.31,2.12,4.31,6.21-1.72,6.31-4.31,6.31S276.82,530.4,276.82,526.29Zm6,0c0-3.29-.73-4-1.67-4s-1.68.76-1.68,4,.74,4.15,1.68,4.15S282.81,529.58,282.81,526.29Z"/><path class="cls-5" d="M402.73,530.77c3.07-2.9,5.23-5,5.23-6.69a1.61,1.61,0,0,0-1.71-1.81,3.09,3.09,0,0,0-2.14,1.23L402.6,522a5.07,5.07,0,0,1,4-1.91,3.72,3.72,0,0,1,4,3.85c0,2-1.9,4.19-3.88,6.24.62-.07,1.46-.14,2-.14h2.43v2.34h-8.48Z"/><path class="cls-5" d="M412.76,526.29c0-4.11,1.72-6.21,4.31-6.21s4.32,2.12,4.32,6.21-1.73,6.31-4.32,6.31S412.76,530.4,412.76,526.29Zm6,0c0-3.29-.74-4-1.68-4s-1.67.76-1.67,4,.73,4.15,1.67,4.15S418.75,529.58,418.75,526.29Z"/><path class="cls-5" d="M422.52,530.91l1.26-1.77a3.85,3.85,0,0,0,2.6,1.21,1.79,1.79,0,0,0,2-1.89,1.75,1.75,0,0,0-1.9-1.87,2.84,2.84,0,0,0-1.78.62l-1.25-.81.33-6.09h6.85v2.35h-4.44l-.19,2.26a3.22,3.22,0,0,1,1.34-.28,3.53,3.53,0,0,1,3.84,3.75,4.16,4.16,0,0,1-4.43,4.21A5.75,5.75,0,0,1,422.52,530.91Z"/><path class="cls-5" d="M432.82,526.29c0-4.11,1.72-6.21,4.32-6.21s4.31,2.12,4.31,6.21-1.72,6.31-4.31,6.31S432.82,530.4,432.82,526.29Zm6,0c0-3.29-.73-4-1.67-4s-1.68.76-1.68,4,.74,4.15,1.68,4.15S438.81,529.58,438.81,526.29Z"/><line class="cls-7" x1="0.09" y1="118.5" x2="532.58" y2="118.5"/><line class="cls-7" x1="0.6" y1="239.5" x2="533.09" y2="239.5"/><line class="cls-7" x1="0.6" y1="374.5" x2="533.09" y2="374.5"/><line class="cls-7" x1="0.6" y1="502.5" x2="533.09" y2="502.5"/></g></g></svg>