<svg xmlns="http://www.w3.org/2000/svg" viewBox="0 0 731.41 186.5"><defs><style>.cls-1,.cls-5,.cls-8,.cls-9{fill:none;stroke-miterlimit:10;}.cls-1{stroke:#666;}.cls-2{fill:#666;}.cls-3{fill:#477452;}.cls-4{fill:#4ec66b;}.cls-5,.cls-8,.cls-9{stroke:#999;}.cls-5{stroke-width:3px;}.cls-6{fill:#333;}.cls-7{fill:#fff;}.cls-9{stroke-dasharray:7.76 7.76;}</style></defs><g id="Layer_2" data-name="Layer 2"><g id="Layer_1-2" data-name="Layer 1"><polyline class="cls-1" points="210.33 91.47 195.69 91.47 195.69 123.63 153.56 123.63"/><polygon class="cls-2" points="209.23 87.73 215.71 91.47 209.23 95.22 209.23 87.73"/><polygon class="cls-2" points="154.65 119.89 148.18 123.63 154.65 127.37 154.65 119.89"/><polyline class="cls-1" points="211.33 123.63 195.95 123.63 195.95 156.81 211.33 156.81"/><polygon class="cls-2" points="210.23 119.89 216.71 123.63 210.23 127.37 210.23 119.89"/><polygon class="cls-2" points="210.23 160.55 216.71 156.81 210.23 153.07 210.23 160.55"/><rect class="cls-3" x="25.34" y="124.83" width="56.61" height="50.54" rx="1"/><path class="cls-3" d="M81,125.83v48.54H26.34V125.83H81m0-2H26.34a2,2,0,0,0-2,2v48.54a2,2,0,0,0,2,2H81a2,2,0,0,0,2-2V125.83a2,2,0,0,0-2-2Z"/><rect class="cls-4" x="25.07" y="88.38" width="57.13" height="35.38" rx="1"/><path class="cls-4" d="M81.2,89.38v33.39H26.07V89.38H81.2m0-2H26.07a2,2,0,0,0-2,2v33.39a2,2,0,0,0,2,2H81.2a2,2,0,0,0,2-2V89.38a2,2,0,0,0-2-2Z"/><rect class="cls-3" x="109.34" y="143.71" width="56.61" height="31.45" rx="1"/><path class="cls-3" d="M165,144.71v29.45H110.34V144.71H165m0-2H110.34a2,2,0,0,0-2,2v29.45a2,2,0,0,0,2,2H165a2,2,0,0,0,2-2V144.71a2,2,0,0,0-2-2Z"/><rect class="cls-4" x="109.07" y="107.44" width="57.13" height="34.39" rx="1"/><path class="cls-4" d="M165.2,108.44v32.39H110.07V108.44H165.2m0-2H110.07a2,2,0,0,0-2,2v32.39a2,2,0,0,0,2,2H165.2a2,2,0,0,0,2-2V108.44a2,2,0,0,0-2-2Z"/><rect class="cls-3" x="481.34" y="143.71" width="56.61" height="31.45" rx="1"/><path class="cls-3" d="M537,144.71v29.45H482.34V144.71H537m0-2H482.34a2,2,0,0,0-2,2v29.45a2,2,0,0,0,2,2H537a2,2,0,0,0,2-2V144.71a2,2,0,0,0-2-2Z"/><rect class="cls-4" x="481.07" y="111.28" width="57.13" height="30.77" rx="1"/><path class="cls-4" d="M537.2,112.28v28.77H482.07V112.28H537.2m0-2H482.07a2,2,0,0,0-2,2v28.77a2,2,0,0,0,2,2H537.2a2,2,0,0,0,2-2V112.28a2,2,0,0,0-2-2Z"/><line class="cls-5" y1="177.99" x2="234.68" y2="177.99"/><line class="cls-5" x1="445" y1="177.99" x2="567.68" y2="177.99"/><path class="cls-6" d="M18.93,16.29h2.72l4.27,13.08H23.46l-2-7c-.42-1.38-.8-2.88-1.18-4.31h-.08c-.36,1.45-.75,2.93-1.16,4.31l-2,7H14.67ZM17.19,24h6.16v1.82H17.19Z"/><path class="cls-6" d="M27.14,25.71V19.55h2.31v5.86c0,1.62.46,2.23,1.52,2.23.87,0,1.44-.41,2.18-1.37V19.55h2.31v9.82H33.57l-.18-1.45h-.06a4,4,0,0,1-3.16,1.69C28.06,29.61,27.14,28.19,27.14,25.71Z"/><path class="cls-6" d="M37.4,28.24l1.07-1.46a4.34,4.34,0,0,0,2.71,1.1c1.07,0,1.58-.51,1.58-1.18s-1.07-1.19-2.11-1.59c-1.29-.49-2.76-1.23-2.76-2.87s1.37-2.93,3.57-2.93a5.3,5.3,0,0,1,3.27,1.17L43.67,21.9A3.64,3.64,0,0,0,41.52,21c-1,0-1.46.47-1.46,1.09,0,.78,1,1.07,2.06,1.46,1.33.5,2.82,1.14,2.82,3s-1.34,3.05-3.82,3.05A6.08,6.08,0,0,1,37.4,28.24Z"/><path class="cls-6" d="M46.94,26.06V21.38h-1.4V19.65l1.52-.1.27-2.69h1.91v2.69h2.51v1.83H49.24v4.67c0,1.16.45,1.73,1.4,1.73a3.15,3.15,0,0,0,1-.22l.39,1.69a6.23,6.23,0,0,1-2,.36C47.78,29.61,46.94,28.18,46.94,26.06Z"/><path class="cls-6" d="M53.81,19.55H55.7l.18,1.75h.06a3.35,3.35,0,0,1,2.8-2,2.45,2.45,0,0,1,1.11.2l-.4,2a3.24,3.24,0,0,0-1-.16c-.78,0-1.73.53-2.32,2v6H53.81Z"/><path class="cls-6" d="M60.23,26.73c0-2.1,1.74-3.2,5.77-3.63,0-1.06-.45-1.94-1.78-1.94a5.38,5.38,0,0,0-2.76,1l-.85-1.54a7.65,7.65,0,0,1,4-1.28c2.46,0,3.67,1.51,3.67,4.24v5.82H66.42l-.18-1.09h-.06a4.72,4.72,0,0,1-3.05,1.33A2.75,2.75,0,0,1,60.23,26.73Zm5.77,0V24.53c-2.66.34-3.55,1-3.55,2S63,27.8,63.87,27.8A3.07,3.07,0,0,0,66,26.74Z"/><path class="cls-6" d="M71.07,26.84V15.24h2.31V27c0,.57.25.77.49.77a1.3,1.3,0,0,0,.36,0l.29,1.72a3.24,3.24,0,0,1-1.21.2C71.67,29.61,71.07,28.56,71.07,26.84Z"/><path class="cls-6" d="M76.23,16.52a1.43,1.43,0,0,1,2.85,0,1.43,1.43,0,0,1-2.85,0Zm.26,3H78.8v9.82H76.49Z"/><path class="cls-6" d="M81.21,26.73c0-2.1,1.74-3.2,5.77-3.63,0-1.06-.45-1.94-1.78-1.94a5.38,5.38,0,0,0-2.76,1l-.85-1.54a7.65,7.65,0,0,1,4-1.28c2.46,0,3.67,1.51,3.67,4.24v5.82H87.4l-.18-1.09h-.06a4.72,4.72,0,0,1-3,1.33A2.75,2.75,0,0,1,81.21,26.73Zm5.77,0V24.53c-2.66.34-3.55,1-3.55,2S84,27.8,84.85,27.8A3.09,3.09,0,0,0,87,26.74Z"/><path class="cls-6" d="M114.69,22.87c0-4.28,2.68-6.82,6-6.82a5.19,5.19,0,0,1,3.77,1.66l-1.24,1.49a3.43,3.43,0,0,0-2.48-1.14c-2.13,0-3.66,1.81-3.66,4.74s1.41,4.8,3.6,4.8a3.67,3.67,0,0,0,2.79-1.35l1.24,1.46a5.21,5.21,0,0,1-4.12,1.9C117.29,29.61,114.69,27.2,114.69,22.87Z"/><path class="cls-6" d="M126.69,15.24H129V18.9l-.1,1.89a4.57,4.57,0,0,1,3.15-1.48c2.1,0,3,1.42,3,3.9v6.16h-2.3V23.51c0-1.62-.47-2.23-1.53-2.23A3.09,3.09,0,0,0,129,22.51v6.86h-2.31Z"/><path class="cls-6" d="M137.59,16.52a1.43,1.43,0,0,1,2.85,0,1.43,1.43,0,0,1-2.85,0Zm.26,3h2.31v9.82h-2.31Z"/><path class="cls-6" d="M143.09,26.84V15.24h2.31V27c0,.57.25.77.49.77a1.3,1.3,0,0,0,.36,0l.29,1.72a3.24,3.24,0,0,1-1.21.2C143.69,29.61,143.09,28.56,143.09,26.84Z"/><path class="cls-6" d="M147.87,24.47c0-3.2,2.21-5.16,4.52-5.16,2.66,0,4.06,1.92,4.06,4.66a6.14,6.14,0,0,1-.1,1.12h-6.24a2.81,2.81,0,0,0,2.9,2.74,4.26,4.26,0,0,0,2.28-.71l.78,1.43a6.09,6.09,0,0,1-3.36,1.06C150,29.61,147.87,27.71,147.87,24.47Zm6.59-.95c0-1.51-.67-2.43-2-2.43a2.47,2.47,0,0,0-2.35,2.43Z"/><path class="cls-6" d="M477.07,22.87c0-4.28,2.68-6.82,6-6.82a5.19,5.19,0,0,1,3.77,1.66l-1.24,1.49a3.42,3.42,0,0,0-2.48-1.13c-2.13,0-3.66,1.8-3.66,4.73s1.41,4.8,3.6,4.8a3.67,3.67,0,0,0,2.79-1.35l1.24,1.46a5.21,5.21,0,0,1-4.12,1.9C479.68,29.61,477.07,27.2,477.07,22.87Z"/><path class="cls-6" d="M489.07,15.24h2.31V18.9l-.1,1.89a4.57,4.57,0,0,1,3.15-1.48c2.1,0,3,1.42,3,3.9v6.16h-2.3V23.51c0-1.62-.47-2.23-1.53-2.23a3.11,3.11,0,0,0-2.24,1.23v6.86h-2.31Z"/><path class="cls-6" d="M500,16.52a1.43,1.43,0,0,1,2.85,0,1.43,1.43,0,0,1-2.85,0Zm.26,3h2.31v9.82h-2.31Z"/><path class="cls-6" d="M505.47,26.84V15.24h2.31V27c0,.57.25.77.49.77a1.3,1.3,0,0,0,.36,0l.29,1.72a3.24,3.24,0,0,1-1.21.2C506.07,29.61,505.47,28.56,505.47,26.84Z"/><path class="cls-6" d="M510.25,24.47c0-3.2,2.21-5.16,4.52-5.16,2.66,0,4.06,1.92,4.06,4.66a6.14,6.14,0,0,1-.1,1.12h-6.24a2.8,2.8,0,0,0,2.9,2.74,4.26,4.26,0,0,0,2.28-.71l.79,1.43a6.12,6.12,0,0,1-3.37,1.06C512.37,29.61,510.25,27.71,510.25,24.47Zm6.59-.95c0-1.51-.67-2.43-2-2.43a2.47,2.47,0,0,0-2.35,2.43Z"/><path class="cls-6" d="M525.38,26.06V21.38H524V19.65l1.52-.1.27-2.68h1.91v2.68h2.51v1.83h-2.51v4.68c0,1.15.45,1.72,1.39,1.72a3.15,3.15,0,0,0,1-.22l.39,1.69a6.28,6.28,0,0,1-2,.36C526.22,29.61,525.38,28.18,525.38,26.06Z"/><path class="cls-6" d="M531.29,24.47c0-3.28,2.22-5.16,4.67-5.16s4.67,1.88,4.67,5.16-2.22,5.14-4.67,5.14S531.29,27.72,531.29,24.47Zm7,0c0-2-.86-3.28-2.3-3.28s-2.31,1.31-2.31,3.28.87,3.26,2.31,3.26S538.26,26.44,538.26,24.47Z"/><path class="cls-6" d="M498.41,47.63V40.29h2.32v7.52c0,2.85,1.06,3.79,2.65,3.79s2.7-.94,2.7-3.79V40.29h2.24v7.34c0,4.3-1.91,6-4.94,6S498.41,51.93,498.41,47.63Z"/><path class="cls-6" d="M510.48,51.7l1.35-1.6a5.11,5.11,0,0,0,3.41,1.5c1.47,0,2.28-.67,2.28-1.69s-.84-1.42-2-1.93l-1.79-.77a3.76,3.76,0,0,1-2.65-3.47c0-2.09,1.84-3.69,4.4-3.69a5.7,5.7,0,0,1,4,1.67l-1.19,1.47a4.19,4.19,0,0,0-2.84-1.12c-1.24,0-2.05.58-2.05,1.53s1,1.41,2.08,1.85l1.76.74c1.56.65,2.65,1.64,2.65,3.53,0,2.12-1.76,3.89-4.7,3.89A6.72,6.72,0,0,1,510.48,51.7Z"/><path class="cls-6" d="M635.5,125.36h3.29c4,0,6.2,2.35,6.2,6.52s-2.16,6.61-6.13,6.61H635.5Zm3.16,11.76c3.07,0,4.6-1.92,4.6-5.24s-1.53-5.15-4.6-5.15h-1.49v10.39Z"/><path class="cls-6" d="M647.35,125.71a1.14,1.14,0,1,1,1.14,1.06A1.06,1.06,0,0,1,647.35,125.71Zm.3,3.06h1.65v9.72h-1.65Z"/><path class="cls-6" d="M651.49,137.38l.81-1.08a4.41,4.41,0,0,0,2.87,1.15c1.28,0,1.92-.68,1.92-1.51,0-1-1.15-1.44-2.23-1.84-1.36-.5-2.9-1.17-2.9-2.81s1.25-2.76,3.35-2.76a4.94,4.94,0,0,1,3,1.09l-.79,1.06a3.64,3.64,0,0,0-2.22-.87c-1.22,0-1.79.65-1.79,1.4,0,.92,1.06,1.27,2.16,1.68,1.4.53,3,1.1,3,3,0,1.58-1.26,2.89-3.55,2.89A5.83,5.83,0,0,1,651.49,137.38Z"/><path class="cls-6" d="M660.84,135.49v-5.38h-1.45v-1.25l1.52-.09.2-2.73h1.37v2.73h2.64v1.34h-2.64v5.4c0,1.19.39,1.88,1.51,1.88a3.33,3.33,0,0,0,1.11-.26l.31,1.24a5.65,5.65,0,0,1-1.8.36C661.54,138.73,660.84,137.42,660.84,135.49Z"/><path class="cls-6" d="M667.31,128.77h1.36l.14,1.77h.05a3.36,3.36,0,0,1,2.77-2,2.22,2.22,0,0,1,1,.2l-.31,1.44a2.9,2.9,0,0,0-.94-.16c-.83,0-1.81.59-2.47,2.24v6.24h-1.64Z"/><path class="cls-6" d="M674,125.71a1.14,1.14,0,0,1,2.27,0,1.14,1.14,0,0,1-2.27,0Zm.3,3.06h1.64v9.72h-1.64Z"/><path class="cls-6" d="M680.69,137.49h-.05l-.16,1h-1.31V124.24h1.64v3.9l0,1.74a4.94,4.94,0,0,1,3-1.35c2.52,0,3.87,1.95,3.87,4.95,0,3.32-2,5.25-4.21,5.25A4.34,4.34,0,0,1,680.69,137.49Zm5.29-4c0-2.15-.74-3.59-2.57-3.59a4,4,0,0,0-2.6,1.33v5.1a3.76,3.76,0,0,0,2.37,1C684.79,137.35,686,135.9,686,133.5Z"/><path class="cls-6" d="M690.1,134.93v-6.16h1.64v5.95c0,1.81.55,2.58,1.84,2.58,1,0,1.68-.49,2.6-1.63v-6.9h1.65v9.72h-1.36l-.14-1.52h-.06a4.12,4.12,0,0,1-3.2,1.76C691,138.73,690.1,137.41,690.1,134.93Z"/><path class="cls-6" d="M701.4,135.49v-5.38H700v-1.25l1.52-.09.2-2.73H703v2.73h2.64v1.34H703v5.4c0,1.19.39,1.88,1.51,1.88a3.22,3.22,0,0,0,1.1-.26l.32,1.24a5.71,5.71,0,0,1-1.8.36C702.1,138.73,701.4,137.42,701.4,135.49Z"/><path class="cls-6" d="M707.57,125.71a1.14,1.14,0,0,1,2.27,0,1.14,1.14,0,0,1-2.27,0Zm.3,3.06h1.64v9.72h-1.64Z"/><path class="cls-6" d="M712.07,133.64c0-3.24,2.12-5.11,4.5-5.11s4.51,1.87,4.51,5.11-2.12,5.09-4.51,5.09S712.07,136.86,712.07,133.64Zm7.31,0c0-2.22-1.14-3.74-2.81-3.74s-2.8,1.52-2.8,3.74,1.13,3.72,2.8,3.72S719.38,135.87,719.38,133.64Z"/><path class="cls-6" d="M723.63,128.77H725l.14,1.4h0a4.66,4.66,0,0,1,3.26-1.64c2,0,3,1.32,3,3.8v6.16h-1.64v-6c0-1.81-.55-2.58-1.84-2.58-1,0-1.68.5-2.66,1.49v7h-1.64Z"/><path class="cls-6" d="M635.5,156.36h3.75c2.94,0,4.93,1,4.93,3.87s-2,4.06-4.85,4.06h-2.16v5.2H635.5Zm3.62,6.57c2.3,0,3.39-.83,3.39-2.7s-1.16-2.51-3.47-2.51h-1.87v5.21Z"/><path class="cls-6" d="M646.67,159.77H648l.14,1.77h.05a3.36,3.36,0,0,1,2.77-2,2.22,2.22,0,0,1,1,.2l-.31,1.44a2.91,2.91,0,0,0-1-.16c-.82,0-1.8.59-2.45,2.24v6.24h-1.65Z"/><path class="cls-6" d="M652.69,164.64c0-3.24,2.12-5.11,4.5-5.11s4.51,1.87,4.51,5.11-2.12,5.09-4.51,5.09S652.69,167.86,652.69,164.64Zm7.31,0c0-2.22-1.13-3.74-2.81-3.74s-2.8,1.52-2.8,3.74,1.13,3.72,2.8,3.72S660,166.87,660,164.64Z"/><path class="cls-6" d="M663.56,164.64c0-3.15,2-5.11,4.2-5.11a4,4,0,0,1,2.73,1.13l-.07-1.67v-3.75h1.65v14.25h-1.36l-.14-1.15h-.06a4.27,4.27,0,0,1-3,1.39C665.13,169.73,663.56,167.88,663.56,164.64Zm6.86,2.38v-5.1a3.47,3.47,0,0,0-2.37-1c-1.56,0-2.79,1.5-2.79,3.72s1,3.72,2.67,3.72A3.36,3.36,0,0,0,670.42,167Z"/><path class="cls-6" d="M675.22,165.93v-6.16h1.64v5.95c0,1.81.55,2.58,1.84,2.58,1,0,1.68-.49,2.6-1.63v-6.9H683v9.72h-1.36l-.14-1.52h-.06a4.12,4.12,0,0,1-3.2,1.76C676.14,169.73,675.22,168.41,675.22,165.93Z"/><path class="cls-6" d="M685.51,164.64c0-3.24,2.19-5.11,4.67-5.11a4.1,4.1,0,0,1,2.85,1.14l-.84,1.09a2.84,2.84,0,0,0-1.93-.86c-1.76,0-3,1.52-3,3.74s1.22,3.72,3,3.72a3.51,3.51,0,0,0,2.29-1l.71,1.11a4.71,4.71,0,0,1-3.14,1.23C687.48,169.73,685.51,167.86,685.51,164.64Z"/><path class="cls-6" d="M695.44,166.49v-5.38H694v-1.25l1.52-.09.2-2.73h1.37v2.73h2.64v1.34h-2.64v5.4c0,1.19.39,1.88,1.51,1.88a3.22,3.22,0,0,0,1.1-.26l.32,1.24a5.65,5.65,0,0,1-1.8.36C696.14,169.73,695.44,168.42,695.44,166.49Z"/><path class="cls-6" d="M701.61,156.71a1.14,1.14,0,0,1,2.27,0,1.14,1.14,0,0,1-2.27,0Zm.3,3.06h1.64v9.72h-1.64Z"/><path class="cls-6" d="M706.11,164.64c0-3.24,2.12-5.11,4.5-5.11s4.51,1.87,4.51,5.11-2.12,5.09-4.51,5.09S706.11,167.86,706.11,164.64Zm7.31,0c0-2.22-1.14-3.74-2.81-3.74s-2.8,1.52-2.8,3.74,1.13,3.72,2.8,3.72S713.42,166.87,713.42,164.64Z"/><path class="cls-6" d="M717.67,159.77H719l.14,1.4h.05a4.66,4.66,0,0,1,3.26-1.64c2,0,3,1.32,3,3.8v6.16h-1.64v-6c0-1.81-.55-2.58-1.84-2.58-1,0-1.68.5-2.66,1.49v7h-1.64Z"/><path class="cls-2" d="M41.48,76.94l1.29-1.76a3.91,3.91,0,0,0,2.64,1.22c1.18,0,2-.52,2-1.44s-.62-1.71-3.25-1.71v-2c2.17,0,2.85-.66,2.85-1.62s-.54-1.33-1.48-1.33a3.29,3.29,0,0,0-2.26,1.06l-1.41-1.7a5.65,5.65,0,0,1,3.79-1.55c2.51,0,4.16,1.19,4.16,3.31a2.84,2.84,0,0,1-2,2.68v.08a3,3,0,0,1,2.41,2.94c0,2.24-2.06,3.51-4.49,3.51A5.33,5.33,0,0,1,41.48,76.94Z"/><path class="cls-2" d="M52.27,76.9A1.69,1.69,0,1,1,54,78.65,1.69,1.69,0,0,1,52.27,76.9Z"/><path class="cls-2" d="M62.38,71.45c0-.77.07-1.94.11-2.71h-.07c-.31.69-.65,1.35-1,2l-1.59,2.64h6.54v2.12H57.17V73.61l4.4-7.25H65V78.42H62.38Z"/><path class="cls-7" d="M42.39,109.17H45v-7H42.77v-1.73a8.3,8.3,0,0,0,3-1.1h2.06v9.81h2.26v2.25H42.39Z"/><path class="cls-7" d="M52.27,109.9A1.69,1.69,0,1,1,54,111.65,1.69,1.69,0,0,1,52.27,109.9Z"/><path class="cls-7" d="M57.51,109.82c3.07-2.9,5.23-5,5.23-6.69A1.61,1.61,0,0,0,61,101.32a3.09,3.09,0,0,0-2.14,1.23L57.37,101a5.1,5.1,0,0,1,4-1.91,3.71,3.71,0,0,1,4,3.85c0,2-1.89,4.19-3.87,6.23.62-.06,1.46-.13,2-.13H66v2.34H57.51Z"/><path class="cls-7" d="M41.77,151.82c3.07-2.9,5.24-5,5.24-6.69a1.61,1.61,0,0,0-1.71-1.81,3.09,3.09,0,0,0-2.14,1.23L41.64,143a5.09,5.09,0,0,1,4-1.91,3.71,3.71,0,0,1,4,3.85c0,2-1.9,4.19-3.87,6.23.62-.06,1.46-.13,2-.13h2.43v2.34H41.77Z"/><path class="cls-7" d="M52.27,151.9A1.69,1.69,0,1,1,54,153.65,1.69,1.69,0,0,1,52.27,151.9Z"/><path class="cls-7" d="M57.51,151.82c3.07-2.9,5.23-5,5.23-6.69A1.61,1.61,0,0,0,61,143.32a3.09,3.09,0,0,0-2.14,1.23L57.37,143a5.1,5.1,0,0,1,4-1.91,3.71,3.71,0,0,1,4,3.85c0,2-1.89,4.19-3.87,6.23.62-.06,1.46-.13,2-.13H66v2.34H57.51Z"/><path class="cls-2" d="M124.77,98.82c3.07-2.9,5.24-5,5.24-6.69a1.61,1.61,0,0,0-1.71-1.81,3.09,3.09,0,0,0-2.14,1.23L124.64,90a5.09,5.09,0,0,1,4-1.91,3.71,3.71,0,0,1,4,3.85c0,2-1.9,4.19-3.87,6.23.62-.06,1.46-.13,2-.13h2.43v2.34h-8.49Z"/><path class="cls-2" d="M135.27,98.9a1.69,1.69,0,1,1,1.68,1.75A1.69,1.69,0,0,1,135.27,98.9Z"/><path class="cls-2" d="M140.62,99.2l1.48-1.67a2.71,2.71,0,0,0,1.87.87c1.42,0,2.51-1.07,2.51-4.29,0-3-.94-3.88-2-3.88-.83,0-1.52.58-1.52,1.94s.67,1.76,1.58,1.76a2.22,2.22,0,0,0,1.88-1.3l.12,1.83A3.38,3.38,0,0,1,144,95.9c-2.06,0-3.59-1.17-3.59-3.73a3.88,3.88,0,0,1,4-4c2.34,0,4.57,1.75,4.57,6,0,4.51-2.34,6.54-4.88,6.54A4.82,4.82,0,0,1,140.62,99.2Z"/><path class="cls-7" d="M125.39,130.17H128v-7h-2.26v-1.73a8.3,8.3,0,0,0,3-1.1h2.06v9.81h2.26v2.25h-7.69Z"/><path class="cls-7" d="M135.27,130.9a1.69,1.69,0,1,1,1.68,1.75A1.69,1.69,0,0,1,135.27,130.9Z"/><path class="cls-7" d="M140.23,131l1.26-1.77a3.88,3.88,0,0,0,2.61,1.21,1.79,1.79,0,0,0,2-1.89,1.74,1.74,0,0,0-1.89-1.87,2.8,2.8,0,0,0-1.79.62l-1.24-.81.33-6.09h6.84v2.35h-4.43l-.2,2.26a3.1,3.1,0,0,1,1.34-.28,3.53,3.53,0,0,1,3.84,3.75,4.16,4.16,0,0,1-4.42,4.21A5.81,5.81,0,0,1,140.23,131Z"/><path class="cls-2" d="M392.77,91.34c0-4.11,1.72-6.21,4.32-6.21s4.31,2.12,4.31,6.21-1.72,6.31-4.31,6.31S392.77,95.44,392.77,91.34Zm6,0c0-3.29-.73-4-1.67-4s-1.68.76-1.68,4,.73,4.15,1.68,4.15S398.76,94.63,398.76,91.34Z"/><path class="cls-2" d="M403.27,95.9A1.69,1.69,0,1,1,405,97.65,1.69,1.69,0,0,1,403.27,95.9Z"/><path class="cls-2" d="M408.22,95.94l1.28-1.76a3.91,3.91,0,0,0,2.65,1.22c1.17,0,2-.52,2-1.44s-.62-1.71-3.24-1.71v-2c2.16,0,2.84-.66,2.84-1.62s-.54-1.33-1.48-1.33A3.29,3.29,0,0,0,410,88.38l-1.41-1.7a5.65,5.65,0,0,1,3.79-1.55c2.51,0,4.16,1.19,4.16,3.31a2.84,2.84,0,0,1-2,2.68v.08a3,3,0,0,1,2.41,2.94c0,2.24-2.06,3.51-4.49,3.51A5.29,5.29,0,0,1,408.22,95.94Z"/><path class="cls-2" d="M392.77,122.84c0-4.11,1.72-6.21,4.32-6.21s4.31,2.12,4.31,6.21-1.72,6.31-4.31,6.31S392.77,126.94,392.77,122.84Zm6,0c0-3.29-.73-4-1.67-4s-1.68.76-1.68,4,.73,4.15,1.68,4.15S398.76,126.13,398.76,122.84Z"/><path class="cls-2" d="M403.27,127.4a1.69,1.69,0,1,1,1.68,1.75A1.69,1.69,0,0,1,403.27,127.4Z"/><path class="cls-2" d="M414.05,119.21h-5.41v-2.35H417v1.72c-2.8,3.36-3.18,5.64-3.4,10.34h-2.81A16.05,16.05,0,0,1,414.05,119.21Z"/><path class="cls-2" d="M392.77,154.34c0-4.11,1.72-6.21,4.32-6.21s4.31,2.12,4.31,6.21-1.72,6.31-4.31,6.31S392.77,158.44,392.77,154.34Zm6,0c0-3.29-.73-4.05-1.67-4.05s-1.68.76-1.68,4.05.73,4.15,1.68,4.15S398.76,157.63,398.76,154.34Z"/><path class="cls-2" d="M403.27,158.9a1.69,1.69,0,1,1,1.68,1.75A1.69,1.69,0,0,1,403.27,158.9Z"/><path class="cls-2" d="M408.23,159l1.26-1.77a3.88,3.88,0,0,0,2.61,1.21,1.79,1.79,0,0,0,2-1.89,1.74,1.74,0,0,0-1.89-1.87,2.8,2.8,0,0,0-1.79.62l-1.24-.81.33-6.09h6.84v2.35h-4.43l-.2,2.26a3.1,3.1,0,0,1,1.34-.28,3.53,3.53,0,0,1,3.84,3.75,4.16,4.16,0,0,1-4.42,4.21A5.81,5.81,0,0,1,408.23,159Z"/><path class="cls-2" d="M223.8,85.26h.87V97.78h-.87Z"/><path class="cls-2" d="M228.26,88.66H229l.09,1.41h.05A4.19,4.19,0,0,1,232,88.43a2.37,2.37,0,0,1,2.52,1.86c1-1.14,2-1.86,3.09-1.86,1.82,0,2.73,1.14,2.73,3.5v5.85h-.84V92c0-1.93-.64-2.85-2-2.85-.86,0-1.73.57-2.73,1.71v6.88h-.84V92c0-1.93-.65-2.85-2-2.85-.82,0-1.72.57-2.73,1.71v6.88h-.84Z"/><path class="cls-2" d="M243.69,88.66h.71l.09,1.15h0a5.25,5.25,0,0,1,3.1-1.38c2.45,0,3.65,1.83,3.65,4.65,0,3.1-1.87,4.93-4,4.93a4.74,4.74,0,0,1-2.74-1.12v5h-.84Zm6.71,4.43c0-2.24-.8-3.92-2.9-3.92a4.81,4.81,0,0,0-3,1.51v5.41a4.44,4.44,0,0,0,2.69,1.17C249.07,97.26,250.4,95.56,250.4,93.09Z"/><path class="cls-2" d="M253.26,93.24c0-3,1.9-4.81,4.09-4.81s4.1,1.76,4.1,4.81-1.9,4.77-4.1,4.77S253.26,96.25,253.26,93.24Zm7.31,0c0-2.4-1.37-4.07-3.22-4.07s-3.21,1.67-3.21,4.07,1.37,4,3.21,4S260.57,95.64,260.57,93.24Z"/><path class="cls-2" d="M264.19,88.66h.71l.09,1.7h0a3.17,3.17,0,0,1,2.6-1.93,1.87,1.87,0,0,1,.9.19l-.19.76a2,2,0,0,0-.82-.15c-.82,0-1.79.62-2.49,2.35v6.2h-.84Z"/><path class="cls-2" d="M270.43,95.26V89.39H269v-.65l1.45-.08.1-2.64h.72v2.64h2.64v.73h-2.64v5.93c0,1.17.29,2,1.55,2A3.42,3.42,0,0,0,274,97l.22.68a5.46,5.46,0,0,1-1.49.34C270.94,98,270.43,96.9,270.43,95.26Z"/><path class="cls-2" d="M282.73,86h-4v-.75h8.84V86h-4V97.78h-.88Z"/><path class="cls-2" d="M288,93.24c0-3,1.93-4.81,4-4.81s3.49,1.54,3.49,4.22a4,4,0,0,1,0,.69h-6.56c0,2.3,1.38,3.94,3.44,3.94a4.09,4.09,0,0,0,2.45-.81l.34.64a5,5,0,0,1-2.87.9C289.88,98,288,96.22,288,93.24Zm6.68-.6c0-2.33-1.06-3.48-2.7-3.48s-2.93,1.3-3.12,3.48Z"/><path class="cls-2" d="M297.93,88.66h.71l.09,1.7h0a3.16,3.16,0,0,1,2.59-1.93,1.91,1.91,0,0,1,.91.19l-.19.76a2.08,2.08,0,0,0-.83-.15c-.82,0-1.79.62-2.49,2.35v6.2h-.84Z"/><path class="cls-2" d="M304,88.66h.71l.09,1.41h0a4.23,4.23,0,0,1,2.88-1.64,2.36,2.36,0,0,1,2.52,1.86c1-1.14,2.05-1.86,3.1-1.86,1.82,0,2.73,1.14,2.73,3.5v5.85h-.84V92c0-1.93-.65-2.85-2.05-2.85-.86,0-1.72.57-2.73,1.71v6.88h-.84V92c0-1.93-.64-2.85-2-2.85-.83,0-1.73.57-2.73,1.71v6.88H304Z"/><path class="cls-2" d="M319.06,85.71a.76.76,0,0,1,1.52,0,.76.76,0,0,1-1.52,0Zm.32,3h.84v9.12h-.84Z"/><path class="cls-2" d="M323.73,88.66h.71l.1,1.41h0a4.46,4.46,0,0,1,3.14-1.64c1.88,0,2.75,1.14,2.75,3.5v5.85h-.83V92c0-1.93-.62-2.85-2.08-2.85-1.09,0-1.88.57-3,1.71v6.88h-.84Z"/><path class="cls-2" d="M333.19,95.51c0-2,1.83-3,5.88-3.44,0-1.4-.35-2.9-2.15-2.9a5,5,0,0,0-2.9,1.07l-.39-.62A6.1,6.1,0,0,1,337,88.43c2.16,0,2.89,1.57,2.89,3.52v5.83h-.71l-.09-1.18h0A5.38,5.38,0,0,1,335.83,98,2.39,2.39,0,0,1,333.19,95.51Zm5.88.3v-3.1c-3.74.43-5,1.3-5,2.76A1.71,1.71,0,0,0,336,97.28,4.77,4.77,0,0,0,339.07,95.81Z"/><path class="cls-2" d="M343.17,96.56V84.11H344V96.67c0,.41.17.6.4.6a1.37,1.37,0,0,0,.34,0l.14.68a1.88,1.88,0,0,1-.61.1C343.55,98,343.17,97.56,343.17,96.56Z"/><path class="cls-2" d="M222.83,127.62l.56-.6a4.91,4.91,0,0,0,3.68,1.69c1.91,0,3.11-1,3.11-2.51s-1-2.06-2.25-2.62l-1.9-.85c-1.09-.48-2.54-1.26-2.54-3.11s1.56-3.09,3.64-3.09a4.8,4.8,0,0,1,3.49,1.5l-.5.58a4,4,0,0,0-3-1.28c-1.65,0-2.76.88-2.76,2.24s1.25,2,2.17,2.41l1.89.85c1.4.62,2.64,1.39,2.64,3.31s-1.58,3.37-4,3.37A5.52,5.52,0,0,1,222.83,127.62Z"/><path class="cls-2" d="M233.6,115.61h.84v6a4.49,4.49,0,0,1,3.15-1.66c1.89,0,2.76,1.14,2.76,3.5v5.85h-.84v-5.74c0-1.93-.61-2.85-2.08-2.85-1.08,0-1.87.57-3,1.71v6.88h-.84Z"/><path class="cls-2" d="M243.31,117.21a.76.76,0,0,1,1.52,0,.76.76,0,0,1-1.52,0Zm.32,3h.84v9.12h-.84Z"/><path class="cls-2" d="M248,120.16h.71l.1,1.15h0a5.22,5.22,0,0,1,3.09-1.38c2.45,0,3.66,1.83,3.66,4.65,0,3.1-1.87,4.93-4,4.93a4.77,4.77,0,0,1-2.75-1.12v5H248Zm6.71,4.43c0-2.24-.79-3.92-2.9-3.92a4.86,4.86,0,0,0-3,1.51v5.41a4.4,4.4,0,0,0,2.69,1.17C253.36,128.76,254.69,127.06,254.69,124.59Z"/><path class="cls-2" d="M258.32,120.16H259l.09,1.15h0a5.27,5.27,0,0,1,3.1-1.38c2.45,0,3.65,1.83,3.65,4.65,0,3.1-1.87,4.93-4,4.93a4.77,4.77,0,0,1-2.74-1.12v5h-.84Zm6.71,4.43c0-2.24-.8-3.92-2.9-3.92a4.81,4.81,0,0,0-3,1.51v5.41a4.38,4.38,0,0,0,2.69,1.17C263.7,128.76,265,127.06,265,124.59Z"/><path class="cls-2" d="M268.33,117.21a.77.77,0,0,1,1.53,0,.77.77,0,0,1-1.53,0Zm.33,3h.84v9.12h-.84Z"/><path class="cls-2" d="M273,120.16h.71l.09,1.41h0a4.46,4.46,0,0,1,3.14-1.64c1.88,0,2.76,1.14,2.76,3.5v5.85h-.84v-5.74c0-1.93-.61-2.85-2.08-2.85-1.09,0-1.87.57-3,1.71v6.88H273Z"/><path class="cls-2" d="M282.34,131.15a2.86,2.86,0,0,1,1.37-2.2v-.08a1.64,1.64,0,0,1-.81-1.46,2.16,2.16,0,0,1,1-1.69v-.07a3.36,3.36,0,0,1-1.16-2.5,3.15,3.15,0,0,1,3.21-3.22,3.27,3.27,0,0,1,1.22.23h3.08v.71h-2.12a3,3,0,0,1,1,2.29,3.18,3.18,0,0,1-4.7,2.83,1.7,1.7,0,0,0-.74,1.32c0,.66.38,1.19,1.74,1.19h2c2.05,0,3,.65,3,2.09s-1.69,3.08-4.32,3.08C283.79,133.67,282.34,132.69,282.34,131.15Zm7.21-.47c0-1-.73-1.39-2.11-1.39h-2a5.88,5.88,0,0,1-1.13-.15,2.37,2.37,0,0,0-1.19,1.92c0,1.15,1.1,1.93,3,1.93S289.55,131.83,289.55,130.68Zm-1.24-7.53a2.37,2.37,0,1,0-4.72,0,2.37,2.37,0,1,0,4.72,0Z"/><path class="cls-2" d="M223.8,148.26h.87V160h5.77v.75H223.8Z"/><path class="cls-2" d="M232.25,148.71a.77.77,0,0,1,1.53,0,.77.77,0,0,1-1.53,0Zm.33,2.95h.84v9.12h-.84Z"/><path class="cls-2" d="M242.92,161.39l0-1.81a4.43,4.43,0,0,1-3,1.43c-2.29,0-3.77-1.7-3.77-4.77s1.87-4.81,4-4.81a4.12,4.12,0,0,1,2.71,1.08h0l.1-.85h.7v13.25h-.84Zm0-2.63v-5.41a3.81,3.81,0,0,0-2.66-1.18c-1.81,0-3.21,1.78-3.21,4.06,0,2.43,1.08,4,3,4A4,4,0,0,0,242.92,158.76Z"/><path class="cls-2" d="M247.12,157.51v-5.85H248v5.74c0,1.93.61,2.85,2.08,2.85,1.08,0,1.87-.57,2.94-1.86v-6.73h.84v9.12h-.71l-.09-1.53H253a4.06,4.06,0,0,1-3.09,1.76C248,161,247.12,159.87,247.12,157.51Z"/><path class="cls-2" d="M256.55,156.24c0-3,1.93-4.81,4-4.81s3.5,1.54,3.5,4.22a4,4,0,0,1,0,.69h-6.56c0,2.3,1.38,3.94,3.43,3.94a4,4,0,0,0,2.45-.81l.35.64a5,5,0,0,1-2.88.9C258.43,161,256.55,159.22,256.55,156.24Zm6.67-.6c0-2.32-1.05-3.48-2.69-3.48s-2.94,1.3-3.13,3.48Z"/><path class="cls-2" d="M265.34,151.74l1.28-.08h2.92v.73h-4.2Zm1.26-2.11c0-1.81.81-2.74,2.25-2.74a3.48,3.48,0,0,1,1.33.3l-.23.69a2.47,2.47,0,0,0-1.08-.26c-1,0-1.43.75-1.43,2.07v11.09h-.84Z"/><path class="cls-2" d="M270.43,158.51c0-2,1.83-3,5.89-3.44,0-1.4-.36-2.9-2.15-2.9a5,5,0,0,0-2.91,1.07l-.38-.62a6.07,6.07,0,0,1,3.39-1.19c2.16,0,2.89,1.57,2.89,3.52v5.83h-.71l-.09-1.18h0a5.38,5.38,0,0,1-3.24,1.41A2.4,2.4,0,0,1,270.43,158.51Zm5.89.3v-3.1c-3.75.43-5,1.3-5,2.76a1.71,1.71,0,0,0,1.94,1.81A4.82,4.82,0,0,0,276.32,158.81Z"/><path class="cls-2" d="M279.65,156.24c0-3.05,2-4.81,4.17-4.81a3.73,3.73,0,0,1,2.67,1.13l-.5.58a3.07,3.07,0,0,0-2.15-1c-1.87,0-3.31,1.67-3.31,4.07s1.31,4,3.3,4a3.65,3.65,0,0,0,2.44-1.05l.43.58a4.33,4.33,0,0,1-2.91,1.21C281.43,161,279.65,159.25,279.65,156.24Z"/><path class="cls-2" d="M289,158.26v-5.87h-1.42v-.65l1.44-.08.11-2.64h.71v2.64h2.64v.73h-2.64v5.94c0,1.16.29,1.95,1.55,1.95a3.36,3.36,0,0,0,1.14-.29l.22.68a5.38,5.38,0,0,1-1.49.34C289.48,161,289,159.9,289,158.26Z"/><path class="cls-2" d="M294.36,148.71a.77.77,0,0,1,1.53,0,.77.77,0,0,1-1.53,0Zm.33,2.95h.84v9.12h-.84Z"/><path class="cls-2" d="M298.27,156.24c0-3.05,1.9-4.81,4.09-4.81s4.1,1.76,4.1,4.81-1.9,4.77-4.1,4.77S298.27,159.25,298.27,156.24Zm7.31,0c0-2.4-1.37-4.07-3.22-4.07s-3.21,1.67-3.21,4.07,1.37,4,3.21,4S305.58,158.64,305.58,156.24Z"/><path class="cls-2" d="M309.2,151.66h.71l.09,1.41h0a4.48,4.48,0,0,1,3.14-1.64c1.89,0,2.76,1.14,2.76,3.5v5.85h-.84V155c0-1.93-.61-2.85-2.08-2.85-1.08,0-1.87.57-3,1.71v6.88h-.84Z"/><path class="cls-2" d="M318.47,163.15a2.59,2.59,0,0,0,1.46-2.35l-.24-1.13.67.89a.69.69,0,0,1-.65.31.76.76,0,0,1-.81-.8.78.78,0,0,1,.82-.79c.58,0,1,.52,1,1.36a3.49,3.49,0,0,1-1.95,3.09Z"/><path class="cls-2" d="M326.5,156.24c0-3,1.94-4.81,4-4.81S334,153,334,155.65a4,4,0,0,1-.05.69h-6.56c0,2.3,1.38,3.94,3.44,3.94a4,4,0,0,0,2.45-.81l.35.64a5,5,0,0,1-2.88.9C328.39,161,326.5,159.22,326.5,156.24Zm6.68-.6c0-2.32-1.05-3.48-2.69-3.48s-2.94,1.3-3.13,3.48Z"/><path class="cls-2" d="M338,156l-2.83-4.35h.93l1.47,2.32c.3.5.63,1,1,1.5h.08c.32-.5.62-1,.95-1.5l1.41-2.32h.88L339,156.08l3.09,4.7h-.93l-1.62-2.49c-.33-.57-.7-1.14-1.07-1.67h-.08c-.36.53-.69,1.1-1.05,1.67l-1.56,2.49h-.89Z"/><path class="cls-2" d="M344.14,151.66h.71l.09,1.15h0a5.27,5.27,0,0,1,3.1-1.38c2.45,0,3.65,1.83,3.65,4.65,0,3.1-1.87,4.93-4,4.93a4.77,4.77,0,0,1-2.74-1.12v5h-.84Zm6.71,4.43c0-2.24-.8-3.92-2.9-3.92a4.81,4.81,0,0,0-3,1.51v5.41a4.4,4.4,0,0,0,2.69,1.17C349.52,160.26,350.85,158.56,350.85,156.09Z"/><path class="cls-2" d="M353.71,156.24c0-3.05,1.9-4.81,4.1-4.81s4.09,1.76,4.09,4.81S360,161,357.81,161,353.71,159.25,353.71,156.24Zm7.31,0c0-2.4-1.37-4.07-3.21-4.07s-3.22,1.67-3.22,4.07,1.37,4,3.22,4S361,158.64,361,156.24Z"/><path class="cls-2" d="M364.64,151.66h.71l.09,1.7h0a3.19,3.19,0,0,1,2.6-1.93,1.87,1.87,0,0,1,.9.19l-.19.76a2,2,0,0,0-.82-.15c-.82,0-1.79.62-2.49,2.35v6.2h-.84Z"/><path class="cls-2" d="M370.88,158.26v-5.87h-1.43v-.65l1.45-.08L371,149h.72v2.64h2.64v.73h-2.64v5.94c0,1.16.29,1.95,1.55,1.95a3.36,3.36,0,0,0,1.14-.29l.22.68a5.46,5.46,0,0,1-1.49.34C371.39,161,370.88,159.9,370.88,158.26Z"/><path class="cls-7" d="M125.39,164.17H128v-7h-2.26v-1.73a8.3,8.3,0,0,0,3-1.1h2.06v9.81h2.26v2.25h-7.69Z"/><path class="cls-7" d="M135.27,164.9a1.69,1.69,0,1,1,1.68,1.75A1.69,1.69,0,0,1,135.27,164.9Z"/><path class="cls-7" d="M145.38,159.45c0-.77.07-1.94.11-2.7h-.07c-.31.68-.65,1.34-1,2l-1.59,2.64h6.54v2.12h-9.21v-1.93l4.4-7.25H148v12.06h-2.61Z"/><path class="cls-2" d="M496.77,99.82c3.07-2.9,5.24-5,5.24-6.69a1.61,1.61,0,0,0-1.71-1.81,3.13,3.13,0,0,0-2.15,1.23L496.64,91a5.09,5.09,0,0,1,4-1.91,3.71,3.71,0,0,1,4,3.85c0,2-1.9,4.19-3.87,6.23.62-.06,1.46-.13,2-.13h2.43v2.34h-8.49Z"/><path class="cls-2" d="M507.27,99.9a1.69,1.69,0,1,1,1.68,1.75A1.69,1.69,0,0,1,507.27,99.9Z"/><path class="cls-2" d="M512.23,100l1.26-1.77a3.88,3.88,0,0,0,2.61,1.21,1.79,1.79,0,0,0,2-1.89,1.74,1.74,0,0,0-1.89-1.87,2.8,2.8,0,0,0-1.79.62l-1.24-.81.33-6.09h6.84v2.35h-4.43l-.2,2.26a3.1,3.1,0,0,1,1.34-.28,3.53,3.53,0,0,1,3.84,3.75,4.16,4.16,0,0,1-4.42,4.21A5.81,5.81,0,0,1,512.23,100Z"/><path class="cls-7" d="M497.39,130.17H500v-7h-2.26v-1.73a8.3,8.3,0,0,0,3-1.1h2.06v9.81h2.26v2.25h-7.69Z"/><path class="cls-7" d="M507.27,130.9a1.69,1.69,0,1,1,1.68,1.75A1.69,1.69,0,0,1,507.27,130.9Z"/><path class="cls-7" d="M513.12,130.17h2.64v-7H513.5v-1.73a8.3,8.3,0,0,0,3-1.1h2.06v9.81h2.26v2.25h-7.69Z"/><path class="cls-7" d="M497.39,164.17H500v-7h-2.26v-1.73a8.3,8.3,0,0,0,3-1.1h2.06v9.81h2.26v2.25h-7.69Z"/><path class="cls-7" d="M507.27,164.9a1.69,1.69,0,1,1,1.68,1.75A1.69,1.69,0,0,1,507.27,164.9Z"/><path class="cls-7" d="M517.38,159.45c0-.77.07-1.94.11-2.7h-.07c-.31.68-.65,1.34-1,2l-1.59,2.64h6.54v2.12h-9.21v-1.93l4.4-7.25H520v12.06h-2.61Z"/><rect class="cls-3" x="606.92" y="150.44" width="22.42" height="22.25" rx="1"/><path class="cls-3" d="M628.34,151.44v20.24H607.92V151.44h20.42m0-2H607.92a2,2,0,0,0-2,2v20.24a2,2,0,0,0,2,2h20.42a2,2,0,0,0,2-2V151.44a2,2,0,0,0-2-2Z"/><rect class="cls-4" x="606.82" y="120.59" width="22.61" height="21.78" rx="1"/><path class="cls-4" d="M628.43,121.59v19.78H607.82V121.59h20.61m0-2H607.82a2,2,0,0,0-2,2v19.78a2,2,0,0,0,2,2h20.61a2,2,0,0,0,2-2V121.59a2,2,0,0,0-2-2Z"/><line class="cls-8" x1="431.68" x2="431.68" y2="4"/><line class="cls-9" x1="431.68" y1="11.76" x2="431.68" y2="178.62"/><line class="cls-8" x1="431.68" y1="182.5" x2="431.68" y2="186.5"/></g></g></svg>