<svg xmlns="http://www.w3.org/2000/svg" viewBox="0 0 431.8 472.74"><defs><style>.cls-1,.cls-5{fill:none;stroke-miterlimit:10;}.cls-1{stroke:#666;}.cls-2{fill:#666;}.cls-3{fill:#477452;}.cls-4{fill:#4ec66b;}.cls-5{stroke:#999;stroke-width:3px;}.cls-6{fill:#333;}.cls-7{fill:#fff;}</style></defs><g id="Layer_2" data-name="Layer 2"><g id="Layer_1-2" data-name="Layer 1"><polyline class="cls-1" points="210.33 76.26 195.69 76.26 195.69 108.42 153.56 108.42"/><polygon class="cls-2" points="209.23 72.52 215.71 76.26 209.23 80.01 209.23 72.52"/><polygon class="cls-2" points="154.65 104.68 148.18 108.42 154.65 112.16 154.65 104.68"/><polyline class="cls-1" points="211.33 108.42 195.95 108.42 195.95 141.6 211.33 141.6"/><polygon class="cls-2" points="210.23 104.68 216.71 108.42 210.23 112.16 210.23 104.68"/><polygon class="cls-2" points="210.23 145.34 216.71 141.6 210.23 137.86 210.23 145.34"/><rect class="cls-3" x="25.34" y="109.62" width="56.61" height="50.54" rx="1"/><path class="cls-3" d="M81,110.62v48.54H26.34V110.62H81m0-2H26.34a2,2,0,0,0-2,2v48.54a2,2,0,0,0,2,2H81a2,2,0,0,0,2-2V110.62A2,2,0,0,0,81,108.62Z"/><rect class="cls-4" x="25.07" y="73.17" width="57.13" height="35.38" rx="1"/><path class="cls-4" d="M81.2,74.17v33.39H26.07V74.17H81.2m0-2H26.07a2,2,0,0,0-2,2v33.39a2,2,0,0,0,2,2H81.2a2,2,0,0,0,2-2V74.17A2,2,0,0,0,81.2,72.17Z"/><rect class="cls-3" x="109.34" y="128.5" width="56.61" height="31.45" rx="1"/><path class="cls-3" d="M165,129.5V159H110.34V129.5H165m0-2H110.34a2,2,0,0,0-2,2V159a2,2,0,0,0,2,2H165a2,2,0,0,0,2-2V129.5A2,2,0,0,0,165,127.5Z"/><rect class="cls-4" x="109.07" y="92.23" width="57.13" height="34.39" rx="1"/><path class="cls-4" d="M165.2,93.23v32.39H110.07V93.23H165.2m0-2H110.07a2,2,0,0,0-2,2v32.39a2,2,0,0,0,2,2H165.2a2,2,0,0,0,2-2V93.23A2,2,0,0,0,165.2,91.23Z"/><line class="cls-5" y1="162.78" x2="234.68" y2="162.78"/><path class="cls-6" d="M18.93,1.08h2.72l4.27,13.08H23.46l-2-7c-.42-1.38-.8-2.88-1.18-4.31H20.2C19.84,4.3,19.45,5.78,19,7.16l-2,7H14.67ZM17.19,8.79h6.16v1.82H17.19Z"/><path class="cls-6" d="M27.14,10.5V4.34h2.31V10.2c0,1.62.46,2.23,1.52,2.23.87,0,1.44-.41,2.18-1.37V4.34h2.31v9.82H33.57l-.18-1.45h-.06a4,4,0,0,1-3.16,1.69C28.06,14.4,27.14,13,27.14,10.5Z"/><path class="cls-6" d="M37.4,13l1.07-1.46a4.33,4.33,0,0,0,2.71,1.1c1.07,0,1.58-.51,1.58-1.18S41.69,10.3,40.65,9.9C39.36,9.41,37.89,8.67,37.89,7S39.26,4.1,41.46,4.1a5.27,5.27,0,0,1,3.27,1.17L43.67,6.69a3.64,3.64,0,0,0-2.15-.9c-1,0-1.46.47-1.46,1.09,0,.78,1,1.07,2.06,1.46,1.33.5,2.82,1.14,2.82,3s-1.34,3.05-3.82,3.05A6,6,0,0,1,37.4,13Z"/><path class="cls-6" d="M46.94,10.85V6.17h-1.4V4.44l1.52-.1.27-2.69h1.91V4.34h2.51V6.17H49.24v4.67c0,1.16.45,1.73,1.4,1.73a3.15,3.15,0,0,0,1-.22L52,14a6.2,6.2,0,0,1-2,.36C47.78,14.4,46.94,13,46.94,10.85Z"/><path class="cls-6" d="M53.81,4.34H55.7l.18,1.75h.06a3.35,3.35,0,0,1,2.8-2,2.49,2.49,0,0,1,1.11.2l-.4,2a3.37,3.37,0,0,0-1-.16c-.78,0-1.73.53-2.32,2v6H53.81Z"/><path class="cls-6" d="M60.23,11.52c0-2.1,1.74-3.2,5.77-3.63C66,6.83,65.55,6,64.22,6a5.41,5.41,0,0,0-2.76,1l-.85-1.54a7.7,7.7,0,0,1,4-1.28c2.46,0,3.67,1.51,3.67,4.24v5.82H66.42l-.18-1.09h-.06a4.73,4.73,0,0,1-3.05,1.33,2.74,2.74,0,0,1-2.9-2.59A1.71,1.71,0,0,1,60.23,11.52Zm5.77,0V9.32c-2.66.34-3.55,1-3.55,2s.55,1.27,1.42,1.27A3.05,3.05,0,0,0,66,11.53Z"/><path class="cls-6" d="M71.07,11.63V0h2.31V11.79c0,.57.25.77.49.77a1.09,1.09,0,0,0,.36,0l.29,1.72a3.34,3.34,0,0,1-1.21.2C71.67,14.4,71.07,13.35,71.07,11.63Z"/><path class="cls-6" d="M76.23,1.31a1.43,1.43,0,0,1,2.85,0,1.43,1.43,0,0,1-2.85,0Zm.26,3H78.8v9.82H76.49Z"/><path class="cls-6" d="M81.21,11.52c0-2.1,1.74-3.2,5.77-3.63C87,6.83,86.53,6,85.2,6a5.41,5.41,0,0,0-2.76,1l-.85-1.54a7.7,7.7,0,0,1,4-1.28c2.46,0,3.67,1.51,3.67,4.24v5.82H87.4l-.18-1.09h-.06a4.7,4.7,0,0,1-3,1.33,2.76,2.76,0,0,1-3-2.54A2.29,2.29,0,0,1,81.21,11.52Zm5.77,0V9.32c-2.66.34-3.55,1-3.55,2s.57,1.27,1.42,1.27A3.08,3.08,0,0,0,87,11.53Z"/><path class="cls-6" d="M114.69,7.66c0-4.28,2.68-6.82,6-6.82a5.19,5.19,0,0,1,3.77,1.66L123.22,4a3.41,3.41,0,0,0-2.48-1.14c-2.13,0-3.66,1.81-3.66,4.74s1.41,4.8,3.6,4.8A3.7,3.7,0,0,0,123.47,11l1.24,1.46a5.21,5.21,0,0,1-4.12,1.9C117.29,14.4,114.69,12,114.69,7.66Z"/><path class="cls-6" d="M126.69,0H129V3.69l-.1,1.89a4.57,4.57,0,0,1,3.15-1.48c2.1,0,3,1.42,3,3.9v6.16h-2.3V8.3c0-1.62-.47-2.23-1.53-2.23A3.08,3.08,0,0,0,129,7.3v6.86h-2.31Z"/><path class="cls-6" d="M137.59,1.31a1.43,1.43,0,0,1,2.85,0,1.43,1.43,0,0,1-2.85,0Zm.26,3h2.31v9.82h-2.31Z"/><path class="cls-6" d="M143.09,11.63V0h2.31V11.79c0,.57.25.77.49.77a1.09,1.09,0,0,0,.36,0l.29,1.72a3.34,3.34,0,0,1-1.21.2C143.69,14.4,143.09,13.35,143.09,11.63Z"/><path class="cls-6" d="M147.87,9.26c0-3.2,2.21-5.16,4.52-5.16,2.66,0,4.06,1.92,4.06,4.66a6,6,0,0,1-.1,1.12h-6.24A2.81,2.81,0,0,0,153,12.62h0a4.23,4.23,0,0,0,2.28-.71l.78,1.43a6,6,0,0,1-3.36,1.06C150,14.4,147.87,12.5,147.87,9.26Zm6.59-.95c0-1.51-.67-2.43-2-2.43a2.47,2.47,0,0,0-2.35,2.43Z"/><path class="cls-2" d="M41.48,61.73,42.77,60a3.91,3.91,0,0,0,2.64,1.22c1.18,0,2-.52,2-1.44S46.79,58,44.16,58V56c2.17,0,2.85-.66,2.85-1.62s-.54-1.33-1.48-1.33a3.26,3.26,0,0,0-2.26,1.06l-1.41-1.7a5.7,5.7,0,0,1,3.79-1.55c2.51,0,4.16,1.19,4.16,3.31a2.83,2.83,0,0,1-2,2.68V57a3,3,0,0,1,2.41,2.94c0,2.24-2.06,3.51-4.49,3.51A5.35,5.35,0,0,1,41.48,61.73Z"/><path class="cls-2" d="M52.27,61.69a1.7,1.7,0,1,1,0,.1Z"/><path class="cls-2" d="M62.38,56.24c0-.77.07-1.94.11-2.71h-.07c-.31.69-.65,1.35-1,2l-1.59,2.64h6.54v2.12h-9.2V58.4l4.4-7.25H65V63.21H62.38Z"/><path class="cls-7" d="M42.39,94H45V87H42.77V85.23a8.29,8.29,0,0,0,3-1.1h2.06v9.81h2.26v2.25h-7.7Z"/><path class="cls-7" d="M52.27,94.69a1.7,1.7,0,1,1,0,.1Z"/><path class="cls-7" d="M57.51,94.61c3.07-2.9,5.23-5,5.23-6.69a1.61,1.61,0,0,0-1.39-1.8,1.37,1.37,0,0,0-.35,0,3.11,3.11,0,0,0-2.14,1.23l-1.49-1.55a5.1,5.1,0,0,1,4-1.91,3.71,3.71,0,0,1,4,3.41,3.2,3.2,0,0,1,0,.44c0,2-1.89,4.19-3.87,6.23.62-.06,1.46-.13,2-.13H66v2.34H57.51Z"/><path class="cls-7" d="M41.77,136.61c3.07-2.9,5.24-5,5.24-6.69a1.61,1.61,0,0,0-1.39-1.8,1.71,1.71,0,0,0-.32,0,3.11,3.11,0,0,0-2.14,1.23l-1.52-1.55a5.09,5.09,0,0,1,4-1.91,3.71,3.71,0,0,1,4,3.41,3.2,3.2,0,0,1,0,.44c0,2-1.9,4.19-3.87,6.23.62-.06,1.46-.13,2-.13H50.2v2.34H41.77Z"/><path class="cls-7" d="M52.27,136.69a1.7,1.7,0,1,1,0,.1Z"/><path class="cls-7" d="M57.51,136.61c3.07-2.9,5.23-5,5.23-6.69a1.61,1.61,0,0,0-1.39-1.8,1.37,1.37,0,0,0-.35,0,3.11,3.11,0,0,0-2.14,1.23l-1.49-1.55a5.1,5.1,0,0,1,4-1.91,3.71,3.71,0,0,1,4,3.41,3.2,3.2,0,0,1,0,.44c0,2-1.89,4.19-3.87,6.23.62-.06,1.46-.13,2-.13H66v2.34H57.51Z"/><path class="cls-2" d="M124.77,83.61c3.07-2.9,5.24-5,5.24-6.69a1.61,1.61,0,0,0-1.39-1.8,1.71,1.71,0,0,0-.32,0,3.11,3.11,0,0,0-2.14,1.23l-1.52-1.55a5.09,5.09,0,0,1,4-1.91,3.71,3.71,0,0,1,4,3.41,3.2,3.2,0,0,1,0,.44c0,2-1.9,4.19-3.87,6.23.62-.06,1.46-.13,2-.13h2.43v2.34h-8.49Z"/><path class="cls-2" d="M135.27,83.69A1.69,1.69,0,1,1,137,85.44a1.7,1.7,0,0,1-1.68-1.75Z"/><path class="cls-2" d="M140.62,84l1.48-1.67a2.68,2.68,0,0,0,1.87.87c1.42,0,2.51-1.07,2.51-4.29,0-3-.94-3.88-2-3.88-.83,0-1.52.58-1.52,1.94s.67,1.76,1.58,1.76a2.21,2.21,0,0,0,1.88-1.3l.12,1.83A3.37,3.37,0,0,1,144,80.69c-2.06,0-3.59-1.17-3.59-3.73a3.88,3.88,0,0,1,3.76-4h.24c2.34,0,4.57,1.75,4.57,6,0,4.51-2.34,6.54-4.88,6.54A4.81,4.81,0,0,1,140.62,84Z"/><path class="cls-7" d="M125.39,115H128v-7h-2.26v-1.73a8.29,8.29,0,0,0,3-1.1h2.06v9.81h2.26v2.25h-7.69Z"/><path class="cls-7" d="M135.27,115.69a1.69,1.69,0,1,1,1.68,1.75,1.7,1.7,0,0,1-1.68-1.75Z"/><path class="cls-7" d="M140.23,115.79l1.26-1.77a3.88,3.88,0,0,0,2.61,1.21,1.79,1.79,0,0,0,2-1.56,1.82,1.82,0,0,0,0-.33,1.73,1.73,0,0,0-1.6-1.87,1.4,1.4,0,0,0-.29,0,2.79,2.79,0,0,0-1.79.62l-1.24-.81.33-6.09h6.84v2.35h-4.43l-.2,2.26a3.1,3.1,0,0,1,1.34-.28,3.53,3.53,0,0,1,3.83,3.2,3.37,3.37,0,0,1,0,.55,4.16,4.16,0,0,1-4.1,4.22h-.32A5.82,5.82,0,0,1,140.23,115.79Z"/><path class="cls-2" d="M392.77,76.13c0-4.11,1.72-6.21,4.32-6.21s4.31,2.12,4.31,6.21-1.72,6.31-4.31,6.31S392.77,80.23,392.77,76.13Zm6,0c0-3.29-.73-4-1.67-4s-1.68.76-1.68,4,.73,4.15,1.68,4.15,1.66-.86,1.66-4.15Z"/><path class="cls-2" d="M403.27,80.69a1.7,1.7,0,1,1,0,.1Z"/><path class="cls-2" d="M408.22,80.73,409.5,79a3.92,3.92,0,0,0,2.65,1.22c1.17,0,2-.52,2-1.44S413.53,77,410.91,77V75c2.16,0,2.84-.66,2.84-1.62s-.54-1.33-1.48-1.33A3.29,3.29,0,0,0,410,73.17l-1.41-1.7a5.7,5.7,0,0,1,3.79-1.55c2.51,0,4.16,1.19,4.16,3.31a2.83,2.83,0,0,1-2,2.68V76A3,3,0,0,1,417,78.93c0,2.24-2.06,3.51-4.49,3.51A5.3,5.3,0,0,1,408.22,80.73Z"/><path class="cls-2" d="M392.77,107.63c0-4.11,1.72-6.21,4.32-6.21s4.31,2.12,4.31,6.21-1.72,6.31-4.31,6.31S392.77,111.73,392.77,107.63Zm6,0c0-3.29-.73-4-1.67-4s-1.68.76-1.68,4,.73,4.15,1.68,4.15,1.66-.86,1.66-4.15Z"/><path class="cls-2" d="M403.27,112.19a1.69,1.69,0,1,1,1.68,1.75,1.7,1.7,0,0,1-1.68-1.75Z"/><path class="cls-2" d="M414.05,104h-5.41v-2.35H417v1.72c-2.8,3.36-3.18,5.64-3.4,10.34h-2.81A16,16,0,0,1,414.05,104Z"/><path class="cls-2" d="M392.77,139.13c0-4.11,1.72-6.21,4.32-6.21s4.31,2.12,4.31,6.21-1.72,6.31-4.31,6.31S392.77,143.23,392.77,139.13Zm6,0c0-3.29-.73-4-1.67-4s-1.68.76-1.68,4,.73,4.15,1.68,4.15,1.66-.86,1.66-4.15Z"/><path class="cls-2" d="M403.27,143.69a1.73,1.73,0,1,1,0,.05Z"/><path class="cls-2" d="M408.23,143.79l1.26-1.77a3.88,3.88,0,0,0,2.61,1.21,1.79,1.79,0,0,0,2-1.56,1.82,1.82,0,0,0,0-.33,1.73,1.73,0,0,0-1.6-1.87h-.29a2.79,2.79,0,0,0-1.79.62l-1.24-.81.33-6.09h6.84v2.35h-4.43l-.2,2.26a3.1,3.1,0,0,1,1.34-.28,3.53,3.53,0,0,1,3.83,3.2,3.37,3.37,0,0,1,0,.55,4.16,4.16,0,0,1-4.1,4.22h-.32A5.82,5.82,0,0,1,408.23,143.79Z"/><path class="cls-2" d="M223.8,70.05h.87V82.57h-.87Z"/><path class="cls-2" d="M228.26,73.45H229l.09,1.41h0A4.19,4.19,0,0,1,232,73.22a2.37,2.37,0,0,1,2.52,1.86,4.39,4.39,0,0,1,3.09-1.86c1.82,0,2.73,1.14,2.73,3.5v5.85h-.84V76.79c0-1.93-.64-2.85-2-2.85-.86,0-1.73.57-2.73,1.71v6.88h-.84V76.79c0-1.93-.65-2.85-2-2.85-.82,0-1.72.57-2.73,1.71v6.88h-.84Z"/><path class="cls-2" d="M243.69,73.45h.71l.09,1.15h0a5.22,5.22,0,0,1,3.1-1.38c2.45,0,3.65,1.83,3.65,4.65,0,3.1-1.87,4.93-4,4.93a4.7,4.7,0,0,1-2.74-1.12v5h-.84Zm6.71,4.43c0-2.24-.8-3.92-2.9-3.92a4.82,4.82,0,0,0-3,1.51v5.41a4.45,4.45,0,0,0,2.69,1.17c1.88,0,3.21-1.7,3.21-4.17Z"/><path class="cls-2" d="M253.26,78c0-3,1.9-4.81,4.09-4.81s4.1,1.76,4.1,4.81-1.9,4.77-4.1,4.77S253.26,81,253.26,78Zm7.31,0c0-2.4-1.37-4.07-3.22-4.07s-3.21,1.67-3.21,4.07,1.37,4,3.21,4S260.57,80.43,260.57,78Z"/><path class="cls-2" d="M264.19,73.45h.71l.09,1.7h0a3.18,3.18,0,0,1,2.6-1.93,1.87,1.87,0,0,1,.9.19l-.19.76a1.93,1.93,0,0,0-.82-.15c-.82,0-1.79.62-2.49,2.35v6.2h-.84Z"/><path class="cls-2" d="M270.43,80.05V74.18H269v-.65l1.45-.08.1-2.64h.72v2.64h2.64v.73h-2.64v5.93c0,1.17.29,2,1.55,2a3.24,3.24,0,0,0,1.18-.32l.22.68a5.47,5.47,0,0,1-1.49.34C270.94,82.79,270.43,81.69,270.43,80.05Z"/><path class="cls-2" d="M282.73,70.79h-4V70h8.84v.75h-4V82.57h-.88Z"/><path class="cls-2" d="M288,78c0-3,1.93-4.81,4-4.81s3.49,1.54,3.49,4.22a4,4,0,0,1,0,.69h-6.56c0,2.3,1.38,3.94,3.44,3.94a4.09,4.09,0,0,0,2.45-.81l.34.64a5,5,0,0,1-2.87.9C289.88,82.79,288,81,288,78Zm6.68-.6c0-2.33-1.06-3.48-2.7-3.48s-2.93,1.3-3.12,3.48Z"/><path class="cls-2" d="M297.93,73.45h.71l.09,1.7h0a3.15,3.15,0,0,1,2.59-1.93,1.91,1.91,0,0,1,.91.19l-.19.76a2,2,0,0,0-.83-.15c-.82,0-1.79.62-2.49,2.35v6.2h-.84Z"/><path class="cls-2" d="M304,73.45h.71l.09,1.41h0a4.22,4.22,0,0,1,2.88-1.64,2.36,2.36,0,0,1,2.52,1.86,4.48,4.48,0,0,1,3.1-1.86c1.82,0,2.73,1.14,2.73,3.5v5.85h-.84V76.79c0-1.93-.65-2.85-2.05-2.85-.86,0-1.72.57-2.73,1.71v6.88h-.84V76.79c0-1.93-.64-2.85-2-2.85-.83,0-1.73.57-2.73,1.71v6.88H304Z"/><path class="cls-2" d="M319.06,70.5a.76.76,0,1,1,.76.76A.76.76,0,0,1,319.06,70.5Zm.32,3h.84v9.12h-.84Z"/><path class="cls-2" d="M323.73,73.45h.71l.1,1.41h0a4.45,4.45,0,0,1,3.14-1.64c1.88,0,2.75,1.14,2.75,3.5v5.85h-.83V76.79c0-1.93-.62-2.85-2.08-2.85-1.09,0-1.88.57-3,1.71v6.88h-.84Z"/><path class="cls-2" d="M333.19,80.3c0-2,1.83-3,5.88-3.44,0-1.4-.35-2.9-2.15-2.9A5,5,0,0,0,334,75l-.39-.62A6.12,6.12,0,0,1,337,73.22c2.16,0,2.89,1.57,2.89,3.52v5.83h-.71l-.09-1.18h0a5.38,5.38,0,0,1-3.26,1.4,2.39,2.39,0,0,1-2.63-2.12A2.29,2.29,0,0,1,333.19,80.3Zm5.88.3V77.5c-3.74.43-5,1.3-5,2.76a1.71,1.71,0,0,0,1.59,1.82,1.29,1.29,0,0,0,.34,0A4.8,4.8,0,0,0,339.07,80.6Z"/><path class="cls-2" d="M343.17,81.35V68.9H344V81.46c0,.41.17.6.4.6h.34l.14.68a1.81,1.81,0,0,1-.61.1C343.55,82.79,343.17,82.35,343.17,81.35Z"/><path class="cls-2" d="M222.83,112.41l.56-.6a4.92,4.92,0,0,0,3.68,1.69c1.91,0,3.11-1,3.11-2.51s-1-2.06-2.25-2.62l-1.9-.85c-1.09-.48-2.54-1.26-2.54-3.11s1.56-3.09,3.64-3.09a4.8,4.8,0,0,1,3.49,1.5l-.5.58a4,4,0,0,0-3-1.28c-1.65,0-2.76.88-2.76,2.24s1.25,2,2.17,2.41l1.89.85c1.4.62,2.64,1.39,2.64,3.31s-1.58,3.37-4,3.37A5.51,5.51,0,0,1,222.83,112.41Z"/><path class="cls-2" d="M233.6,100.4h.84v6a4.54,4.54,0,0,1,3.15-1.66c1.89,0,2.76,1.14,2.76,3.5v5.85h-.84v-5.74c0-1.93-.61-2.85-2.08-2.85-1.08,0-1.87.57-3,1.71v6.88h-.84Z"/><path class="cls-2" d="M243.31,102a.76.76,0,0,1,1.52,0h0a.76.76,0,0,1-1.52,0Zm.32,3h.84v9.12h-.84Z"/><path class="cls-2" d="M248,105h.71l.1,1.15h0a5.22,5.22,0,0,1,3.09-1.38c2.45,0,3.66,1.83,3.66,4.65,0,3.1-1.87,4.93-4,4.93a4.73,4.73,0,0,1-2.75-1.12v5H248Zm6.71,4.43c0-2.24-.79-3.92-2.9-3.92a4.87,4.87,0,0,0-3,1.51v5.41a4.39,4.39,0,0,0,2.69,1.17c1.86,0,3.19-1.7,3.19-4.17Z"/><path class="cls-2" d="M258.32,105H259l.09,1.15h0a5.28,5.28,0,0,1,3.1-1.38c2.45,0,3.65,1.83,3.65,4.65,0,3.1-1.87,4.93-4,4.93a4.7,4.7,0,0,1-2.74-1.12v5h-.84Zm6.71,4.43c0-2.24-.8-3.92-2.9-3.92a4.82,4.82,0,0,0-3,1.51v5.41a4.39,4.39,0,0,0,2.69,1.17c1.88,0,3.18-1.7,3.18-4.17Z"/><path class="cls-2" d="M268.33,102a.77.77,0,1,1,.68.68A.77.77,0,0,1,268.33,102Zm.33,3h.84v9.12h-.84Z"/><path class="cls-2" d="M273,105h.71l.09,1.41h0a4.45,4.45,0,0,1,3.14-1.64c1.88,0,2.76,1.14,2.76,3.5v5.85h-.84v-5.74c0-1.93-.61-2.85-2.08-2.85-1.09,0-1.87.57-3,1.71v6.88H273Z"/><path class="cls-2" d="M282.34,115.94a2.86,2.86,0,0,1,1.37-2.2v-.08a1.62,1.62,0,0,1-.81-1.46,2.17,2.17,0,0,1,1-1.69v-.07a3.35,3.35,0,0,1-1.16-2.5,3.15,3.15,0,0,1,3.08-3.22H286a3.39,3.39,0,0,1,1.22.23h3.08v.71h-2.12a3,3,0,0,1,1,2.29,3.18,3.18,0,0,1-3.14,3.22,3.25,3.25,0,0,1-1.56-.39,1.71,1.71,0,0,0-.74,1.32c0,.66.38,1.19,1.74,1.19h2c2.05,0,3,.65,3,2.09s-1.69,3.08-4.32,3.08C283.79,118.46,282.34,117.48,282.34,115.94Zm7.21-.47c0-1-.73-1.39-2.11-1.39h-2a5.39,5.39,0,0,1-1.13-.15,2.37,2.37,0,0,0-1.19,1.92c0,1.15,1.1,1.93,3,1.93S289.55,116.62,289.55,115.47Zm-1.24-7.53a2.37,2.37,0,1,0-4.72-.43,3.09,3.09,0,0,0,0,.43,2.37,2.37,0,0,0,4.72.44A3.23,3.23,0,0,0,288.31,107.94Z"/><path class="cls-2" d="M223.8,133.05h.87v11.74h5.77v.75H223.8Z"/><path class="cls-2" d="M232.25,133.5a.77.77,0,1,1,.68.68A.77.77,0,0,1,232.25,133.5Zm.33,2.95h.84v9.12h-.84Z"/><path class="cls-2" d="M242.92,146.18v-1.81a4.43,4.43,0,0,1-3,1.43c-2.29,0-3.77-1.7-3.77-4.77s1.87-4.81,4-4.81a4.13,4.13,0,0,1,2.71,1.08h0l.1-.85h.7V149.7h-.84Zm0-2.63v-5.41a3.83,3.83,0,0,0-2.66-1.18c-1.81,0-3.21,1.78-3.21,4.06s1.08,4,3,4A4,4,0,0,0,242.92,143.55Z"/><path class="cls-2" d="M247.12,142.3v-5.85H248v5.74c0,1.93.61,2.85,2.08,2.85,1.08,0,1.87-.57,2.94-1.86v-6.73h.84v9.12h-.71l-.09-1.53H253a4,4,0,0,1-3.09,1.76C248,145.79,247.12,144.66,247.12,142.3Z"/><path class="cls-2" d="M256.55,141c0-3,1.93-4.81,4-4.81s3.5,1.54,3.5,4.22a4,4,0,0,1,0,.69h-6.56c0,2.3,1.38,3.94,3.43,3.94a4,4,0,0,0,2.45-.81l.35.64a5,5,0,0,1-2.88.9C258.43,145.79,256.55,144,256.55,141Zm6.67-.6c0-2.32-1.05-3.48-2.69-3.48s-2.94,1.3-3.13,3.48Z"/><path class="cls-2" d="M265.34,136.53l1.28-.08h2.92v.73h-4.2Zm1.26-2.11c0-1.81.81-2.74,2.25-2.74a3.4,3.4,0,0,1,1.33.3l-.23.69a2.39,2.39,0,0,0-1.08-.26c-1,0-1.43.75-1.43,2.07v11.09h-.84Z"/><path class="cls-2" d="M270.43,143.3c0-2,1.83-3,5.89-3.44,0-1.4-.36-2.9-2.15-2.9a5,5,0,0,0-2.91,1.07l-.38-.62a6.1,6.1,0,0,1,3.39-1.19c2.16,0,2.89,1.57,2.89,3.52v5.83h-.71l-.09-1.18h0a5.37,5.37,0,0,1-3.24,1.41,2.39,2.39,0,0,1-2.67-2.09A1.85,1.85,0,0,1,270.43,143.3Zm5.89.3v-3.1c-3.75.43-5,1.3-5,2.76a1.71,1.71,0,0,0,1.59,1.82,1.37,1.37,0,0,0,.35,0A4.8,4.8,0,0,0,276.32,143.6Z"/><path class="cls-2" d="M279.65,141c0-3.05,2-4.81,4.17-4.81a3.72,3.72,0,0,1,2.67,1.13l-.5.58a3,3,0,0,0-2.15-1c-1.87,0-3.31,1.67-3.31,4.07s1.31,4,3.3,4a3.65,3.65,0,0,0,2.44-1.05l.43.58a4.28,4.28,0,0,1-2.91,1.21C281.43,145.79,279.65,144,279.65,141Z"/><path class="cls-2" d="M289,143.05v-5.87h-1.42v-.65l1.44-.08.11-2.64h.71v2.64h2.64v.73h-2.64v5.94c0,1.16.29,1.95,1.55,1.95a3.48,3.48,0,0,0,1.14-.29l.22.68a5.47,5.47,0,0,1-1.49.34C289.48,145.79,289,144.69,289,143.05Z"/><path class="cls-2" d="M294.36,133.5a.77.77,0,1,1,.68.68A.77.77,0,0,1,294.36,133.5Zm.33,2.95h.84v9.12h-.84Z"/><path class="cls-2" d="M298.27,141c0-3.05,1.9-4.81,4.09-4.81s4.1,1.76,4.1,4.81-1.9,4.77-4.1,4.77S298.27,144,298.27,141Zm7.31,0c0-2.4-1.37-4.07-3.22-4.07s-3.21,1.67-3.21,4.07,1.37,4,3.21,4S305.58,143.43,305.58,141Z"/><path class="cls-2" d="M309.2,136.45h.71l.09,1.41h0a4.49,4.49,0,0,1,3.14-1.64c1.89,0,2.76,1.14,2.76,3.5v5.85h-.84v-5.78c0-1.93-.61-2.85-2.08-2.85-1.08,0-1.87.57-3,1.71v6.88h-.84Z"/><path class="cls-2" d="M318.47,147.94a2.59,2.59,0,0,0,1.46-2.35l-.24-1.13.67.89a.68.68,0,0,1-.65.31.76.76,0,0,1-.81-.71v-.09a.78.78,0,0,1,.77-.79h.05c.58,0,1,.52,1,1.36a3.49,3.49,0,0,1-2,3.09Z"/><path class="cls-2" d="M326.5,141c0-3,1.94-4.81,4-4.81s3.5,1.57,3.5,4.22a4,4,0,0,1-.05.69h-6.56c0,2.3,1.38,3.94,3.44,3.94a4,4,0,0,0,2.45-.81l.35.64a5,5,0,0,1-2.88.9C328.39,145.79,326.5,144,326.5,141Zm6.68-.6c0-2.32-1.05-3.48-2.69-3.48s-2.94,1.3-3.13,3.48Z"/><path class="cls-2" d="M338,140.79l-2.83-4.35h.93l1.47,2.32c.3.5.63,1,1,1.5h.08c.32-.5.62-1,1-1.5l1.41-2.32h.88L339,140.87l3.09,4.7h-.93l-1.62-2.49c-.33-.57-.7-1.14-1.07-1.67h-.08c-.36.53-.69,1.1-1.05,1.67l-1.56,2.49h-.89Z"/><path class="cls-2" d="M344.14,136.45h.71l.09,1.15h0a5.28,5.28,0,0,1,3.1-1.38c2.45,0,3.65,1.83,3.65,4.65,0,3.1-1.87,4.93-4,4.93a4.7,4.7,0,0,1-2.74-1.12v5h-.84Zm6.71,4.43c0-2.24-.8-3.92-2.9-3.92a4.82,4.82,0,0,0-3,1.51v5.41a4.39,4.39,0,0,0,2.69,1.17C349.52,145.05,350.85,143.35,350.85,140.88Z"/><path class="cls-2" d="M353.71,141c0-3.05,1.9-4.81,4.1-4.81S361.9,138,361.9,141s-1.9,4.76-4.09,4.76S353.71,144,353.71,141Zm7.31,0c0-2.4-1.37-4.07-3.21-4.07s-3.22,1.67-3.22,4.07,1.37,4,3.22,4,3.19-1.6,3.19-4Z"/><path class="cls-2" d="M364.64,136.45h.71l.09,1.7h0a3.18,3.18,0,0,1,2.6-1.93,1.87,1.87,0,0,1,.9.19l-.19.76a1.93,1.93,0,0,0-.82-.15c-.82,0-1.79.62-2.49,2.35v6.2h-.84Z"/><path class="cls-2" d="M370.88,143.05v-5.87h-1.43v-.65l1.45-.08.1-2.66h.72v2.64h2.64v.73h-2.64v5.94c0,1.16.29,2,1.55,2a3.48,3.48,0,0,0,1.14-.29l.22.68a5.47,5.47,0,0,1-1.49.34C371.39,145.79,370.88,144.69,370.88,143.05Z"/><path class="cls-7" d="M125.39,149H128v-7h-2.26v-1.73a8.29,8.29,0,0,0,3-1.1h2.06v9.81h2.26v2.25h-7.69Z"/><path class="cls-7" d="M135.27,149.69a1.73,1.73,0,1,1,0,.05Z"/><path class="cls-7" d="M145.38,144.24c0-.77.07-1.94.11-2.7h-.07c-.31.68-.65,1.34-1,2l-1.59,2.64h6.54v2.12h-9.21v-1.93l4.4-7.25H148v12.06h-2.61Z"/><rect class="cls-3" x="70.11" y="421.65" width="81.88" height="45.49" rx="1.45"/><path class="cls-3" d="M150.61,423.1v42.6H71.55V423.1h79.06m0-2.89H71.55a2.89,2.89,0,0,0-2.89,2.89v42.6a2.89,2.89,0,0,0,2.89,2.89h79.06a2.89,2.89,0,0,0,2.9-2.89V423.1A2.89,2.89,0,0,0,150.61,420.21Z"/><rect class="cls-4" x="69.72" y="374.75" width="82.63" height="44.51" rx="1.45"/><path class="cls-4" d="M150.9,376.19v41.62H71.16V376.19H150.9m0-2.89H71.16a2.9,2.9,0,0,0-2.89,2.89v41.62a2.9,2.9,0,0,0,2.89,2.89H150.9a2.9,2.9,0,0,0,2.9-2.89V376.19A2.9,2.9,0,0,0,150.9,373.3Z"/><line class="cls-5" x1="17.54" y1="471.24" x2="194.99" y2="471.24"/><path class="cls-6" d="M63.93,246.87c0-6.19,3.88-9.86,8.68-9.86a7.48,7.48,0,0,1,5.45,2.4l-1.79,2.15a4.93,4.93,0,0,0-3.59-1.63c-3.08,0-5.29,2.6-5.29,6.84s2,6.94,5.21,6.94a5.31,5.31,0,0,0,4-2l1.79,2.11a7.53,7.53,0,0,1-6,2.75C67.71,256.62,63.93,253.13,63.93,246.87Z"/><path class="cls-6" d="M81.29,235.83h3.34v5.3l-.15,2.73A6.68,6.68,0,0,1,89,241.72c3,0,4.34,2.06,4.34,5.64v8.91H90.05V247.8c0-2.35-.68-3.23-2.21-3.23a4.51,4.51,0,0,0-3.24,1.78v9.92H81.26Z"/><path class="cls-6" d="M97.1,237.69A2.07,2.07,0,1,1,99,239.57,2.06,2.06,0,0,1,97.1,237.69Zm.37,4.34h3.34v14.2H97.47Z"/><path class="cls-6" d="M105,252.61V235.83h3.34v17c0,.83.36,1.12.71,1.12a2.26,2.26,0,0,0,.52,0l.42,2.49a5,5,0,0,1-1.75.29C105.88,256.62,105,255.1,105,252.61Z"/><path class="cls-6" d="M111.92,249.19c0-4.63,3.2-7.47,6.54-7.47,3.85,0,5.87,2.78,5.87,6.74a8.71,8.71,0,0,1-.14,1.62h-9a4.06,4.06,0,0,0,4.14,4h.06a6.26,6.26,0,0,0,3.3-1l1.14,2.07a8.86,8.86,0,0,1-4.88,1.53C115,256.62,111.92,253.87,111.92,249.19Zm9.53-1.38c0-2.18-1-3.51-2.89-3.51a3.57,3.57,0,0,0-3.4,3.51Z"/><path class="cls-6" d="M133.81,251.49v-6.77h-2v-2.51l2.2-.14.39-3.88h2.76v3.88h3.63v2.65h-3.63v6.77c0,1.66.65,2.48,2,2.48a4.24,4.24,0,0,0,1.45-.32l.56,2.45a9.16,9.16,0,0,1-2.89.52C135,256.62,133.81,254.55,133.81,251.49Z"/><path class="cls-6" d="M142.36,249.19c0-4.75,3.21-7.47,6.75-7.47s6.75,2.72,6.75,7.47-3.21,7.43-6.75,7.43S142.36,253.89,142.36,249.19Zm10.12,0c0-2.9-1.24-4.75-3.33-4.75s-3.34,1.9-3.34,4.75,1.26,4.71,3.34,4.71,3.29-1.87,3.29-4.71Z"/><path class="cls-6" d="M94.8,282.68V272.07h3.35v10.87c0,4.13,1.54,5.49,3.84,5.49s3.9-1.36,3.9-5.49V272.07h3.24v10.61c0,6.22-2.76,8.68-7.14,8.68S94.8,288.9,94.8,282.68Z"/><path class="cls-6" d="M112.26,288.57l1.95-2.31a7.43,7.43,0,0,0,4.93,2.17c2.13,0,3.3-1,3.3-2.45s-1.22-2.05-2.89-2.79L117,282.08a5.45,5.45,0,0,1-3.84-5c0-3,2.66-5.34,6.37-5.34a8.2,8.2,0,0,1,5.78,2.42l-1.72,2.12a6.06,6.06,0,0,0-4.11-1.62c-1.79,0-3,.84-3,2.21s1.45,2,3,2.68L122,280.6c2.26.94,3.84,2.37,3.84,5.11,0,3.06-2.55,5.62-6.8,5.62A9.67,9.67,0,0,1,112.26,288.57Z"/><path class="cls-6" d="M293.08,395.11h4.76c5.79,0,9,3.4,9,9.43s-3.12,9.56-8.87,9.56h-4.86Zm4.58,17c4.44,0,6.65-2.77,6.65-7.58s-2.21-7.45-6.65-7.45H295.5v15Z"/><path class="cls-6" d="M310.22,395.62a1.65,1.65,0,1,1,1.77,1.53h-.12a1.53,1.53,0,0,1-1.64-1.41S310.22,395.66,310.22,395.62Zm.44,4.43h2.39V414.1h-2.39Z"/><path class="cls-6" d="M316.21,412.5l1.17-1.56a6.46,6.46,0,0,0,4.16,1.66c1.85,0,2.77-1,2.77-2.18,0-1.45-1.66-2.09-3.22-2.67-2-.72-4.2-1.69-4.2-4.06s1.81-4,4.85-4a7.14,7.14,0,0,1,4.34,1.57l-1.15,1.54a5.25,5.25,0,0,0-3.21-1.26c-1.76,0-2.59.94-2.59,2,0,1.34,1.54,1.84,3.13,2.43,2,.77,4.34,1.6,4.34,4.34,0,2.29-1.82,4.18-5.14,4.18A8.45,8.45,0,0,1,316.21,412.5Z"/><path class="cls-6" d="M329.74,409.76V402h-2.1v-1.8l2.2-.13.29-3.95h2v3.95h3.82V402h-3.82v7.81c0,1.73.56,2.72,2.18,2.72a4.91,4.91,0,0,0,1.61-.37l.45,1.79a8.36,8.36,0,0,1-2.61.52C330.75,414.45,329.74,412.56,329.74,409.76Z"/><path class="cls-6" d="M339.09,400.05h2l.2,2.56h.08a4.86,4.86,0,0,1,4-2.9,3.27,3.27,0,0,1,1.45.29l-.45,2.08a4.22,4.22,0,0,0-1.36-.23c-1.2,0-2.62.86-3.57,3.24v9H339Z"/><path class="cls-6" d="M348.77,395.62a1.65,1.65,0,1,1,1.49,1.49A1.66,1.66,0,0,1,348.77,395.62Zm.44,4.43h2.37V414.1h-2.37Z"/><path class="cls-6" d="M358.45,412.66h-.07l-.24,1.44h-1.89V393.49h2.37v8.16A7.09,7.09,0,0,1,363,399.7c3.65,0,5.6,2.82,5.6,7.16,0,4.8-2.89,7.59-6.09,7.59A6.28,6.28,0,0,1,358.45,412.66Zm7.65-5.79c0-3.11-1.07-5.19-3.72-5.19a5.78,5.78,0,0,0-3.76,1.92V411a5.48,5.48,0,0,0,3.43,1.45c2.33,0,4.08-2.07,4.08-5.54Z"/><path class="cls-6" d="M372.06,409v-8.9h2.37v8.6c0,2.62.8,3.73,2.66,3.73,1.45,0,2.43-.71,3.76-2.35v-10h2.39V414.1h-2l-.2-2.19H381a6,6,0,0,1-4.63,2.54C373.36,414.45,372.06,412.54,372.06,409Z"/><path class="cls-6" d="M388.4,409.76V402h-2v-1.8l2.2-.13.29-3.95h1.85v3.95h3.82V402h-3.82v7.81c0,1.73.56,2.72,2.18,2.72a4.56,4.56,0,0,0,1.59-.37l.47,1.79a8.36,8.36,0,0,1-2.61.52C389.42,414.45,388.4,412.56,388.4,409.76Z"/><path class="cls-6" d="M397.33,395.62a1.65,1.65,0,1,1,1.48,1.49A1.65,1.65,0,0,1,397.33,395.62Zm.43,4.43h2.37V414.1h-2.37Z"/><path class="cls-6" d="M403.84,407.09c0-4.69,3.06-7.39,6.5-7.39s6.53,2.7,6.53,7.39-3.07,7.36-6.53,7.36S403.84,411.75,403.84,407.09Zm10.57,0c0-3.21-1.65-5.41-4.07-5.41s-4,2.2-4,5.41,1.64,5.38,4,5.38S414.41,410.31,414.41,407.09Z"/><path class="cls-6" d="M420.56,400.05h2l.2,2h0a6.71,6.71,0,0,1,4.72-2.37c2.89,0,4.34,1.91,4.34,5.49v8.91h-2.38v-8.67c0-2.62-.79-3.74-2.66-3.74-1.44,0-2.43.73-3.85,2.16V414h-2.37Z"/><path class="cls-6" d="M293.08,440h5.43c4.25,0,7.13,1.45,7.13,5.6s-2.89,5.87-7,5.87H295.5v7.52h-2.42Zm5.24,9.5c3.33,0,4.9-1.2,4.9-3.9s-1.67-3.63-5-3.63H295.5v7.53Z"/><path class="cls-6" d="M309.24,444.88h1.92l.21,2.56h.07a4.85,4.85,0,0,1,4-2.89,3.13,3.13,0,0,1,1.44.29l-.45,2.08a4.14,4.14,0,0,0-1.44-.23c-1.19,0-2.61.86-3.55,3.24v9h-2.38Z"/><path class="cls-6" d="M318,451.93c0-4.69,3.06-7.39,6.51-7.39s6.52,2.7,6.52,7.39-3.07,7.36-6.52,7.36S318,456.59,318,451.93Zm10.57,0c0-3.21-1.63-5.41-4.06-5.41s-4,2.2-4,5.41,1.63,5.38,4,5.38S328.52,455.15,328.52,451.93Z"/><path class="cls-6" d="M333.67,451.93c0-4.56,2.89-7.39,6.08-7.39a5.75,5.75,0,0,1,3.94,1.63l-.1-2.41v-5.43H346v20.61h-2l-.2-1.66h-.09a6.14,6.14,0,0,1-4.34,2C335.94,459.29,333.67,456.61,333.67,451.93Zm9.92,3.44V448a5,5,0,0,0-3.42-1.44c-2.26,0-4,2.17-4,5.38s1.45,5.38,3.86,5.38a4.84,4.84,0,0,0,3.6-2Z"/><path class="cls-6" d="M350.54,453.79v-8.91h2.37v8.61c0,2.62.79,3.73,2.66,3.73,1.45,0,2.43-.71,3.76-2.36v-10h2.46v14.06h-2l-.2-2.2h-.09a5.93,5.93,0,0,1-4.63,2.55C351.87,459.29,350.54,457.38,350.54,453.79Z"/><path class="cls-6" d="M365.42,451.93c0-4.69,3.17-7.39,6.75-7.39a5.89,5.89,0,0,1,4.13,1.65l-1.22,1.57a4.07,4.07,0,0,0-2.79-1.24c-2.55,0-4.34,2.2-4.34,5.41s1.77,5.38,4.34,5.38a5.1,5.1,0,0,0,3.31-1.45l1,1.61a6.86,6.86,0,0,1-4.54,1.78C368.27,459.29,365.42,456.59,365.42,451.93Z"/><path class="cls-6" d="M379.78,454.6v-7.78H377.7V445l2.2-.13.29-3.95h2v3.95H386v1.94h-3.82v7.81c0,1.72.56,2.72,2.18,2.72a4.79,4.79,0,0,0,1.59-.37l.47,1.79a8.36,8.36,0,0,1-2.61.52C380.79,459.29,379.78,457.4,379.78,454.6Z"/><path class="cls-6" d="M388.71,440.46a1.65,1.65,0,0,1,3.28,0,1.65,1.65,0,0,1-3.28,0Zm.43,4.42h2.37v14.06h-2.37Z"/><path class="cls-6" d="M395.22,451.93c0-4.69,3.06-7.39,6.5-7.39s6.53,2.7,6.53,7.39-3.07,7.36-6.53,7.36S395.22,456.59,395.22,451.93Zm10.57,0c0-3.21-1.65-5.41-4.07-5.41s-4.05,2.2-4.05,5.41,1.64,5.38,4.05,5.38S405.79,455.15,405.79,451.93Z"/><path class="cls-6" d="M411.94,444.88h1.92l.2,2h.07a6.73,6.73,0,0,1,4.72-2.37c2.89,0,4.34,1.91,4.34,5.49v8.91h-2.37v-8.68c0-2.61-.8-3.73-2.66-3.73-1.45,0-2.43.73-3.85,2.16v10.12h-2.37Z"/><path class="cls-2" d="M92.43,358.17c4.44-4.19,7.57-7.23,7.57-9.67a2.32,2.32,0,0,0-2-2.61,2.36,2.36,0,0,0-.46,0,4.51,4.51,0,0,0-3.11,1.78l-2.18-2.25A7.36,7.36,0,0,1,98,342.65a5.37,5.37,0,0,1,5.78,4.93c0,.21,0,.43,0,.64,0,2.89-2.75,6.06-5.6,9,.9-.09,2.11-.19,2.89-.19h3.52v3.39H92.34Z"/><path class="cls-2" d="M107.61,358.29a2.5,2.5,0,1,1,0,.07Z"/><path class="cls-2" d="M114.79,358.43l1.82-2.56a5.61,5.61,0,0,0,3.77,1.75,2.59,2.59,0,0,0,2.88-2.26,2.47,2.47,0,0,0,0-.47,2.52,2.52,0,0,0-2.31-2.71h-.43a4.08,4.08,0,0,0-2.59.9l-1.79-1.17.48-8.81h9.89v3.4h-6.41l-.29,3.27a4.48,4.48,0,0,1,1.94-.41,5.12,5.12,0,0,1,5.55,4.63,7.09,7.09,0,0,1,0,.8,6,6,0,0,1-5.94,6.1h-.46A8.41,8.41,0,0,1,114.79,358.43Z"/><path class="cls-7" d="M93.32,402.07H97.1V392H93.83v-2.51a11.9,11.9,0,0,0,4.34-1.59h3V402h3.27v3.26H93.29Z"/><path class="cls-7" d="M107.61,403.13a2.5,2.5,0,1,1,0,.07Z"/><path class="cls-7" d="M116.07,402.07h3.82V392h-3.27v-2.51a11.84,11.84,0,0,0,4.34-1.59h3V402h3.27v3.26H116.09Z"/><path class="cls-7" d="M93.32,451.25H97.1V441.12H93.83v-2.5A11.9,11.9,0,0,0,98.17,437h3v14.19h3.27v3.25H93.29Z"/><path class="cls-7" d="M107.61,452.3a2.49,2.49,0,1,1,0,.08Z"/><path class="cls-7" d="M122.24,444.42c0-1.11.1-2.81.15-3.9h-.1c-.44,1-.94,1.93-1.44,2.89l-2.3,3.82H128v3.06H114.69V447.5L121.05,437h5v17.44h-3.78Z"/><rect class="cls-3" x="251.75" y="431.39" width="32.43" height="32.18" rx="1.45"/><path class="cls-3" d="M282.73,432.84v29.27H253.19V432.84h29.54m0-2.9H253.19a2.9,2.9,0,0,0-2.89,2.9v29.27a2.89,2.89,0,0,0,2.89,2.89h29.54a2.89,2.89,0,0,0,2.89-2.89V432.84A2.89,2.89,0,0,0,282.73,429.94Z"/><rect class="cls-4" x="251.6" y="388.21" width="32.7" height="31.5" rx="1.45"/><path class="cls-4" d="M282.86,389.66v28.61H253.05V389.66h29.81m0-2.89H253.05a2.89,2.89,0,0,0-2.89,2.89v28.61a2.89,2.89,0,0,0,2.89,2.89h29.81a2.89,2.89,0,0,0,2.89-2.89V389.66A2.89,2.89,0,0,0,282.86,386.77Z"/></g></g></svg>